<?xml version="1.0" encoding="UTF-8"?>
<svg id="Layer_1" data-name="Layer 1" xmlns="http://www.w3.org/2000/svg" viewBox="0 0 3468.41 4622.89">
  <defs>
    <style>
      .cls-1 {
        fill: #ff921a;
      }

      .cls-2 {
        fill: #dd872a;
      }

      .cls-3 {
        fill: #37577c;
      }

      .cls-4 {
        fill: #2e1b3f;
      }

      .cls-5, .cls-6, .cls-7 {
        fill: #ffb444;
      }

      .cls-8 {
        fill: #3c7234;
      }

      .cls-9 {
        fill: #494949;
      }

      .cls-10 {
        fill: #fff;
      }

      .cls-11 {
        fill: #82bf62;
      }

      .cls-12 {
        fill: #ffcd97;
      }

      .cls-6 {
        font-family: PlusJakartaSans-Medium, 'Plus Jakarta Sans';
        font-size: 367.82px;
      }

      .cls-6, .cls-7 {
        font-weight: 500;
      }

      .cls-13 {
        fill: #acde4b;
      }

      .cls-14 {
        fill: #f2f2f2;
      }

      .cls-15 {
        fill: #edf6c4;
        fill-rule: evenodd;
      }

      .cls-16 {
        fill: #f9b15a;
      }

      .cls-17 {
        fill: #231f20;
      }

      .cls-18 {
        fill: #666ee3;
      }

      .cls-19 {
        fill: #d74227;
      }

      .cls-20 {
        fill: #f4910f;
      }

      .cls-21, .cls-22 {
        fill: #f8b541;
      }

      .cls-23 {
        fill: #2ed6df;
      }

      .cls-24 {
        fill: #333;
      }

      .cls-25 {
        fill: #193359;
      }

      .cls-26 {
        fill: #7b55b7;
      }

      .cls-27 {
        fill: none;
        stroke: #231f20;
        stroke-miterlimit: 10;
        stroke-width: 8.62px;
      }

      .cls-28 {
        fill: #dfe8f9;
      }

      .cls-7 {
        font-family: PlusJakartaDisplay-Medium, 'PlusJakartaDisplay Medium';
        font-size: 74.6px;
      }

      .cls-29 {
        fill: #ebf2d4;
      }

      .cls-30 {
        fill: #9cd880;
      }

      .cls-22 {
        font-family: PlusJakartaDisplay-Bold, 'PlusJakartaDisplay Bold';
        font-size: 132.87px;
        font-weight: 700;
      }

      .cls-31 {
        fill: #ffc2bd;
      }
    </style>
  </defs>
  <path class="cls-15" d="M1141.42,1148.7c-233.64,526.1-387.73,777.51-763.02,1213.27-730.37,848.1,2027.15,2588.99,2614.69,426.24,131.63-484.43,118.98-1056.42-24.59-1510.3-354.57-1120.92-1430.19-1023.01-1827.07-129.21Z"/>
  <g>
    <g>
      <circle class="cls-26" cx="2223.92" cy="1415.39" r="109.41" transform="translate(-349.46 1987.1) rotate(-45)"/>
      <circle class="cls-30" cx="2223.92" cy="1415.39" r="66.24" transform="translate(-349.46 1987.1) rotate(-45)"/>
    </g>
    <path class="cls-26" d="M2128.48,3197.17l-1029.84-397.01c-40.53-15.63-60.73-61.15-45.1-101.69l524.71-1361.1c15.63-40.53,61.15-60.73,101.69-45.1l1029.84,397.01c40.53,15.63,60.73,61.15,45.1,101.69l-524.71,1361.1c-15.63,40.53-61.15,60.73-101.69,45.1Z"/>
    <path class="cls-10" d="M2121.71,3125.08l-969.68-373.81c-16.7-6.44-25.03-25.2-18.59-41.91l513.73-1332.64c6.44-16.7,25.2-25.03,41.91-18.59l969.68,373.81c16.7,6.44,25.03,25.2,18.59,41.91l-513.73,1332.64c-6.44,16.7-25.2,25.03-41.91,18.59Z"/>
    <g>
      <path class="cls-11" d="M2475.13,1617.21l-30.53,79.19-572.9-220.85,30.53-79.19c16.48-42.74,64.48-64.03,107.22-47.55l418.13,161.19c34.19,13.18,54.66,46.54,53.03,81.24-.4,8.68-2.18,17.43-5.48,25.98Z"/>
      <path class="cls-30" d="M2475.13,1617.21l-30.53,79.19-534.2-205.94,13.29-34.48c16.48-42.74,64.48-64.03,107.22-47.55l418.13,161.19c12.49,4.81,23.14,12.32,31.57,21.61-.4,8.68-2.18,17.43-5.48,25.98Z"/>
    </g>
    <g>
      <rect class="cls-13" x="1575.5" y="1794.5" width="175.91" height="160.18" transform="translate(785.63 -472.87) rotate(21.08)"/>
      <path class="cls-10" d="M1627.87,1834.92l-22.8,10.11c-3.25,1.44-4.72,5.25-3.28,8.5l25.28,56.99c1.44,3.25,5.25,4.72,8.5,3.28l85.74-38.03c3.25-1.44,4.72-5.25,3.28-8.5l-10.21-23.01c-1.44-3.25-5.25-4.72-8.5-3.28l-56.51,25.06-13.05-27.96c-1.49-3.18-5.24-4.59-8.45-3.17Z"/>
    </g>
    <g>
      <rect class="cls-13" x="1485.97" y="2026.75" width="175.91" height="160.18" transform="translate(863.17 -425.12) rotate(21.08)"/>
      <path class="cls-10" d="M1538.34,2067.17l-22.8,10.11c-3.25,1.44-4.72,5.25-3.28,8.5l25.28,56.99c1.44,3.25,5.25,4.72,8.5,3.28l85.74-38.03c3.25-1.44,4.72-5.25,3.28-8.5l-10.21-23.01c-1.44-3.25-5.25-4.72-8.5-3.28l-56.51,25.06-13.05-27.96c-1.49-3.18-5.24-4.59-8.45-3.17Z"/>
    </g>
    <g>
      <rect class="cls-13" x="1398.41" y="2253.88" width="175.91" height="160.18" transform="translate(939.01 -378.43) rotate(21.08)"/>
      <path class="cls-10" d="M1450.78,2294.3l-22.8,10.11c-3.25,1.44-4.72,5.25-3.28,8.5l25.28,56.99c1.44,3.25,5.25,4.72,8.5,3.28l85.74-38.03c3.25-1.44,4.72-5.25,3.28-8.5l-10.21-23.01c-1.44-3.25-5.25-4.72-8.5-3.28l-56.51,25.06-13.05-27.96c-1.48-3.18-5.24-4.59-8.45-3.17Z"/>
    </g>
    <g>
      <rect class="cls-13" x="1310.85" y="2481.01" width="175.91" height="160.18" transform="translate(1014.85 -331.73) rotate(21.08)"/>
      <path class="cls-10" d="M1363.22,2521.43l-22.8,10.11c-3.25,1.44-4.72,5.25-3.28,8.5l25.28,56.99c1.44,3.25,5.25,4.72,8.5,3.28l85.74-38.03c3.25-1.44,4.72-5.25,3.28-8.5l-10.21-23.01c-1.44-3.25-5.25-4.72-8.5-3.28l-56.51,25.06-13.05-27.96c-1.48-3.18-5.24-4.59-8.45-3.17Z"/>
    </g>
    <path class="cls-10" d="M1640.65,2468.68l-22.8,10.11c-3.25,1.44-4.72,5.25-3.28,8.5l25.28,56.99c1.44,3.25,5.25,4.72,8.5,3.28l85.74-38.03c3.25-1.44,4.72-5.25,3.28-8.5l-10.21-23.01c-1.44-3.25-5.25-4.72-8.5-3.28l-56.51,25.06-13.05-27.96c-1.48-3.18-5.24-4.59-8.45-3.17Z"/>
    <g>
      <path class="cls-24" d="M1752.48,1609.63c-6.84,17.75-23.24,23.22-44.12,15.17l-38.04-14.66,34.68-89.96,38.04,14.66c18.59,7.17,25.81,21.18,19.43,37.73-2.14,5.55-6.07,10-12.22,12.63,5.87,8.51,5.26,16.59,2.23,24.44ZM1710.68,1561.21l20.65,7.96c5.8,2.23,10.94.06,13.03-5.38,2.09-5.43-.25-10.5-6.05-12.73l-20.65-7.96-6.98,18.11ZM1733.77,1602.42c2.75-7.12-.39-13.74-7.88-16.63l-21.49-8.29-9.08,23.55,21.49,8.29c7.49,2.89,14.25.09,16.95-6.92Z"/>
      <path class="cls-24" d="M1860.89,1580.28l-21.51,55.78c-7.77,20.16-28.46,29.94-50.56,21.42-22.1-8.52-30.87-29.65-23.1-49.82l21.51-55.78,18.72,7.21-21.51,55.78c-4.33,11.23.03,21.51,10.9,25.7,10.87,4.19,21-.5,25.33-11.73l21.51-55.78,18.72,7.21Z"/>
      <path class="cls-24" d="M1875.38,1585.86l29.34,11.31c29.22,11.26,40.67,37.32,30.62,63.4-10.05,26.08-36.2,37.78-65.3,26.56l-29.34-11.31,34.68-89.96ZM1876.81,1671.02c17.51,6.75,33.07-.15,39.82-17.66,6.75-17.51-.2-32.95-17.71-39.7l-11.11-4.28-22.11,57.35,11.11,4.28Z"/>
      <path class="cls-24" d="M1943.8,1663.83c10.33-26.81,37.19-38.92,63.27-28.86,19.44,7.49,29.67,23.78,29.25,38.88l-19.61,1.59c.21-9.9-5.29-19.38-16.16-23.57-15.94-6.14-31.29,1.67-38.04,19.18-6.8,17.63-.66,33.73,16.49,40.34,12.56,4.84,21.87,1.91,26.26-2.64l3.03-7.85-21.73-8.38,6.28-16.3,39.85,15.36-9.78,25.36c-9.3,13.33-27.84,20.06-50.42,11.35-27.05-10.43-38.97-37.77-28.69-64.45Z"/>
      <path class="cls-24" d="M2058.68,1656.52l60.49,23.32-6.28,16.3-41.78-16.11-7.87,20.41,39.36,15.17-6.28,16.3-39.36-15.17-7.96,20.65,41.78,16.11-6.4,16.25-60.37-23.27,34.68-89.96Z"/>
      <path class="cls-24" d="M2142.35,1707.5l-22.82-8.8,6.28-16.3,64.12,24.72-6.28,16.3-22.58-8.7-28.39,73.66-18.72-7.21,28.39-73.66Z"/>
      <path class="cls-24" d="M2220.72,1718.99l36.95,14.24c18.6,7.17,28.06,22.19,20.8,41.03-7.12,18.47-24.56,23.4-42.91,16.33l-18.23-7.03-12.57,32.6-18.72-7.21,34.68-89.96ZM2241.97,1774.34c7.85,3.03,14.95.08,17.79-7.29,2.89-7.49-.4-14.44-8.25-17.46l-18.35-7.08-9.54,24.75,18.35,7.08Z"/>
      <path class="cls-24" d="M2299.81,1749.48l18.72,7.21-28.39,73.66,40.45,15.59-6.28,16.3-59.17-22.81,34.68-89.96Z"/>
      <path class="cls-24" d="M2413.42,1896.6l-19.8-7.63,1.04-20.68-34.41-13.27-13.11,16.03-19.8-7.63,65.35-78.13,24.75,9.54-4.01,101.78ZM2395.62,1849.94l2.23-41.03-26.01,31.86,23.79,9.17Z"/>
      <path class="cls-24" d="M2529.6,1838.07l-34.68,89.96-14.49-5.59-19.46-70.05-20.99,54.46-18.72-7.21,34.68-89.96,14.37,5.54,19.72,69.73,20.85-54.09,18.72,7.21Z"/>
    </g>
    <path class="cls-18" d="M2416.4,2101.95l-556.97-214.71c-5.49-2.12-8.25-8.34-6.13-13.83h0c2.12-5.49,8.34-8.25,13.83-6.13l556.97,214.71c5.49,2.12,8.25,8.34,6.13,13.83h0c-2.12,5.49-8.34,8.25-13.83,6.13Z"/>
    <path class="cls-18" d="M2391.44,2166.7l-556.97-214.71c-5.49-2.12-8.25-8.34-6.13-13.83h0c2.12-5.49,8.34-8.25,13.83-6.13l556.97,214.71c5.49,2.12,8.25,8.34,6.13,13.83h0c-2.12,5.49-8.34,8.25-13.83,6.13Z"/>
    <path class="cls-18" d="M2326.2,2335.93l-556.97-214.71c-5.49-2.12-8.25-8.34-6.13-13.83h0c2.12-5.49,8.34-8.25,13.83-6.13l556.97,214.71c5.49,2.12,8.25,8.34,6.13,13.83h0c-2.12,5.49-8.34,8.25-13.83,6.13Z"/>
    <path class="cls-18" d="M2301.24,2400.68l-556.97-214.71c-5.49-2.12-8.25-8.34-6.13-13.83h0c2.12-5.49,8.34-8.25,13.83-6.13l556.97,214.71c5.49,2.12,8.25,8.34,6.13,13.83h0c-2.12,5.49-8.34,8.25-13.83,6.13Z"/>
    <path class="cls-18" d="M2239.31,2561.33l-556.97-214.71c-5.49-2.12-8.25-8.34-6.13-13.83h0c2.12-5.49,8.34-8.25,13.83-6.13l556.97,214.71c5.49,2.12,8.25,8.34,6.13,13.83h0c-2.12,5.49-8.34,8.25-13.83,6.13Z"/>
    <path class="cls-18" d="M2214.35,2626.08l-556.97-214.71c-5.49-2.12-8.25-8.34-6.13-13.83h0c2.12-5.49,8.34-8.25,13.83-6.13l556.97,214.71c5.49,2.12,8.25,8.34,6.13,13.83h0c-2.12,5.49-8.34,8.25-13.83,6.13Z"/>
    <path class="cls-18" d="M2149.31,2794.8l-556.97-214.71c-5.49-2.12-8.25-8.34-6.13-13.83h0c2.12-5.49,8.34-8.25,13.83-6.13l556.97,214.71c5.49,2.12,8.25,8.34,6.13,13.83h0c-2.12,5.49-8.34,8.25-13.83,6.13Z"/>
    <path class="cls-18" d="M2124.35,2859.55l-556.97-214.71c-5.49-2.12-8.25-8.34-6.13-13.83h0c2.12-5.49,8.34-8.25,13.83-6.13l556.97,214.71c5.49,2.12,8.25,8.34,6.13,13.83h0c-2.12,5.49-8.34,8.25-13.83,6.13Z"/>
  </g>
  <g>
    <path class="cls-21" d="M2117.83,380.52h-73.68c-5.28-31.77-17.78-61.1-35.74-86.26l52.11-52.11c3.38-3.38,3.38-8.9,0-12.28l-36.33-36.33c-3.37-3.38-8.9-3.38-12.28,0l-52.11,52.11c-25.16-17.96-54.49-30.46-86.26-35.75v-73.67c0-4.78-3.91-8.69-8.69-8.69h-51.37c-4.78,0-8.69,3.91-8.69,8.69v73.68c-31.77,5.29-61.1,17.78-86.26,35.74l-52.11-52.11c-3.38-3.38-8.9-3.38-12.28,0l-36.33,36.33c-3.38,3.38-3.38,8.9,0,12.28l52.11,52.11c-17.96,25.16-30.45,54.49-35.74,86.26h-73.68c-4.78,0-8.69,3.91-8.69,8.69v51.37c0,4.78,3.91,8.69,8.69,8.69h73.67c5.29,31.77,17.79,61.1,35.75,86.26h0l-52.11,52.11c-3.38,3.38-3.38,8.91,0,12.28l36.33,36.33c3.38,3.38,8.9,3.38,12.28,0l52.11-52.11c25.16,17.97,54.49,30.46,86.26,35.74v73.68c0,4.78,3.91,8.69,8.69,8.69h51.37c4.78,0,8.69-3.91,8.69-8.69v-73.67c31.77-5.29,61.1-17.78,86.26-35.75l52.11,52.11c3.38,3.38,8.91,3.38,12.28,0l36.33-36.33c3.38-3.37,3.38-8.9,0-12.28l-52.11-52.11c17.97-25.16,30.46-54.49,35.75-86.26h73.67c4.78,0,8.69-3.91,8.69-8.69v-51.37c0-4.78-3.91-8.69-8.69-8.69ZM1961.2,488.31c-11.99,19.9-28.71,36.62-48.61,48.61-11.98,7.22-25.1,12.73-39.04,16.18-11.01,2.73-22.52,4.18-34.37,4.18s-23.36-1.45-34.37-4.18c-13.94-3.45-27.06-8.96-39.04-16.18-19.9-11.99-36.62-28.71-48.61-48.61-7.22-11.98-12.73-25.1-16.18-39.04-2.73-11.01-4.18-22.52-4.18-34.37s1.45-23.36,4.18-34.37c3.45-13.94,8.96-27.06,16.18-39.04,11.99-19.9,28.71-36.62,48.61-48.61,11.98-7.22,25.1-12.73,39.04-16.18,11.01-2.73,22.53-4.18,34.37-4.18s23.36,1.45,34.37,4.18c13.94,3.45,27.06,8.96,39.04,16.18,19.9,11.99,36.62,28.71,48.61,48.61,7.22,11.98,12.73,25.1,16.18,39.04,2.73,11.01,4.18,22.53,4.18,34.37s-1.45,23.36-4.18,34.37c-3.45,13.94-8.96,27.06-16.18,39.04Z"/>
    <path class="cls-21" d="M2435.81,648.55h-54.37c-3.9-23.44-13.12-45.09-26.38-63.66l38.46-38.46c2.49-2.49,2.49-6.57,0-9.06l-26.81-26.81c-2.49-2.49-6.57-2.49-9.07,0l-38.46,38.46c-18.57-13.25-40.21-22.48-63.66-26.38v-54.37c0-3.53-2.88-6.41-6.41-6.41h-37.91c-3.53,0-6.41,2.88-6.41,6.41v54.37c-23.45,3.9-45.09,13.12-63.66,26.38l-38.46-38.46c-2.49-2.49-6.57-2.49-9.07,0l-26.81,26.81c-2.49,2.49-2.49,6.57,0,9.06l38.46,38.46c-13.25,18.57-22.47,40.21-26.38,63.66h-54.37c-3.53,0-6.41,2.88-6.41,6.41v37.91c0,3.53,2.88,6.41,6.41,6.41h54.37c3.9,23.44,13.13,45.09,26.38,63.66h0l-38.46,38.46c-2.49,2.49-2.49,6.58,0,9.07l26.81,26.81c2.49,2.49,6.57,2.49,9.07,0l38.46-38.46c18.57,13.26,40.21,22.48,63.66,26.38v54.37c0,3.53,2.88,6.41,6.41,6.41h37.91c3.53,0,6.41-2.88,6.41-6.41v-54.37c23.45-3.9,45.09-13.12,63.66-26.38l38.46,38.46c2.49,2.49,6.58,2.49,9.07,0l26.81-26.81c2.49-2.49,2.49-6.57,0-9.07l-38.46-38.46c13.26-18.57,22.48-40.21,26.38-63.66h54.37c3.53,0,6.41-2.88,6.41-6.41v-37.91c0-3.53-2.88-6.41-6.41-6.41ZM2320.21,728.09c-8.85,14.68-21.19,27.02-35.88,35.88-8.84,5.33-18.53,9.4-28.81,11.94-8.12,2.01-16.62,3.08-25.36,3.08s-17.24-1.07-25.37-3.08c-10.29-2.55-19.97-6.61-28.81-11.94-14.68-8.85-27.02-21.19-35.88-35.88-5.33-8.84-9.4-18.53-11.94-28.81-2.01-8.12-3.08-16.62-3.08-25.36s1.07-17.24,3.08-25.37c2.55-10.29,6.61-19.97,11.94-28.81,8.85-14.68,21.19-27.02,35.88-35.88,8.84-5.33,18.53-9.4,28.81-11.94,8.12-2.01,16.62-3.08,25.37-3.08s17.24,1.07,25.36,3.08c10.29,2.55,19.97,6.61,28.81,11.94,14.68,8.85,27.02,21.19,35.88,35.88,5.33,8.84,9.4,18.53,11.94,28.81,2.01,8.12,3.08,16.62,3.08,25.37s-1.07,17.24-3.08,25.36c-2.55,10.29-6.61,19.97-11.94,28.81Z"/>
  </g>
  <g>
    <path class="cls-30" d="M666.62,2338.14c-50.54-42.35-99.75-52.49-146.79-71.06-47.05-18.3-91.93-45.04-133.95-114.36,33.78-4.51,66.44-36.74,97.72-83.71,41.83,17.3,86.03,15.84,131.89,30.88,45.85,15.31,93.36,47.12,141.67,137.18-28.23,20.74-58.47,57.26-90.54,101.06Z"/>
    <path class="cls-30" d="M649.63,2307.62c-41.66-29.01-82.33-38.92-121.53-53.09-39.2-14.04-76.92-32.33-112.75-75.08,28.04-16.23,55.23-48.86,81.45-90.57,35.59,12.09,72.78,13.67,111.15,25.47,38.37,11.94,77.91,34.1,118.14,90.38-24.16,27.14-49.68,63.16-76.45,102.89Z"/>
    <g>
      <path class="cls-8" d="M488.69,2082.14c-27.53,42.15-56.13,73.48-85.62,85.37,38.84,53.26,80,74.57,122.93,90.25,42.93,15.87,87.65,26.12,133.5,61.56,28.06-40.01,54.72-75.09,79.87-99.36-44.14-70.1-87.52-96.01-129.5-109.3-41.98-13.11-82.56-13.6-121.18-28.53ZM657.72,2309.06c-43.75-32.97-86.44-43.22-127.52-57.78-41.08-14.4-80.55-33.1-117.92-79.32,26.58-14.3,52.41-43.69,77.37-81.84,37.16,14.36,76.11,15.73,116.37,27.91,40.25,12.34,81.81,35.5,124.1,97.08-22.93,24.52-47.09,57.29-72.39,93.94Z"/>
      <g>
        <path class="cls-8" d="M505.96,2095.63c-7.19,12.04-20.49,18.26-29.46,13.64-1.73-.86-3.17-2.02-4.31-3.39,5.54-7.44,11.04-15.37,16.5-23.74,6.76,2.6,13.58,4.77,20.46,6.64-.74,2.24-1.8,4.55-3.19,6.84Z"/>
        <path class="cls-8" d="M428.71,2190.43c-1.48,1.12-3.18,1.87-5.04,2.23-6.94-7.51-13.81-15.85-20.6-25.15,5.85-2.35,11.66-5.48,17.44-9.3,1.98,1.47,3.88,3.11,5.61,4.92,8.99,9.14,10.27,21.21,2.58,27.3Z"/>
        <path class="cls-8" d="M739.38,2219.97c-4.99,4.82-10.04,10.06-15.14,15.68-2.15-2.06-4.25-4.37-6.22-6.94,0,0-.01-.02-.02-.03-10.25-13.11-12.95-29.23-6.26-38.05,0,0,0,0,0,0,1.29-1.64,2.83-2.84,4.55-3.56,7.67,9.72,15.36,20.63,23.08,32.9Z"/>
        <path class="cls-8" d="M676.05,2296.14c-5.46,7.51-10.97,15.25-16.54,23.19-8.02-6.21-16-11.64-23.95-16.46.7-2.33,1.76-4.64,3.18-6.83,0,0,0,0,0,0,7.37-11.44,21.65-14.8,32.12-5.79,0,0,.01.01.02.02,2.01,1.7,3.74,3.7,5.16,5.87Z"/>
      </g>
    </g>
    <path class="cls-8" d="M611.16,2200.39c-16.93,29.59-50.68,47.5-73.96,39.85-23.31-8.17-27-36.42-9.61-64.73,17.43-28.36,49.06-51.67,71.93-45.14,22.82,6.84,28.61,40.63,11.65,70.02Z"/>
    <path class="cls-30" d="M550.13,2233.99c-2.18,3.61-4.36,7.18-6.55,10.73-3.1-1.01-6.2-2.03-9.28-3.07,2.12-3.38,4.24-6.79,6.35-10.23-11.46-5.33-15.78-17.46-11.12-31.66,5.35-1.11,10.7-2.34,16.07-3.63-2.33,9.36-.23,16.27,4.65,19.38,4.09-6.9,8.16-13.89,12.2-20.96-1.57-1.41-3.14-2.81-4.7-4.2-8.87-7.96-9.29-17.84-2.54-29.9,8.81-15.65,23.74-25.01,38.01-21.8,1.95-3.66,3.9-7.33,5.84-11.01,3.03.87,6.07,1.8,9.12,2.79-2.16,4.05-4.32,8.1-6.49,12.15,7.59,5.99,10.19,16.86,7.34,28.45-5.39.99-10.77,2.13-16.15,3.38,1.45-5.57,1.18-10.42-.88-13.89-3.94,7.24-7.91,14.47-11.91,21.64.55.49,1.1.98,1.65,1.47,8.89,8.15,10.26,18.39,3.24,30.6-7.97,13.92-21.44,21.16-34.85,19.76ZM569.9,2210.83c2.35-4.08,1.84-7.2-.43-9.82-3.15,5.51-6.31,10.98-9.48,16.41,4.24-.56,7.91-3.1,9.91-6.58ZM573,2175.83c3.72-6.7,7.43-13.45,11.11-20.24-5.75-.98-11.52,2.27-14.44,7.56-2.38,4.31-1.78,8.09,1.59,11.08.58.53,1.16,1.06,1.75,1.59Z"/>
  </g>
  <g>
    <path class="cls-30" d="M2316.8,4622.89c-50.54-42.35-99.75-52.49-146.79-71.06-47.05-18.3-91.93-45.04-133.95-114.36,33.78-4.51,66.44-36.74,97.72-83.71,41.83,17.3,86.03,15.84,131.89,30.88,45.85,15.31,93.36,47.12,141.67,137.18-28.23,20.74-58.47,57.26-90.54,101.06Z"/>
    <path class="cls-30" d="M2299.81,4592.37c-41.66-29.01-82.33-38.92-121.53-53.09-39.2-14.04-76.92-32.33-112.75-75.08,28.04-16.23,55.23-48.86,81.45-90.57,35.59,12.09,72.78,13.67,111.15,25.47,38.37,11.94,77.91,34.1,118.14,90.38-24.16,27.14-49.68,63.16-76.45,102.89Z"/>
    <g>
      <path class="cls-8" d="M2138.87,4366.89c-27.53,42.15-56.13,73.48-85.62,85.37,38.84,53.26,80,74.57,122.93,90.25,42.93,15.87,87.65,26.12,133.5,61.56,28.06-40.01,54.72-75.09,79.87-99.36-44.14-70.1-87.52-96.01-129.5-109.3-41.98-13.11-82.56-13.6-121.18-28.53ZM2307.9,4593.81c-43.75-32.97-86.44-43.22-127.52-57.78-41.08-14.4-80.55-33.1-117.92-79.32,26.58-14.3,52.41-43.69,77.37-81.84,37.16,14.36,76.11,15.73,116.37,27.91,40.25,12.34,81.81,35.5,124.1,97.08-22.93,24.52-47.09,57.29-72.39,93.94Z"/>
      <g>
        <path class="cls-8" d="M2156.14,4380.38c-7.19,12.04-20.49,18.26-29.46,13.64-1.73-.86-3.17-2.02-4.31-3.39,5.54-7.44,11.04-15.37,16.5-23.74,6.76,2.6,13.58,4.77,20.46,6.64-.74,2.24-1.8,4.55-3.19,6.84Z"/>
        <path class="cls-8" d="M2078.89,4475.18c-1.48,1.12-3.18,1.87-5.04,2.23-6.94-7.51-13.81-15.85-20.6-25.15,5.85-2.35,11.66-5.48,17.44-9.3,1.98,1.47,3.88,3.11,5.61,4.92,8.99,9.14,10.27,21.21,2.58,27.3Z"/>
        <path class="cls-8" d="M2389.56,4504.72c-4.99,4.82-10.04,10.06-15.14,15.68-2.15-2.06-4.25-4.37-6.22-6.94,0,0-.01-.02-.02-.03-10.25-13.11-12.95-29.23-6.26-38.05,0,0,0,0,0,0,1.29-1.64,2.83-2.84,4.55-3.56,7.67,9.72,15.36,20.63,23.08,32.9Z"/>
        <path class="cls-8" d="M2326.22,4580.89c-5.46,7.51-10.97,15.25-16.54,23.19-8.02-6.21-16-11.64-23.95-16.46.7-2.33,1.76-4.64,3.18-6.83,0,0,0,0,0,0,7.37-11.44,21.65-14.8,32.12-5.79,0,0,.01.01.02.02,2.01,1.7,3.74,3.7,5.16,5.87Z"/>
      </g>
    </g>
    <path class="cls-8" d="M2261.33,4485.14c-16.93,29.59-50.68,47.5-73.96,39.85-23.31-8.17-27-36.42-9.61-64.73,17.43-28.36,49.06-51.67,71.93-45.14,22.82,6.84,28.61,40.63,11.65,70.02Z"/>
    <path class="cls-30" d="M2200.31,4518.74c-2.18,3.61-4.36,7.18-6.55,10.73-3.1-1.01-6.2-2.03-9.28-3.07,2.12-3.38,4.24-6.79,6.35-10.23-11.46-5.33-15.78-17.46-11.12-31.66,5.35-1.11,10.7-2.34,16.07-3.63-2.33,9.36-.23,16.27,4.65,19.38,4.09-6.9,8.16-13.89,12.2-20.96-1.57-1.41-3.14-2.81-4.7-4.2-8.87-7.96-9.29-17.84-2.54-29.9,8.81-15.65,23.74-25.01,38.01-21.8,1.95-3.66,3.9-7.33,5.84-11.01,3.03.87,6.07,1.8,9.12,2.79-2.16,4.05-4.32,8.1-6.49,12.15,7.59,5.99,10.19,16.86,7.34,28.45-5.39.99-10.77,2.13-16.15,3.38,1.45-5.57,1.18-10.42-.88-13.89-3.94,7.24-7.91,14.47-11.91,21.64.55.49,1.1.98,1.65,1.47,8.89,8.15,10.26,18.39,3.24,30.6-7.97,13.92-21.44,21.16-34.85,19.76ZM2220.08,4495.58c2.35-4.08,1.84-7.2-.43-9.82-3.15,5.51-6.31,10.98-9.48,16.41,4.24-.56,7.91-3.1,9.91-6.58ZM2223.18,4460.58c3.72-6.7,7.43-13.45,11.11-20.24-5.75-.98-11.52,2.27-14.44,7.56-2.38,4.31-1.78,8.09,1.59,11.08.58.53,1.16,1.06,1.75,1.59Z"/>
  </g>
  <g>
    <path class="cls-30" d="M3251.41,2091.49c-50.54-42.35-99.75-52.49-146.79-71.06-47.05-18.3-91.93-45.04-133.95-114.36,33.78-4.51,66.44-36.74,97.72-83.71,41.83,17.3,86.03,15.84,131.89,30.88,45.85,15.31,93.36,47.12,141.67,137.18-28.23,20.74-58.47,57.27-90.54,101.06Z"/>
    <path class="cls-30" d="M3234.42,2060.97c-41.66-29.01-82.33-38.92-121.53-53.09-39.2-14.04-76.92-32.33-112.75-75.08,28.04-16.23,55.23-48.86,81.45-90.57,35.59,12.09,72.78,13.67,111.15,25.47,38.37,11.94,77.91,34.1,118.14,90.38-24.16,27.14-49.68,63.16-76.45,102.89Z"/>
    <g>
      <path class="cls-8" d="M3073.48,1835.49c-27.53,42.15-56.13,73.48-85.62,85.37,38.84,53.26,80,74.57,122.93,90.25,42.93,15.87,87.65,26.12,133.5,61.56,28.06-40.01,54.72-75.09,79.87-99.36-44.14-70.1-87.52-96.01-129.5-109.3-41.98-13.11-82.56-13.6-121.18-28.53ZM3242.51,2062.41c-43.75-32.97-86.44-43.22-127.52-57.78-41.08-14.4-80.55-33.1-117.92-79.32,26.58-14.3,52.41-43.69,77.37-81.84,37.16,14.36,76.11,15.73,116.37,27.91,40.25,12.34,81.81,35.5,124.1,97.08-22.93,24.52-47.09,57.29-72.39,93.94Z"/>
      <g>
        <path class="cls-8" d="M3090.75,1848.97c-7.19,12.04-20.49,18.26-29.46,13.64-1.73-.86-3.17-2.02-4.31-3.39,5.54-7.44,11.04-15.37,16.5-23.74,6.76,2.6,13.58,4.77,20.46,6.64-.74,2.24-1.8,4.55-3.19,6.84Z"/>
        <path class="cls-8" d="M3013.5,1943.78c-1.48,1.12-3.18,1.87-5.04,2.23-6.94-7.51-13.81-15.85-20.6-25.15,5.85-2.35,11.66-5.48,17.44-9.3,1.98,1.47,3.88,3.11,5.61,4.92,8.99,9.14,10.27,21.21,2.58,27.3Z"/>
        <path class="cls-8" d="M3324.17,1973.32c-4.99,4.82-10.04,10.06-15.14,15.68-2.15-2.06-4.25-4.37-6.22-6.94,0,0-.01-.02-.02-.03-10.25-13.11-12.95-29.23-6.26-38.05,0,0,0,0,0,0,1.29-1.64,2.83-2.84,4.55-3.56,7.67,9.72,15.36,20.63,23.08,32.9Z"/>
        <path class="cls-8" d="M3260.84,2049.49c-5.46,7.51-10.97,15.25-16.54,23.19-8.02-6.21-16-11.64-23.95-16.46.7-2.33,1.76-4.64,3.18-6.83,0,0,0,0,0,0,7.37-11.44,21.65-14.8,32.12-5.79,0,0,.01.01.02.02,2.01,1.7,3.74,3.7,5.16,5.87Z"/>
      </g>
    </g>
    <path class="cls-8" d="M3195.95,1953.74c-16.93,29.59-50.68,47.5-73.96,39.85-23.31-8.17-27-36.43-9.61-64.73,17.43-28.36,49.06-51.67,71.93-45.14,22.82,6.84,28.61,40.63,11.65,70.02Z"/>
    <path class="cls-30" d="M3134.92,1987.34c-2.18,3.61-4.36,7.18-6.55,10.73-3.1-1.01-6.2-2.03-9.28-3.07,2.12-3.38,4.24-6.79,6.35-10.23-11.46-5.33-15.78-17.46-11.12-31.66,5.35-1.11,10.7-2.34,16.07-3.63-2.33,9.36-.23,16.27,4.65,19.38,4.09-6.9,8.16-13.89,12.2-20.96-1.57-1.41-3.14-2.81-4.7-4.2-8.87-7.96-9.29-17.84-2.54-29.9,8.81-15.65,23.74-25.01,38.01-21.8,1.95-3.66,3.9-7.33,5.84-11.01,3.03.87,6.07,1.8,9.12,2.79-2.16,4.05-4.32,8.1-6.49,12.15,7.59,5.99,10.19,16.86,7.34,28.45-5.39.99-10.77,2.13-16.15,3.38,1.45-5.57,1.18-10.42-.88-13.89-3.94,7.24-7.91,14.47-11.91,21.64.55.49,1.1.98,1.65,1.47,8.89,8.15,10.26,18.39,3.24,30.6-7.97,13.92-21.44,21.16-34.85,19.76ZM3154.69,1964.18c2.35-4.08,1.84-7.2-.43-9.82-3.15,5.51-6.31,10.98-9.48,16.41,4.24-.56,7.91-3.1,9.91-6.58ZM3157.79,1929.18c3.72-6.7,7.43-13.45,11.11-20.24-5.75-.98-11.52,2.27-14.44,7.56-2.38,4.31-1.78,8.09,1.59,11.08.58.53,1.16,1.06,1.75,1.59Z"/>
  </g>
  <g>
    <ellipse class="cls-1" cx="2676.95" cy="3748.69" rx="320.5" ry="301.17"/>
    <circle class="cls-5" cx="2648.45" cy="3748.69" r="301.17"/>
    <circle class="cls-20" cx="2648.45" cy="3748.69" r="226.09" transform="translate(-1875.01 2970.7) rotate(-45)"/>
    <text class="cls-6" transform="translate(2528.93 3883.63)"><tspan x="0" y="0">$</tspan></text>
  </g>
  <g>
    <g>
      <path class="cls-20" d="M3272.19,2487.56l73.19,97.06s2.26,8.4-1.98,25.48c-1.74,6.99-4.58,15.45-9.11,25.38-3.17,6.94-7.17,14.6-12.23,22.97-3.77,6.28-8.12,12.96-13.14,20.05-4.39,6.21-9.31,12.74-14.79,19.57-4.55,5.69-9.5,11.59-14.88,17.73-5.02,5.71-10.41,11.61-16.19,17.71-5.02,5.28-10.34,10.7-15.98,16.28-5.41,5.35-11.12,10.83-17.13,16.44-5.33,4.99-10.91,10.07-16.76,15.27-5.69,5.08-11.64,10.25-17.82,15.52-5.57,4.75-11.34,9.58-17.33,14.49-5.92,4.85-12.05,9.77-18.39,14.79-5.75,4.56-11.7,9.17-17.8,13.86-3.08,2.36-6.22,4.74-9.39,7.13-3.17,2.39-6.33,4.75-9.44,7.07-6.19,4.58-12.26,9.03-18.22,13.3-6.57,4.72-12.99,9.26-19.28,13.62-6.37,4.4-12.59,8.63-18.7,12.67-6.77,4.5-13.37,8.79-19.82,12.87-6.6,4.19-13.03,8.16-19.29,11.91-7.05,4.24-13.89,8.22-20.52,11.95-6.91,3.89-13.59,7.51-20.04,10.89-7.46,3.88-14.61,7.44-21.48,10.7-7.38,3.49-14.42,6.63-21.14,9.43-8.08,3.39-15.7,6.33-22.88,8.84-8.19,2.88-15.82,5.22-22.89,7.12-9.44,2.56-17.91,4.3-25.45,5.44-10.8,1.62-19.71,2.04-26.91,1.78-17.58-.61-25.04-5.1-25.04-5.1l-73.19-97.06,14.47-8.92,19.29-11.89,20.17-12.44,19.29-11.89,20.17-12.43,19.29-11.89,20.17-12.44,19.29-11.88,20.15-12.43,19.3-11.9,20.16-12.42,19.29-11.89,20.17-12.44,19.29-11.89,10.09-6.21,8.75-7.99,16.74-15.27,17.5-15.97,16.74-15.27,17.49-15.97,16.75-15.28,17.49-15.96,16.73-15.28,17.51-15.97,16.74-15.27,17.5-15.98,16.74-15.27,17.51-15.97,16.74-15.27,12.55-11.46Z"/>
      <path class="cls-5" d="M3272.19,2487.56c6.86,9.1,8.72,21.43,6.12,36.22-1.42,8.15-4.21,17.04-8.24,26.54-3.18,7.48-7.13,15.34-11.81,23.51-3.81,6.63-8.08,13.45-12.82,20.47-4.43,6.54-9.24,13.24-14.43,20.04-4.56,5.97-9.41,12.04-14.54,18.19-5,6.02-10.28,12.09-15.8,18.23-5,5.55-10.2,11.15-15.61,16.77-5.39,5.62-10.97,11.27-16.75,16.94-5.31,5.23-10.79,10.47-16.43,15.71-5.69,5.31-11.53,10.62-17.52,15.93-5.58,4.93-11.28,9.86-17.1,14.79-5.94,5.02-12.02,10.04-18.21,15.03-5.79,4.68-11.7,9.34-17.71,13.98-3.11,2.39-6.22,4.78-9.38,7.16-3.15,2.38-6.3,4.72-9.46,7.05-6.11,4.51-12.21,8.91-18.31,13.19-6.5,4.59-13,9.05-19.46,13.38-6.34,4.24-12.65,8.37-18.92,12.37-6.75,4.3-13.46,8.46-20.13,12.46-6.59,3.98-13.13,7.8-19.62,11.47-7.04,4-14.01,7.82-20.9,11.45-6.89,3.65-13.7,7.11-20.41,10.4-7.42,3.62-14.71,7.02-21.87,10.17-7.32,3.24-14.5,6.24-21.49,8.98-7.97,3.13-15.73,5.91-23.24,8.37-8.04,2.63-15.79,4.86-23.2,6.7-9.15,2.25-17.79,3.89-25.86,4.89-10.24,1.27-19.56,1.5-27.78.63-14.93-1.57-26.28-6.74-33.14-15.84-34.11-45.24,55.54-170.37,200.24-279.49,144.71-109.12,289.67-160.9,323.78-115.66Z"/>
      <ellipse class="cls-20" cx="3008.49" cy="2686.73" rx="226.98" ry="70.96" transform="translate(-1011.22 2352.9) rotate(-37.02)"/>
      <path class="cls-5" d="M2809.08,2897.93l64.22,85.16c-10.8,1.62-19.71,2.04-26.91,1.78l-65.09-86.32c8.22.88,17.54.64,27.78-.63Z"/>
      <path class="cls-5" d="M2858.14,2886.34l63.5,84.2c-8.19,2.88-15.82,5.22-22.89,7.12l-63.81-84.62c7.42-1.84,15.16-4.07,23.2-6.7Z"/>
      <path class="cls-5" d="M2902.87,2868.99l62.79,83.27c-7.38,3.49-14.42,6.63-21.14,9.43l-63.14-83.73c6.99-2.74,14.17-5.74,21.49-8.98Z"/>
      <path class="cls-5" d="M2945.15,2848.42l62.03,82.26c-6.91,3.89-13.59,7.51-20.04,10.89l-62.4-82.75c6.71-3.28,13.53-6.75,20.41-10.4Z"/>
      <path class="cls-5" d="M2985.67,2825.5l61.32,81.32c-6.6,4.19-13.03,8.16-19.29,11.91l-61.65-81.75c6.49-3.67,13.03-7.49,19.62-11.47Z"/>
      <path class="cls-5" d="M3024.72,2800.66l60.79,80.61c-6.37,4.4-12.59,8.63-18.7,12.67l-61.01-80.91c6.27-4.01,12.58-8.13,18.92-12.37Z"/>
      <path class="cls-5" d="M3062.49,2774.1l60.52,80.26c-6.19,4.58-12.26,9.03-18.22,13.3l-60.61-80.38c6.1-4.28,12.2-8.68,18.31-13.19Z"/>
      <path class="cls-5" d="M3099.04,2745.92l60.61,80.38c-5.75,4.56-11.7,9.17-17.8,13.86l-60.52-80.26c6.01-4.63,11.92-9.29,17.71-13.98Z"/>
      <path class="cls-5" d="M3134.35,2716.1l61.01,80.91c-5.57,4.75-11.34,9.58-17.33,14.49l-60.79-80.61c5.82-4.93,11.53-9.86,17.1-14.79Z"/>
      <path class="cls-5" d="M3168.3,2684.47l61.65,81.75c-5.33,4.99-10.91,10.07-16.76,15.27l-61.32-81.32c5.64-5.24,11.11-10.48,16.43-15.71Z"/>
      <path class="cls-5" d="M3200.66,2650.76l62.4,82.75c-5.02,5.28-10.34,10.7-15.98,16.28l-62.03-82.26c5.4-5.62,10.61-11.22,15.61-16.77Z"/>
      <path class="cls-5" d="M3231,2614.33l63.14,83.73c-4.55,5.69-9.5,11.59-14.88,17.73l-62.79-83.27c5.13-6.15,9.98-12.22,14.54-18.19Z"/>
      <path class="cls-5" d="M3258.25,2573.83l63.81,84.62c-3.77,6.28-8.12,12.96-13.14,20.05l-63.49-84.2c4.74-7.01,9.01-13.84,12.82-20.47Z"/>
      <path class="cls-5" d="M3278.31,2523.77l65.09,86.32c-1.74,6.99-4.58,15.45-9.11,25.38l-64.22-85.16c4.04-9.5,6.82-18.39,8.24-26.54Z"/>
    </g>
    <path class="cls-5" d="M3122.36,2585.23l-30.29,22.84s-24.15-10.74-62.63,18.28c-38.48,29.02-18.43,64.14-43.81,83.28s-43.75-16.93-43.75-16.93l-35.59,26.04,13.84,18.99-36.85,27.78,13.89,18.42,37.46-28.25s14.63,22.39,67.04-17.13c52.4-39.52,21.59-65.05,46.97-84.19s42.8,5.66,42.8,5.66l31.86-24.18-10.78-14.3,23.74-17.91-13.89-18.42Z"/>
  </g>
  <g>
    <g>
      <path class="cls-20" d="M477.17,4322.89l-38.37-43.91s-1.37-3.94.07-12.26c.59-3.41,1.66-7.55,3.48-12.46,1.28-3.43,2.93-7.23,5.06-11.41,1.59-3.13,3.44-6.48,5.59-10.05,1.89-3.12,4.01-6.42,6.4-9.87,1.98-2.88,4.15-5.87,6.51-9,2.2-2.91,4.58-5.91,7.14-9.03,2.22-2.7,4.58-5.48,7.08-8.34,2.4-2.75,4.94-5.57,7.63-8.46,2.38-2.57,4.87-5.2,7.49-7.88,2.55-2.63,5.21-5.31,7.99-8.04,2.5-2.47,5.1-4.97,7.79-7.53,2.66-2.52,5.43-5.09,8.29-7.71,2.6-2.38,5.28-4.79,8.04-7.25,1.39-1.24,2.81-2.48,4.25-3.74,1.44-1.26,2.86-2.49,4.27-3.71,2.8-2.41,5.55-4.74,8.26-7,2.98-2.48,5.9-4.88,8.75-7.18,2.9-2.33,5.73-4.56,8.51-6.71,3.08-2.39,6.1-4.67,9.04-6.84,3.01-2.23,5.95-4.36,8.82-6.37,3.23-2.27,6.36-4.41,9.4-6.43,3.17-2.1,6.24-4.06,9.21-5.9,3.43-2.11,6.73-4.07,9.91-5.86,3.41-1.92,6.67-3.67,9.79-5.24,3.75-1.9,7.3-3.57,10.64-5.02,3.82-1.66,7.39-3.04,10.71-4.2,4.43-1.55,8.42-2.67,11.99-3.48,5.11-1.15,9.36-1.65,12.82-1.78,8.43-.32,12.16,1.57,12.16,1.57l38.37,43.92-6.62,4.77-8.82,6.36-9.22,6.65-8.82,6.36-9.22,6.64-8.82,6.36-9.22,6.65-8.82,6.35-9.21,6.64-8.82,6.36-9.22,6.64-8.82,6.36-9.22,6.65-8.82,6.36-4.61,3.32-3.91,4.12-7.48,7.89-7.82,8.24-7.48,7.89-7.82,8.24-7.49,7.89-7.82,8.24-7.48,7.89-7.82,8.24-7.48,7.89-7.82,8.25-7.48,7.89-7.82,8.24-7.48,7.89-5.61,5.92Z"/>
      <path class="cls-5" d="M477.17,4322.89c-3.6-4.12-4.91-9.95-4.18-17.12.4-3.95,1.42-8.3,3.03-12.98,1.26-3.69,2.88-7.58,4.84-11.66,1.59-3.3,3.4-6.72,5.43-10.24,1.89-3.28,3.96-6.65,6.21-10.09,1.97-3.01,4.09-6.09,6.33-9.21,2.19-3.05,4.5-6.14,6.93-9.27,2.2-2.83,4.5-5.69,6.89-8.56,2.38-2.88,4.86-5.77,7.43-8.69,2.36-2.69,4.8-5.38,7.32-8.08,2.54-2.74,5.15-5.48,7.83-8.23,2.5-2.55,5.06-5.11,7.67-7.67,2.67-2.61,5.4-5.22,8.2-7.82,2.61-2.44,5.28-4.87,7.99-7.3,1.4-1.25,2.81-2.5,4.24-3.75,1.43-1.25,2.85-2.48,4.28-3.7,2.77-2.37,5.54-4.68,8.31-6.94,2.95-2.42,5.91-4.78,8.85-7.07,2.89-2.25,5.77-4.44,8.63-6.57,3.08-2.29,6.15-4.51,9.2-6.66,3.02-2.13,6.01-4.19,8.99-6.17,3.23-2.16,6.43-4.22,9.6-6.2,3.17-1.99,6.31-3.88,9.41-5.68,3.42-1.99,6.8-3.87,10.12-5.62,3.39-1.8,6.72-3.48,9.97-5.04,3.71-1.77,7.32-3.37,10.83-4.81,3.76-1.54,7.39-2.87,10.87-4.01,4.3-1.39,8.38-2.48,12.2-3.23,4.86-.96,9.31-1.39,13.27-1.26,7.2.23,12.81,2.32,16.4,6.43,17.89,20.47-20.69,83.44-86.16,140.65-65.47,57.21-133.05,86.99-150.93,66.52Z"/>
      <ellipse class="cls-20" cx="596.47" cy="4218.48" rx="108.89" ry="34.04" transform="translate(-2628.43 1434.35) rotate(-41.15)"/>
      <path class="cls-5" d="M684.59,4110.54l-33.67-38.53c5.11-1.15,9.36-1.65,12.82-1.78l34.13,39.05c-3.96-.14-8.41.3-13.27,1.26Z"/>
      <path class="cls-5" d="M661.51,4117.78l-33.29-38.1c3.82-1.66,7.39-3.04,10.71-4.2l33.45,38.29c-3.49,1.14-7.11,2.47-10.87,4.01Z"/>
      <path class="cls-5" d="M640.71,4127.62l-32.92-37.68c3.41-1.92,6.67-3.67,9.79-5.24l33.1,37.88c-3.25,1.55-6.58,3.23-9.97,5.04Z"/>
      <path class="cls-5" d="M621.19,4138.93l-32.52-37.22c3.17-2.1,6.24-4.06,9.21-5.9l32.71,37.44c-3.1,1.8-6.24,3.69-9.41,5.68Z"/>
      <path class="cls-5" d="M602.6,4151.29l-32.15-36.79c3.01-2.23,5.95-4.36,8.82-6.37l32.32,36.99c-2.98,1.98-5.98,4.04-8.99,6.17Z"/>
      <path class="cls-5" d="M584.77,4164.53l-31.87-36.47c2.9-2.33,5.73-4.56,8.51-6.71l31.99,36.61c-2.86,2.13-5.74,4.32-8.63,6.57Z"/>
      <path class="cls-5" d="M567.61,4178.54l-31.73-36.31c2.8-2.41,5.55-4.74,8.26-7l31.78,36.37c-2.77,2.26-5.54,4.57-8.31,6.94Z"/>
      <path class="cls-5" d="M551.1,4193.29l-31.78-36.37c2.6-2.38,5.28-4.79,8.04-7.25l31.73,36.31c-2.72,2.43-5.38,4.86-7.99,7.3Z"/>
      <path class="cls-5" d="M535.23,4208.77l-31.99-36.61c2.5-2.47,5.1-4.97,7.79-7.53l31.87,36.47c-2.62,2.56-5.17,5.12-7.67,7.67Z"/>
      <path class="cls-5" d="M520.08,4225.08l-32.32-36.99c2.38-2.57,4.87-5.2,7.49-7.88l32.15,36.79c-2.52,2.7-4.96,5.4-7.32,8.08Z"/>
      <path class="cls-5" d="M505.76,4242.33l-32.71-37.44c2.22-2.7,4.58-5.48,7.08-8.34l32.52,37.22c-2.39,2.87-4.69,5.73-6.89,8.56Z"/>
      <path class="cls-5" d="M492.5,4260.81l-33.1-37.88c1.98-2.88,4.15-5.87,6.51-9l32.92,37.68c-2.24,3.12-4.35,6.19-6.33,9.21Z"/>
      <path class="cls-5" d="M480.86,4281.13l-33.45-38.29c1.59-3.13,3.44-6.48,5.59-10.05l33.29,38.1c-2.03,3.52-3.84,6.93-5.43,10.24Z"/>
      <path class="cls-5" d="M472.99,4305.77l-34.13-39.05c.59-3.41,1.66-7.55,3.48-12.46l33.67,38.53c-1.6,4.69-2.63,9.04-3.03,12.98Z"/>
    </g>
    <path class="cls-5" d="M545.49,4270.98l13.71-11.98s11.93,4.3,29.34-10.91c17.41-15.21,6.6-31.32,18.09-41.36,11.48-10.03,21.52,6.59,21.52,6.59l16.13-13.69-7.28-8.61,16.67-14.57-7.28-8.33-16.95,14.81s-7.78-10.21-31.48,10.51-8.08,31.87-19.57,41.9-20.68-1.23-20.68-1.23l-14.41,12.67,5.65,6.47-10.74,9.39,7.28,8.33Z"/>
  </g>
  <g>
    <circle class="cls-19" cx="2952.46" cy="1037.8" r="352.22"/>
    <circle class="cls-14" cx="2952.46" cy="1037.8" r="258.64"/>
    <circle class="cls-19" cx="2952.46" cy="1037.8" r="152.06"/>
    <circle class="cls-14" cx="2952.46" cy="1037.8" r="58.49"/>
    <g>
      <path class="cls-4" d="M3348.55,855.16l-336.92,178.03c-8.87,4.69-19.97,1.26-24.66-7.61h0c-4.69-8.87-1.26-19.97,7.61-24.66l336.92-178.03c8.87-4.69,19.97-1.26,24.66,7.61h0c4.69,8.87,1.26,19.97-7.61,24.66Z"/>
      <path class="cls-19" d="M3465.35,836.65c1.04.32,2.11.26,3.07-.11-.15.1-.3.2-.47.28l-133.47,70.52c-.17.09-.35.17-.53.24h-.01c-1.15.81-2.63,1.09-4.06.65l-71.79-22.15c-2.46-.76-3.86-3.39-3.1-5.86l22.15-71.79c.43-1.39,1.47-2.45,2.73-2.96.18-.14.38-.26.58-.37l133.47-70.52c.19-.1.39-.19.6-.26-.88.58-1.57,1.45-1.91,2.53l-22.15,71.79c-.76,2.46.63,5.1,3.1,5.86l71.79,22.15Z"/>
      <path class="cls-4" d="M3042.11,1045.54c.52.4.98.54,1.34.45-.05.04-.1.08-.16.11l-47.05,24.86c-.06.03-.13.06-.19.07h0c-.37.35-.98.28-1.69-.26l-35.65-27.37c-1.22-.94-2.29-2.97-2.38-4.51l-2.53-44.87c-.05-.87.23-1.41.7-1.54.06-.06.12-.11.2-.15l47.06-24.86c.07-.04.14-.06.22-.07-.29.24-.45.71-.41,1.39l2.53,44.87c.09,1.54,1.16,3.57,2.38,4.51l35.65,27.37Z"/>
    </g>
  </g>
  <g>
    <path class="cls-25" d="M1881.2,3947.41l-818.86,148.23c-23.83,4.31-46.86-11.66-51.18-35.49l-102.58-566.69c-4.31-23.83,11.66-46.86,35.49-51.18l818.86-148.22c23.83-4.31,46.86,11.66,51.18,35.49l102.58,566.69c4.31,23.83-11.66,46.86-35.49,51.18Z"/>
    <path class="cls-28" d="M1001.78,3606.67h859.17c3.81,0,6.9,3.09,6.9,6.9v369.41c0,3.81-3.09,6.9-6.9,6.9h-859.17c-3.81,0-6.9-3.09-6.9-6.9v-369.41c0-3.81,3.09-6.9,6.9-6.9Z" transform="translate(-653.65 315.69) rotate(-10.26)"/>
    <g>
      <g>
        <path class="cls-27" d="M1003.91,3431.44c-.37-2.02-1.1-4-1.48-6.08-5.18-28.6,13.81-55.98,42.42-61.16,28.6-5.18,55.98,13.81,61.16,42.41,3.76,20.79-5.25,40.94-21.43,52.38"/>
        <circle class="cls-17" cx="1082.68" cy="3460.87" r="13.89" transform="translate(-763.62 339.81) rotate(-13.24)"/>
      </g>
      <g>
        <path class="cls-27" d="M1154.92,3404.1c-.37-2.02-1.1-4-1.47-6.08-5.18-28.6,13.81-55.98,42.42-61.16,28.6-5.18,55.98,13.81,61.16,42.41,3.76,20.79-5.25,40.94-21.43,52.38"/>
        <circle class="cls-17" cx="1233.69" cy="3433.53" r="13.89" transform="translate(-2290.83 2490.71) rotate(-55.26)"/>
      </g>
      <g>
        <path class="cls-27" d="M1305.93,3376.77c-.37-2.02-1.1-4-1.47-6.08-5.18-28.6,13.81-55.98,42.42-61.16,28.6-5.18,55.98,13.81,61.16,42.41,3.76,20.79-5.25,40.94-21.43,52.38"/>
        <circle class="cls-17" cx="1384.7" cy="3406.2" r="13.89" transform="translate(-2203.41 2603.06) rotate(-55.26)"/>
      </g>
      <g>
        <path class="cls-27" d="M1453.08,3350.13c-.37-2.02-1.1-4-1.48-6.08-5.18-28.6,13.81-55.98,42.42-61.16,28.6-5.18,55.98,13.81,61.16,42.41,3.76,20.79-5.25,40.94-21.43,52.38"/>
        <path class="cls-17" d="M1545.52,3377.09c1.37,7.55-3.64,14.77-11.19,16.14-7.55,1.37-14.77-3.64-16.14-11.19s3.64-14.77,11.19-16.14c7.55-1.37,14.77,3.64,16.14,11.19Z"/>
      </g>
      <g>
        <path class="cls-27" d="M1600.24,3323.49c-.37-2.02-1.1-4-1.47-6.08-5.18-28.6,13.81-55.98,42.42-61.16,28.6-5.18,55.98,13.81,61.16,42.41,3.76,20.79-5.25,40.94-21.43,52.38"/>
        <circle class="cls-17" cx="1679.01" cy="3352.92" r="13.89" transform="translate(-2033.03 2821.97) rotate(-55.26)"/>
      </g>
    </g>
    <g>
      <g>
        <rect class="cls-3" x="1017.8" y="3693.05" width="95.23" height="95.23" transform="translate(-649.25 249.59) rotate(-10.26)"/>
        <rect class="cls-3" x="1132.54" y="3672.28" width="95.23" height="95.23" transform="translate(-643.71 269.69) rotate(-10.26)"/>
        <rect class="cls-3" x="1247.29" y="3651.51" width="95.23" height="95.23" transform="translate(-638.17 289.8) rotate(-10.26)"/>
        <rect class="cls-3" x="1362.04" y="3630.74" width="95.23" height="95.23" transform="translate(-632.64 309.91) rotate(-10.26)"/>
        <rect class="cls-3" x="1476.78" y="3609.97" width="95.23" height="95.23" transform="translate(-627.11 330.01) rotate(-10.26)"/>
        <rect class="cls-3" x="1591.53" y="3589.2" width="95.23" height="95.23" transform="translate(-621.57 350.12) rotate(-10.26)"/>
        <rect class="cls-3" x="1706.28" y="3568.43" width="95.23" height="95.23" transform="translate(-616.04 370.22) rotate(-10.26)"/>
      </g>
      <g>
        <rect class="cls-3" x="1037.66" y="3802.81" width="95.23" height="95.23" transform="translate(-668.48 254.88) rotate(-10.26)"/>
        <rect class="cls-3" x="1152.41" y="3782.04" width="95.23" height="95.23" transform="translate(-662.94 274.99) rotate(-10.26)"/>
        <rect class="cls-3" x="1267.16" y="3761.27" width="95.23" height="95.23" transform="translate(-657.41 295.09) rotate(-10.26)"/>
        <rect class="cls-3" x="1381.9" y="3740.5" width="95.23" height="95.23" transform="translate(-651.87 315.2) rotate(-10.26)"/>
        <rect class="cls-3" x="1496.65" y="3719.73" width="95.23" height="95.23" transform="translate(-646.34 335.3) rotate(-10.26)"/>
        <rect class="cls-3" x="1611.4" y="3698.96" width="95.23" height="95.23" transform="translate(-640.81 355.41) rotate(-10.26)"/>
        <rect class="cls-3" x="1726.14" y="3678.19" width="95.23" height="95.23" transform="translate(-635.27 375.52) rotate(-10.26)"/>
      </g>
      <g>
        <rect class="cls-3" x="1057.53" y="3912.57" width="95.23" height="95.23" transform="translate(-687.71 260.17) rotate(-10.26)"/>
        <rect class="cls-3" x="1172.28" y="3891.8" width="95.23" height="95.23" transform="translate(-682.18 280.28) rotate(-10.26)"/>
        <rect class="cls-3" x="1287.03" y="3871.03" width="95.23" height="95.23" transform="translate(-676.64 300.39) rotate(-10.26)"/>
        <rect class="cls-3" x="1401.77" y="3850.26" width="95.23" height="95.23" transform="translate(-671.1 320.49) rotate(-10.26)"/>
        <rect class="cls-3" x="1516.52" y="3829.49" width="95.23" height="95.23" transform="translate(-665.57 340.6) rotate(-10.26)"/>
        <rect class="cls-3" x="1631.27" y="3808.72" width="95.23" height="95.23" transform="translate(-660.04 360.7) rotate(-10.26)"/>
        <rect class="cls-3" x="1746.01" y="3787.95" width="95.23" height="95.23" transform="translate(-654.5 380.81) rotate(-10.26)"/>
      </g>
    </g>
    <text class="cls-22" transform="translate(1052.97 3632.22) rotate(-10.26)"><tspan x="0" y="0">PLANNING</tspan></text>
    <g>
      <path class="cls-10" d="M1038.96,3731.23l-8.21,11.85c-1.17,1.69-.75,4.01.94,5.18l29.61,20.54c1.69,1.17,4.01.75,5.18-.94l30.9-44.55c1.17-1.69.75-4.01-.94-5.18l-11.96-8.29c-1.69-1.17-4.01-.75-5.18.94l-20.36,29.37-14.85-9.88c-1.69-1.12-3.97-.69-5.13.98Z"/>
      <path class="cls-10" d="M1153.7,3710.46l-8.21,11.85c-1.17,1.69-.75,4.01.94,5.18l29.61,20.54c1.69,1.17,4.01.75,5.18-.94l30.9-44.55c1.17-1.69.75-4.01-.94-5.18l-11.96-8.29c-1.69-1.17-4.01-.75-5.18.94l-20.36,29.37-14.85-9.88c-1.69-1.12-3.97-.69-5.13.98Z"/>
      <path class="cls-10" d="M1268.45,3689.69l-8.21,11.85c-1.17,1.69-.75,4.01.94,5.18l29.61,20.54c1.69,1.17,4.01.75,5.18-.94l30.9-44.55c1.17-1.69.75-4.01-.94-5.18l-11.96-8.29c-1.69-1.17-4.01-.75-5.18.94l-20.36,29.36-14.85-9.88c-1.69-1.12-3.97-.69-5.13.98Z"/>
      <path class="cls-10" d="M1383.2,3668.92l-8.21,11.85c-1.17,1.69-.75,4.01.94,5.18l29.61,20.54c1.69,1.17,4.01.75,5.18-.94l30.9-44.55c1.17-1.69.75-4.01-.94-5.18l-11.96-8.29c-1.69-1.17-4.01-.75-5.18.94l-20.36,29.37-14.85-9.88c-1.69-1.12-3.97-.69-5.13.98Z"/>
      <path class="cls-10" d="M1497.94,3648.15l-8.21,11.85c-1.17,1.69-.75,4.01.94,5.18l29.61,20.54c1.69,1.17,4.01.75,5.18-.94l30.9-44.55c1.17-1.69.75-4.01-.94-5.18l-11.96-8.29c-1.69-1.17-4.01-.75-5.18.94l-20.36,29.37-14.85-9.88c-1.69-1.12-3.97-.69-5.13.98Z"/>
      <path class="cls-10" d="M1612.69,3627.38l-8.22,11.85c-1.17,1.69-.75,4.01.94,5.18l29.61,20.54c1.69,1.17,4.01.75,5.18-.94l30.9-44.55c1.17-1.69.75-4.01-.94-5.18l-11.96-8.29c-1.69-1.17-4.01-.75-5.18.94l-20.36,29.36-14.85-9.88c-1.69-1.12-3.97-.69-5.13.98Z"/>
      <path class="cls-10" d="M1727.44,3606.61l-8.21,11.85c-1.17,1.69-.75,4.01.94,5.18l29.61,20.54c1.69,1.17,4.01.75,5.18-.94l30.9-44.55c1.17-1.69.75-4.01-.94-5.18l-11.96-8.29c-1.69-1.17-4.01-.75-5.18.94l-20.36,29.37-14.85-9.88c-1.69-1.12-3.97-.69-5.13.98Z"/>
    </g>
    <g>
      <path class="cls-10" d="M1058.82,3840.99l-8.21,11.85c-1.17,1.69-.75,4.01.94,5.18l29.61,20.54c1.69,1.17,4.01.75,5.18-.94l30.9-44.55c1.17-1.69.75-4.01-.94-5.18l-11.96-8.29c-1.69-1.17-4.01-.75-5.18.94l-20.36,29.36-14.85-9.88c-1.69-1.12-3.97-.69-5.13.98Z"/>
      <path class="cls-10" d="M1173.57,3820.22l-8.21,11.85c-1.17,1.69-.75,4.01.94,5.18l29.61,20.54c1.69,1.17,4.01.75,5.18-.94l30.9-44.55c1.17-1.69.75-4.01-.94-5.18l-11.96-8.29c-1.69-1.17-4.01-.75-5.18.94l-20.36,29.36-14.85-9.88c-1.69-1.12-3.97-.69-5.13.98Z"/>
      <path class="cls-10" d="M1288.32,3799.45l-8.21,11.85c-1.17,1.69-.75,4.01.94,5.18l29.61,20.54c1.69,1.17,4.01.75,5.18-.94l30.9-44.55c1.17-1.69.75-4.01-.94-5.18l-11.96-8.29c-1.69-1.17-4.01-.75-5.18.94l-20.36,29.37-14.85-9.88c-1.69-1.12-3.97-.69-5.13.98Z"/>
      <path class="cls-10" d="M1403.07,3778.68l-8.21,11.85c-1.17,1.69-.75,4.01.94,5.18l29.61,20.54c1.69,1.17,4.01.75,5.18-.94l30.9-44.55c1.17-1.69.75-4.01-.94-5.18l-11.96-8.29c-1.69-1.17-4.01-.75-5.18.94l-20.36,29.37-14.85-9.88c-1.69-1.12-3.97-.69-5.13.98Z"/>
      <path class="cls-10" d="M1517.81,3757.91l-8.21,11.85c-1.17,1.69-.75,4.01.94,5.18l29.61,20.54c1.69,1.17,4.01.75,5.18-.94l30.9-44.55c1.17-1.69.75-4.01-.94-5.18l-11.96-8.29c-1.69-1.17-4.01-.75-5.18.94l-20.36,29.36-14.85-9.88c-1.69-1.12-3.97-.69-5.13.98Z"/>
      <path class="cls-10" d="M1632.56,3737.14l-8.21,11.85c-1.17,1.69-.75,4.01.94,5.18l29.61,20.54c1.69,1.17,4.01.75,5.18-.94l30.9-44.55c1.17-1.69.75-4.01-.94-5.18l-11.96-8.29c-1.69-1.17-4.01-.75-5.18.94l-20.36,29.37-14.85-9.88c-1.69-1.12-3.97-.69-5.13.98Z"/>
      <path class="cls-10" d="M1747.31,3716.37l-8.21,11.85c-1.17,1.69-.75,4.01.94,5.18l29.61,20.54c1.69,1.17,4.01.75,5.18-.94l30.9-44.55c1.17-1.69.75-4.01-.94-5.18l-11.96-8.29c-1.69-1.17-4.01-.75-5.18.94l-20.36,29.37-14.85-9.88c-1.69-1.12-3.97-.69-5.13.98Z"/>
    </g>
  </g>
  <g>
    <g>
      <circle class="cls-16" cx="446.88" cy="91.93" r="89.57" transform="translate(65.89 342.91) rotate(-45)"/>
      <circle class="cls-2" cx="446.88" cy="91.93" r="54.23" transform="translate(117.3 407.41) rotate(-55.37)"/>
    </g>
    <path class="cls-16" d="M1335.91,1251.12l-851.95,301.19c-33.53,11.85-70.33-5.72-82.18-39.25L3.7,387.07c-11.85-33.53,5.72-70.33,39.25-82.18L894.9,3.7c33.53-11.85,70.33,5.72,82.18,39.25l398.07,1125.99c11.85,33.53-5.72,70.33-39.25,82.18Z"/>
    <path class="cls-10" d="M1293.33,1209.88l-802.18,283.59c-13.82,4.89-28.98-2.36-33.87-16.18L67.53,374.85c-4.89-13.82,2.36-28.98,16.18-33.87L885.89,57.39c13.82-4.89,28.98,2.36,33.87,16.18l389.75,1102.44c4.89,13.82-2.36,28.98-16.18,33.87Z"/>
    <g>
      <rect class="cls-12" x="319.01" y="596.35" width="206.94" height="193.58" rx="8.98" ry="8.98" transform="translate(-206.87 180.45) rotate(-19.47)"/>
      <path class="cls-16" d="M930.19,438.31l-354.72,125.41c-5.06,1.79-10.66-.89-12.45-5.95h0c-1.79-5.06.89-10.66,5.95-12.45l354.72-125.41c5.06-1.79,10.66.89,12.45,5.95h0c1.79,5.06-.89,10.66-5.95,12.45Z"/>
      <rect class="cls-16" x="572.13" y="548.1" width="299.74" height="19.51" rx="6.23" ry="6.23" transform="translate(-144.65 272.56) rotate(-19.47)"/>
      <g>
        <ellipse class="cls-1" cx="422.57" cy="690.62" rx="65" ry="61.08" transform="translate(-206.03 180.34) rotate(-19.47)"/>
        <circle class="cls-5" cx="417.12" cy="692.55" r="61.08" transform="translate(-320.7 1023.05) rotate(-83.07)"/>
        <circle class="cls-20" cx="417.12" cy="692.55" r="45.85" transform="translate(-315.07 1035.34) rotate(-84.03)"/>
        <text class="cls-7" transform="translate(403.39 726.43) rotate(-19.47)"><tspan x="0" y="0">$</tspan></text>
      </g>
    </g>
    <g>
      <path class="cls-11" d="M710.58,83.76l23.16,65.51-473.94,167.55-23.16-65.51c-12.5-35.36,6.03-74.15,41.39-86.65l345.9-122.29c28.29-10,58.77-.14,76.23,22.31,4.37,5.61,7.92,12.01,10.42,19.08Z"/>
      <path class="cls-30" d="M710.58,83.76l23.16,65.51-441.93,156.23-10.08-28.53c-12.5-35.36,6.03-74.15,41.39-86.65l345.9-122.29c10.33-3.65,20.96-4.65,31.14-3.36,4.37,5.61,7.92,12.01,10.42,19.08Z"/>
    </g>
    <g>
      <path class="cls-9" d="M340.85,452.3c7.73,21.87-3.12,39.94-28.86,49.04l-46.87,16.57-39.19-110.85,46.87-16.57c22.91-8.1,40.72-.84,47.92,19.55,2.42,6.84,2.3,14.08-1.31,21.39,12.19,3.22,18.02,11.2,21.44,20.88ZM263.72,440.56l25.44-9c7.14-2.52,10.18-8.62,7.81-15.32-2.37-6.7-8.56-9.53-15.7-7l-25.44,9,7.89,22.32ZM317.78,460.45c-3.1-8.78-11.26-12.43-20.48-9.16l-26.49,9.36,10.26,29.01,26.49-9.36c9.23-3.26,13.27-11.22,10.22-19.85Z"/>
      <path class="cls-9" d="M418.02,339.14l24.3,68.74c8.78,24.85-2.64,50.31-29.86,59.94-27.23,9.63-52.12-3-60.9-27.85l-24.3-68.74,23.06-8.15,24.3,68.74c4.89,13.84,17.08,19.91,30.47,15.17,13.39-4.73,19.06-17.12,14.17-30.95l-24.3-68.74,23.06-8.15Z"/>
      <path class="cls-9" d="M435.88,332.83l36.16-12.78c36.01-12.73,67.28,2.33,78.64,34.47,11.36,32.14-3.59,63.71-39.45,76.38l-36.16,12.78-39.19-110.85ZM504.72,410.6c21.57-7.63,30.52-26.36,22.89-47.93-7.63-21.57-26.3-30.37-47.88-22.74l-13.69,4.84,24.99,70.68,13.69-4.84Z"/>
      <path class="cls-9" d="M561.09,350.83c-11.68-33.03,3.61-65.55,35.75-76.92,23.96-8.47,46.34-1.49,57.93,12.83l-16.91,17.03c-7.66-9.35-20.26-13.76-33.66-9.03-19.64,6.94-27.68,26.36-20.05,47.93,7.68,21.72,26.13,31.77,47.26,24.3,15.47-5.47,21.78-15.57,22.24-23.26l-3.42-9.67-26.78,9.47-7.1-20.09,49.1-17.36,11.05,31.25c1.95,19.73-9.9,40.66-37.72,50.5-33.33,11.78-66.06-4.1-77.69-36.98Z"/>
      <path class="cls-9" d="M661.75,252.98l74.55-26.35,7.1,20.09-51.48,18.2,8.89,25.15,48.51-17.15,7.1,20.09-48.51,17.15,9,25.44,51.48-18.2,6.95,20.14-74.4,26.3-39.19-110.85Z"/>
      <path class="cls-9" d="M779.71,233.87l-28.12,9.94-7.1-20.09,79.01-27.93,7.1,20.09-27.82,9.84,32.09,90.76-23.06,8.15-32.09-90.76Z"/>
    </g>
    <rect class="cls-30" x="366.36" y="881.09" width="144.02" height="131.14" transform="translate(-290.47 200.25) rotate(-19.47)"/>
    <rect class="cls-30" x="728.45" y="753.08" width="144.02" height="131.14" transform="translate(-227.09 313.62) rotate(-19.47)"/>
    <rect class="cls-31" x="430.76" y="1063.23" width="144.02" height="131.14" transform="translate(-347.5 232.13) rotate(-19.47)"/>
    <rect class="cls-23" x="611.8" y="999.23" width="144.02" height="131.14" transform="translate(-315.81 288.81) rotate(-19.47)"/>
    <rect class="cls-30" x="792.84" y="935.23" width="144.02" height="131.14" transform="translate(-284.12 345.5) rotate(-19.47)"/>
    <rect class="cls-13" x="973.88" y="871.22" width="144.02" height="131.14" transform="translate(-252.44 402.18) rotate(-19.47)"/>
  </g>
  <g>
    <g>
      <path class="cls-21" d="M531.8,3112.31h144.23c1.03,0,1.87.84,1.87,1.87v30.02c0,4.84-3.93,8.77-8.77,8.77h-130.42c-4.84,0-8.77-3.93-8.77-8.77v-30.02c0-1.03.84-1.87,1.87-1.87Z" transform="translate(-1396.24 647.18) rotate(-27.91)"/>
      <path class="cls-21" d="M709.74,3030.76l-249.57,132.21c-3.78,2-8.52.55-10.52-3.23l-20.55-38.79c-2-3.78-.55-8.51,3.23-10.52l249.57-132.21c3.78-2,8.51-.55,10.52,3.23l20.55,38.79c2,3.78.55,8.51-3.23,10.52Z"/>
      <path class="cls-21" d="M668.47,2952.85l-249.57,132.21c-3.78,2-8.51.55-10.52-3.23l-20.55-38.79c-2-3.78-.55-8.51,3.23-10.52l249.57-132.21c3.78-2,8.51-.55,10.52,3.23l20.55,38.79c2,3.78.55,8.51-3.23,10.52Z"/>
      <path class="cls-21" d="M574.66,2538.22c37.02,69.88,37.93,149.28,9.3,216.82-13.61,32.11-11.7,68.69,4.63,99.51l13.55,25.58c1.84,3.47.5,7.81-2.97,9.65l-193.53,102.53c-3.47,1.84-7.81.5-9.65-2.97l-13.55-25.58c-16.32-30.81-45.52-52.95-79.73-59.72-71.97-14.25-137.14-59.6-174.16-129.48-65.26-123.19-18.31-275.96,104.89-341.23,123.19-65.26,275.97-18.3,341.23,104.89Z"/>
    </g>
    <ellipse class="cls-29" cx="206.16" cy="2632.45" rx="114.07" ry="49.86" transform="translate(-2432.05 2742.63) rotate(-87.91)"/>
  </g>
</svg>