<?xml version="1.0" encoding="UTF-8"?>
<svg id="Layer_1" data-name="Layer 1" xmlns="http://www.w3.org/2000/svg" viewBox="0 0 543.03 602.21">
  <defs>
    <style>
      .cls-1 {
        fill: #f0dad6;
      }

      .cls-2 {
        fill: #82c483;
      }

      .cls-3 {
        fill: #2e2e4f;
      }

      .cls-4, .cls-5 {
        fill: #e74118;
      }

      .cls-6 {
        fill: #bfd5f7;
      }

      .cls-7 {
        fill: #fff;
      }

      .cls-8 {
        fill: #dee5e8;
      }

      .cls-9 {
        fill: #e89684;
      }

      .cls-10 {
        fill: #65a865;
      }

      .cls-10, .cls-5 {
        fill-rule: evenodd;
      }

      .cls-11 {
        fill: #7989a3;
      }

      .cls-12 {
        fill: #90a9d1;
      }

      .cls-13 {
        fill: #4cd037;
      }

      .cls-14 {
        fill: #445d7b;
      }

      .cls-15 {
        fill: #fbb03b;
      }

      .cls-16 {
        fill: #f0beb4;
      }
    </style>
  </defs>
  <g>
    <g>
      <g>
        <polygon class="cls-16" points="259.07 484.92 143.04 484.92 143.38 385.65 259.4 385.65 259.07 484.92"/>
        <polygon class="cls-9" points="259.13 484.92 165.5 484.92 165.77 385.65 259.4 385.65 259.13 484.92"/>
        <rect class="cls-7" x="136.82" y="465.02" width="128.52" height="134.98"/>
        <rect class="cls-8" x="165.59" y="465.02" width="99.76" height="134.98"/>
        <path class="cls-16" d="M182.04,321.4v-79.46c0-13.18-10.68-23.86-23.86-23.86h0c-7.71,0-13.51,7.02-12.06,14.59l4.09,21.37-12.56,66.06,5.68,74.06c1.45,35.49,14.02,55.69,67.06,55.69h6.45c40.6,0,73.52-15.86,73.52-56.46v-71.99h-108.32Z"/>
        <path class="cls-16" d="M226.52,290l91.71-59.95c6.7-3.97,15.33-2.14,19.85,4.2h0c4.69,6.58,3.32,15.68-3.09,20.6l-90.1,62.34c-8.12,6.23-19.9,3.59-24.6-5.5h0c-4-7.74-1.27-17.26,6.23-21.69Z"/>
        <path class="cls-9" d="M334.99,243.48l-90.1,62.34c-8.12,6.23-19.9,3.59-24.6-5.5h0c-.32-.61-.59-1.23-.82-1.86-1.54,4.19-1.38,8.98.82,13.23h0c4.7,9.09,16.48,11.72,24.6,5.5l90.1-62.34c5.48-4.2,7.27-11.45,4.75-17.58-.97,2.38-2.57,4.54-4.75,6.21Z"/>
        <path class="cls-9" d="M182.04,241.93c0-9.86-5.98-18.31-14.5-21.95v184.82c0,12.6,10.25,22.85,22.85,22.85h88.66c7.16-8.57,11.31-19.86,11.31-34.27v-71.99h-108.32v-79.46Z"/>
      </g>
      <g>
        <g>
          <rect class="cls-3" x="114.03" y="235.27" width="245.9" height="127.5" rx="17.17" ry="17.17" transform="translate(536 62.05) rotate(90)"/>
          <rect class="cls-7" x="128.24" y="232.43" width="217.47" height="121.81" rx="14.33" ry="14.33" transform="translate(530.31 56.36) rotate(90)"/>
          <path class="cls-14" d="M250.68,416.04h-27.41c-2.6,0-4.71-2.11-4.71-4.71h0c0-2.6,2.11-4.71,4.71-4.71h27.41c2.6,0,4.71,2.11,4.71,4.71h0c0,2.6-2.11,4.71-4.71,4.71Z"/>
          <path class="cls-14" d="M239.05,180.27c0,1.15-.93,2.08-2.08,2.08s-2.08-.93-2.08-2.08.93-2.08,2.08-2.08,2.08.93,2.08,2.08Z"/>
        </g>
        <path class="cls-5" d="M283.55,184.6h-93.16c-7.9,0-14.33,6.43-14.33,14.33v24.91h121.81v-24.91c0-7.9-6.43-14.33-14.33-14.33Z"/>
        <rect class="cls-6" x="176.07" y="223.84" width="121.81" height="40.02"/>
        <path class="cls-12" d="M243.29,230.32h35.95c5.71,0,10.35,4.64,10.35,10.35v23.18h-56.65v-23.18c0-5.71,4.64-10.35,10.35-10.35Z"/>
        <path class="cls-6" d="M244.06,243.22v4.11h34.4v-4.11h-34.4ZM250.76,255.55h21.01v-4.11h-21.01v4.11Z"/>
        <path class="cls-7" d="M196.75,230.32h35.95c5.71,0,10.35,4.64,10.35,10.35v23.18h-56.65v-23.18c0-5.71,4.64-10.35,10.35-10.35Z"/>
        <path class="cls-11" d="M197.52,243.22v4.11h34.4v-4.11h-34.4ZM204.22,255.55h21.01v-4.11h-21.01v4.11Z"/>
        <path class="cls-7" d="M202.52,206.2c3.72,0,6.74-5.32,6.74-9.04s-3.02-6.74-6.74-6.74-6.74,3.02-6.74,6.74,3.02,9.04,6.74,9.04ZM202.52,209.27c-3.11,0-5.98.97-8.35,2.63-1.8,1.26-1.48,4,.58,4.78,2.25.85,4.91,1.34,7.77,1.34s5.52-.49,7.77-1.34c2.06-.78,2.38-3.52.58-4.78-2.37-1.65-5.24-2.63-8.35-2.63Z"/>
        <g>
          <path class="cls-7" d="M274.16,202.2h-49.85c-1.91,0-3.45-1.55-3.45-3.45s1.55-3.45,3.45-3.45h49.85c1.91,0,3.45,1.55,3.45,3.45s-1.55,3.45-3.45,3.45Z"/>
          <path class="cls-7" d="M258.81,213.14h-34.51c-1.91,0-3.45-1.55-3.45-3.45s1.55-3.45,3.45-3.45h34.51c1.91,0,3.45,1.55,3.45,3.45s-1.55,3.45-3.45,3.45Z"/>
        </g>
        <g>
          <g>
            <rect class="cls-4" x="189.62" y="319.71" width="28.17" height="28.17" rx="5.83" ry="5.83"/>
            <path class="cls-6" d="M222.91,319.71v3.13h61.41v-3.13h-61.41ZM222.91,329.09h61.41v-3.13h-61.41v3.13ZM222.91,335.35h61.41v-3.13h-61.41v3.13ZM222.91,341.62h61.41v-3.13h-61.41v3.13ZM222.91,347.88h47.13v-3.13h-47.13v3.13Z"/>
            <path class="cls-7" d="M207.55,326.73c-1.54,0-2.91.68-3.85,1.76-.94-1.08-2.31-1.76-3.85-1.76-2.82,0-5.1,2.28-5.1,5.1,0,1.95,4.29,6.41,6.93,8.97,1.13,1.09,2.91,1.09,4.04,0,2.64-2.56,6.93-7.02,6.93-8.97,0-2.82-2.28-5.1-5.1-5.1Z"/>
          </g>
          <g>
            <rect class="cls-13" x="189.62" y="277.92" width="28.17" height="28.17" rx="5.83" ry="5.83"/>
            <path class="cls-6" d="M222.91,277.92v3.13h61.41v-3.13h-61.41ZM222.91,287.31h61.41v-3.13h-61.41v3.13ZM222.91,293.57h61.41v-3.13h-61.41v3.13ZM222.91,299.83h61.41v-3.13h-61.41v3.13ZM222.91,306.09h47.13v-3.13h-47.13v3.13Z"/>
            <polygon class="cls-7" points="213.91 288.49 207.22 288.49 207.22 281.8 200.19 281.8 200.19 288.49 193.5 288.49 193.5 295.52 200.19 295.52 200.19 302.21 207.22 302.21 207.22 295.52 213.91 295.52 213.91 288.49"/>
          </g>
          <g>
            <rect class="cls-15" x="189.62" y="361.46" width="28.17" height="28.17" rx="5.83" ry="5.83"/>
            <path class="cls-6" d="M222.91,361.46v3.13h61.41v-3.13h-61.41ZM222.91,370.85h61.41v-3.13h-61.41v3.13ZM222.91,377.11h61.41v-3.13h-61.41v3.13ZM222.91,383.37h61.41v-3.13h-61.41v3.13ZM222.91,389.63h47.13v-3.13h-47.13v3.13Z"/>
            <path class="cls-7" d="M213.71,373.88h-2.59l-2.81-4.19s0,0,0,0h0c-.06-.1-.15-.16-.23-.23-.06-.06-.1-.13-.18-.18,0,0,0,0,0,0-.16-.11-.34-.18-.53-.22-.07-.01-.14,0-.21,0-.12,0-.23-.02-.35,0-.19.04-.36.11-.53.22,0,0,0,0,0,0-.08.05-.13.13-.19.2-.07.07-.15.12-.21.21h0s0,.01,0,.01l-5.55,8.3-2.03-3.04c-.27-.4-.73-.65-1.21-.65h-3.37c-.81,0-1.46.65-1.46,1.46s.65,1.46,1.46,1.46h2.59l2.81,4.2c.27.4.73.65,1.21.65s.94-.24,1.21-.65l5.56-8.31,2.03,3.04c.27.41.73.65,1.21.65h3.37c.81,0,1.46-.65,1.46-1.46s-.65-1.46-1.46-1.46Z"/>
          </g>
        </g>
      </g>
      <g>
        <g>
          <path class="cls-16" d="M318.45,377.34l-20.82,12.32c-6.7,3.97-15.33,2.14-19.85-4.2h0c-4.69-6.58-3.32-15.68,3.09-20.6l19.2-14.72c8.12-6.23,19.9-3.59,24.6,5.5h0c4,7.74,1.27,17.26-6.23,21.69Z"/>
          <path class="cls-9" d="M318.45,365.97l-20.82,12.32c-6.7,3.97-15.33,2.14-19.85-4.2h0c-.68-.96-1.23-1.97-1.66-3.02-1.88,4.61-1.43,10.05,1.66,14.38h0c4.52,6.34,13.14,8.17,19.85,4.2l20.82-12.32c6.91-4.09,9.76-12.48,7.05-19.83-1.26,3.43-3.67,6.46-7.05,8.46Z"/>
          <path class="cls-1" d="M283.5,368.37c-4.51,3.46-5.46,9.79-2.16,14.42,1.97,2.76,5.16,4.41,8.56,4.41,1.87,0,3.72-.51,5.34-1.46l4.14-2.45-12.3-17.64-3.56,2.73Z"/>
        </g>
        <g>
          <path class="cls-16" d="M318.45,347.72l-20.82,12.32c-6.7,3.97-15.33,2.14-19.85-4.2h0c-4.69-6.58-3.32-15.68,3.09-20.6l19.2-14.72c8.12-6.23,19.9-3.59,24.6,5.5h0c4,7.74,1.27,17.26-6.23,21.69Z"/>
          <path class="cls-9" d="M318.45,336.36l-20.82,12.32c-6.7,3.97-15.33,2.14-19.85-4.2h0c-.68-.96-1.23-1.97-1.66-3.02-1.88,4.61-1.43,10.05,1.66,14.38h0c4.52,6.34,13.14,8.17,19.85,4.2l20.82-12.32c6.91-4.09,9.76-12.48,7.05-19.83-1.26,3.43-3.67,6.46-7.05,8.46Z"/>
          <path class="cls-1" d="M283.5,338.76c-4.51,3.46-5.46,9.79-2.16,14.42,1.97,2.76,5.16,4.41,8.56,4.41,1.87,0,3.72-.51,5.34-1.46l4.14-2.45-12.3-17.64-3.56,2.73Z"/>
        </g>
        <g>
          <path class="cls-16" d="M318.45,318.11l-20.82,12.32c-6.7,3.97-15.33,2.14-19.85-4.2h0c-4.69-6.58-3.32-15.68,3.09-20.6l19.2-14.72c8.12-6.23,19.9-3.59,24.6,5.5h0c4,7.74,1.27,17.26-6.23,21.69Z"/>
          <path class="cls-9" d="M318.45,306.74l-20.82,12.32c-6.7,3.97-15.33,2.14-19.85-4.2h0c-.68-.96-1.23-1.97-1.66-3.02-1.88,4.61-1.43,10.05,1.66,14.38h0c4.52,6.34,13.14,8.17,19.85,4.2l20.82-12.32c6.91-4.09,9.76-12.48,7.05-19.83-1.26,3.43-3.67,6.46-7.05,8.46Z"/>
          <path class="cls-1" d="M283.5,309.14c-4.51,3.46-5.46,9.79-2.16,14.42,1.97,2.76,5.16,4.41,8.56,4.41,1.87,0,3.72-.51,5.34-1.46l4.14-2.45-12.3-17.64-3.56,2.73Z"/>
        </g>
      </g>
      <g>
        <polygon class="cls-16" points="403.94 585.31 370.46 491.86 275.74 526.11 302.21 600 363.31 600 403.94 585.31"/>
        <polygon class="cls-9" points="382.71 592.98 349.23 499.53 275.74 526.11 302.21 600 363.31 600 382.71 592.98"/>
        <polygon class="cls-7" points="401.53 565.02 304.8 600 414.15 600 401.53 565.02"/>
        <polygon class="cls-8" points="304.8 600 386.09 600 376.13 574.21 304.8 600"/>
        <path class="cls-16" d="M367.43,435.18l-10.68-21.71c-3.44-6.99-11.66-10.18-18.91-7.34-5.75,2.25-9.34,7.68-9.52,13.51l-1.69-3.44c-3.44-6.99-11.66-10.18-18.91-7.34h0c-5.75,2.25-9.34,7.68-9.52,13.51l-1.69-3.44c-3.44-6.99-11.66-10.18-18.91-7.34h0c-5.49,2.15-9,7.18-9.47,12.7l-31.15-82.17c-3.08-7.15-11.13-10.75-18.52-8.29-7.66,2.56-11.92,10.72-9.63,18.47l36.13,103.44c.1.32.2.64.31.95h0s11.65,33.59,11.65,33.59l-30.67-23.31c-9.78-8.83-24.87-8.07-33.7,1.72-5.17,5.72-3.85,14.73,2.74,18.73l18.6,11.29,40.61,53.6c18.48,24.66,47.09,36.54,84.13,23.15,46.66-16.87,60.12-41.04,48.84-81.55-4.89-17.57-19.79-58.21-20.05-58.74Z"/>
        <path class="cls-9" d="M213.93,336.31c-4.68,3.69-6.88,9.97-5.09,16l36.13,103.44c.1.32.2.64.31.95h0s11.65,33.59,11.65,33.59l15.09,12.15-58.09-166.13Z"/>
        <path class="cls-9" d="M333.33,577.24c-25.16,5.4-53.2-7.94-65.9-25.84l-50.39-62.89-27.47-13.69h0c-.83,4.78,1.21,9.87,5.73,12.61l18.6,11.29,40.61,53.6c11.07,14.77,25.78,24.94,43.76,27.85l10.11,6.24,24.96-9.18Z"/>
        <path class="cls-9" d="M328.32,419.64l3.47,9.6,9.51,3.25-8.39-23.21c-2.81,2.71-4.47,6.44-4.59,10.35ZM298.2,422.38l3.47,9.6,9.51,3.25-8.39-23.21c-2.81,2.71-4.47,6.44-4.59,10.35ZM268.13,424.3l3.47,9.6,9.51,3.25-8.19-22.64c-2.77,2.55-4.48,6.05-4.79,9.78Z"/>
        <path class="cls-1" d="M206.53,473.35c-2.96-1.46-11.82-.84-13.89,3.96-1.22,2.82.76,5.89,3.62,7.75l14.11,7.81,7.56-13.69-11.41-5.83Z"/>
        <path class="cls-1" d="M234.64,344.03c-2.3-5.2-8.24-7.61-13.51-5.49-3.14,1.26-5.5,3.99-6.29,7.28-.44,1.82-.38,3.73.17,5.53l2.62,7.94,20.04-7.82-3.03-7.45Z"/>
      </g>
    </g>
    <circle class="cls-2" cx="239.33" cy="77.23" r="51.12" transform="translate(15.49 191.85) rotate(-45)"/>
    <circle class="cls-2" cx="106.36" cy="132.07" r="51.12"/>
    <circle class="cls-2" cx="51.12" cy="264.88" r="51.12" transform="translate(-218.55 272.2) rotate(-80.63)"/>
    <circle class="cls-2" cx="426.99" cy="265.44" r="51.12" transform="translate(47.87 595.67) rotate(-72.92)"/>
    <circle class="cls-2" cx="372.14" cy="132.47" r="51.12"/>
    <path class="cls-2" d="M239.33,161.79c-.83,0-1.5-.67-1.5-1.5v-31.95c0-.83.67-1.5,1.5-1.5s1.5.67,1.5,1.5v31.95c0,.83-.67,1.5-1.5,1.5Z"/>
    <path class="cls-2" d="M161.47,190.37c-.15,0-.31-.02-.46-.07-9.59-3.13-26.14-14.5-32.81-22.53-.53-.64-.44-1.58.2-2.11.64-.53,1.58-.44,2.11.2,6.39,7.7,22.25,18.6,31.43,21.59.79.26,1.22,1.1.96,1.89-.21.63-.79,1.04-1.43,1.04Z"/>
    <path class="cls-2" d="M110.17,276.54c-6.33,0-12.43-.52-16.73-1.61-.8-.2-1.29-1.02-1.09-1.82.2-.8,1.02-1.29,1.82-1.09,9.7,2.45,28.94,1.91,38.12-1.09.79-.26,1.63.17,1.89.96.26.79-.17,1.63-.96,1.89-5.51,1.8-14.49,2.75-23.05,2.75Z"/>
    <path class="cls-2" d="M311.81,190.37c-.63,0-1.22-.4-1.43-1.04-.26-.79.17-1.63.96-1.89,9.18-2.99,25.04-13.89,31.43-21.59.53-.64,1.47-.73,2.11-.2.64.53.73,1.47.2,2.11-6.67,8.03-23.22,19.4-32.81,22.53-.15.05-.31.07-.46.07Z"/>
    <path class="cls-2" d="M363.1,276.54c-8.56,0-17.54-.95-23.05-2.75-.79-.26-1.22-1.1-.96-1.89.26-.79,1.1-1.22,1.89-.96,9.18,2.99,28.41,3.54,38.12,1.09.81-.2,1.62.28,1.82,1.09.2.8-.28,1.62-1.09,1.82-4.3,1.09-10.4,1.61-16.73,1.61Z"/>
    <path class="cls-7" d="M445.42,262.34c-5.11,0-9.25,4.14-9.25,9.26,0,3.95,2.47,7.3,5.95,8.64v5.1c0,5.21-4.24,9.45-9.45,9.45s-9.45-4.24-9.45-9.45v-16.6c10.18-2.75,17.3-17.56,17.3-25.64,0-6.71-4.6-8.07-9.05-9.39-.86-.25-1.75-.53-2.68-.84l.02-.09c.35-1.42-.52-2.85-1.93-3.2-1.42-.35-2.85.52-3.2,1.93l-1.32,5.35c-.35,1.42.51,2.85,1.93,3.2.21.05.43.08.64.08,1.19,0,2.27-.81,2.56-2.01l.03-.1c.87.28,1.7.53,2.45.75,4.6,1.36,5.26,1.73,5.26,4.32,0,6.67-7.25,20.8-15.32,20.8s-15.32-14.13-15.32-20.8c0-2.59.66-2.96,5.27-4.32.75-.22,1.58-.47,2.44-.75l.03.1c.3,1.2,1.38,2.01,2.56,2.01.21,0,.42-.02.64-.08,1.42-.35,2.28-1.78,1.93-3.2l-1.32-5.35c-.35-1.42-1.78-2.28-3.2-1.93-1.42.35-2.28,1.78-1.93,3.2l.02.09c-.92.31-1.81.58-2.67.84-4.45,1.32-9.06,2.68-9.06,9.39,0,8.08,7.13,22.9,17.3,25.64v16.6c0,8.86,7.21,16.06,16.06,16.06s16.06-7.21,16.06-16.06v-5.1c3.48-1.33,5.95-4.69,5.95-8.64,0-5.11-4.15-9.26-9.26-9.26ZM445.42,275.56c-2.19,0-3.97-1.78-3.97-3.97s1.78-3.97,3.97-3.97,3.97,1.78,3.97,3.97-1.78,3.97-3.97,3.97Z"/>
    <path class="cls-7" d="M235.47,75.58h-8.14v7.74h8.14v8.14h7.73v-8.14h8.14v-7.74h-8.14v-8.14h-7.73v8.14ZM206.64,61.19v36.5c0,1.96,1.59,3.54,3.54,3.54h58.3c1.96,0,3.54-1.59,3.54-3.54v-36.5c0-1.96-1.59-3.54-3.54-3.54h-10.83v-5.52c0-3.82-3.11-6.92-6.92-6.92h-22.8c-3.82,0-6.92,3.11-6.92,6.92v5.52h-10.83c-1.96,0-3.54,1.59-3.54,3.54ZM252.97,57.65h-27.27v-5.52c0-1.23,1-2.24,2.24-2.24h22.8c1.23,0,2.24,1,2.24,2.24v5.52ZM223.56,79.45c0-8.71,7.06-15.78,15.78-15.78s15.78,7.06,15.78,15.78-7.06,15.78-15.78,15.78-15.78-7.06-15.78-15.78Z"/>
    <path class="cls-7" d="M34.35,258.63v31.83c0,2.12,1.72,3.83,3.83,3.83h25.87c2.12,0,3.83-1.72,3.83-3.83v-31.83c0-5.39-4.36-9.76-9.74-9.78v-2.61h2.92c1.56,0,2.83-1.27,2.83-2.83v-5.11c0-1.56-1.27-2.83-2.83-2.83h-19.89c-1.56,0-2.83,1.27-2.83,2.83v5.11c0,1.56,1.27,2.83,2.83,2.83h2.92v2.61c-5.38.02-9.74,4.39-9.74,9.78ZM55.09,267.97c0,2.19-1.78,3.97-3.97,3.97s-3.97-1.78-3.97-3.97,1.78-3.97,3.97-3.97,3.97,1.78,3.97,3.97ZM57.26,285.44c0-2.19,1.78-3.97,3.97-3.97s3.97,1.78,3.97,3.97-1.78,3.97-3.97,3.97-3.97-1.78-3.97-3.97ZM56.18,280.78c-2.19,0-3.97-1.78-3.97-3.97s1.78-3.97,3.97-3.97,3.97,1.78,3.97,3.97-1.78,3.97-3.97,3.97ZM47.14,285.44c0-2.19,1.78-3.97,3.97-3.97s3.97,1.78,3.97,3.97-1.78,3.97-3.97,3.97-3.97-1.78-3.97-3.97ZM46.06,280.78c-2.19,0-3.97-1.78-3.97-3.97s1.78-3.97,3.97-3.97,3.97,1.78,3.97,3.97-1.78,3.97-3.97,3.97ZM37.03,285.44c0-2.19,1.78-3.97,3.97-3.97s3.97,1.78,3.97,3.97-1.78,3.97-3.97,3.97-3.97-1.78-3.97-3.97Z"/>
    <path class="cls-7" d="M349.09,134.81c0,8.81,6.5,23.71,14.51,23.71.93,0,1.84-.2,2.73-.57,3.73-1.56,7.9-1.56,11.64,0,.88.37,1.79.57,2.73.57,8.02,0,14.51-14.9,14.51-23.71s-6.5-15.96-14.51-15.96c-3.19,0-6.15,1.14-8.54,3.06,0-.03,0-.05,0-.08,0,0,0,.01,0,.02,1.51-7.05,3.83-13.64,7.7-19.35h-4.87c-2,4.58-2.73,10.08-2.83,16.03-.36-3.98-2.06-7.87-5.11-10.92-3.91-3.91-9.19-5.61-14.29-5.11-.5,5.1,1.2,10.38,5.11,14.29.9.9,1.88,1.68,2.92,2.35-6.66,1.45-11.68,7.91-11.68,15.65ZM370.28,120.64c-.21-.12-.42-.22-.63-.33l-12.23-12.23c-.25-.25-.25-.65,0-.89.25-.25.65-.25.89,0l12.38,12.38c.25.25.25.65,0,.89-.11.11-.26.17-.41.18Z"/>
    <path class="cls-7" d="M114.63,147.14c-.51,1.1-1.62,1.81-2.83,1.81s-2.32-.71-2.83-1.81l-5.44-11.76-2.61-5.64-2.61,5.64s-.04.05-.05.08c-.1.21-.23.4-.38.58-.04.05-.08.1-.12.15-.18.19-.37.36-.59.5-.04.03-.08.04-.12.07-.19.11-.39.2-.6.27-.06.02-.12.04-.19.06-.25.06-.5.11-.77.11,0,0,0,0,0,0,0,0,0,0,0,0h-13.81l1.64,2.49c7.99,9.97,19.63,20.38,23.05,20.38,3.42,0,15.06-10.41,23.05-20.38l1.64-2.49h-11.82l-4.6,9.95ZM120.3,108.08c-5.78,0-10.85,2.88-13.94,7.28-3.07-4.4-8.15-7.28-13.92-7.28-9.39,0-17.02,7.62-17.02,17.02,0,1.26.47,2.81,1.28,4.55l1.37,2.08c.55-.48,1.25-.78,2.04-.78h13.38l4.6-9.95c.51-1.1,1.62-1.81,2.83-1.81s2.32.71,2.83,1.81l5.44,11.76,2.61,5.64,2.61-5.64c.03-.07.08-.12.11-.19.06-.1.11-.2.18-.3.06-.08.12-.15.19-.23.07-.08.13-.16.2-.23.07-.07.15-.13.23-.19.08-.06.16-.13.24-.18.08-.05.17-.09.26-.14.09-.05.18-.1.28-.13.1-.04.2-.06.3-.09.09-.03.18-.06.28-.07.12-.02.25-.03.38-.04.06,0,.12-.02.19-.02h15.38c.78,0,1.49.3,2.04.78l1.37-2.08c.81-1.74,1.28-3.29,1.28-4.55,0-9.4-7.62-17.02-17.01-17.02Z"/>
  </g>
  <path class="cls-10" d="M96.84,597.79h333.03c.67,0,1.21.99,1.21,2.21s-.55,2.21-1.21,2.21H96.84c-.67,0-1.21-.99-1.21-2.21s.55-2.21,1.21-2.21h0ZM436.11,597.79h-1.35c-.67,0-1.21.99-1.21,2.21s.55,2.21,1.21,2.21h1.35c.67,0,1.21-.99,1.21-2.21s-.55-2.21-1.21-2.21h0ZM91.91,597.79h-3.49c-.67,0-1.21.99-1.21,2.21s.55,2.21,1.21,2.21h3.49c.67,0,1.21-.99,1.21-2.21s-.55-2.21-1.21-2.21Z"/>
</svg>