<?xml version="1.0" encoding="UTF-8"?>
<svg xmlns="http://www.w3.org/2000/svg" xmlns:xlink="http://www.w3.org/1999/xlink" viewBox="0 0 2023.77 1756.63">
  <defs>
    <style>
      .cls-1 {
        fill: #dd856b;
      }

      .cls-2 {
        mix-blend-mode: soft-light;
        opacity: .48;
      }

      .cls-3 {
        fill: #d84d46;
      }

      .cls-4 {
        fill: #f5d8a5;
      }

      .cls-5 {
        opacity: .28;
      }

      .cls-5, .cls-6 {
        mix-blend-mode: overlay;
      }

      .cls-7 {
        fill: #e5c8ba;
      }

      .cls-8 {
        fill: #f0ded4;
      }

      .cls-9 {
        fill: #efc889;
      }

      .cls-10 {
        fill: #5c4357;
      }

      .cls-11 {
        fill: #f3a080;
      }

      .cls-12 {
        fill: #f0f7c6;
      }

      .cls-13 {
        fill: #fff;
      }

      .cls-14 {
        fill: #e08985;
      }

      .cls-15 {
        fill: #8db7b1;
      }

      .cls-16 {
        clip-path: url(#clippath-1);
      }

      .cls-17 {
        fill: #dd5b67;
      }

      .cls-18 {
        isolation: isolate;
      }

      .cls-19 {
        fill: #e5cabd;
      }

      .cls-20 {
        fill: #444;
      }

      .cls-21 {
        fill: #ea7c6f;
      }

      .cls-22 {
        fill: #f8bf92;
      }

      .cls-23 {
        fill: #e2a944;
      }

      .cls-24 {
        fill: #aac6c3;
      }

      .cls-25 {
        fill: #6d4868;
      }

      .cls-26 {
        fill: #595959;
      }

      .cls-27 {
        fill: #38102b;
      }

      .cls-28 {
        fill: #1d313d;
      }

      .cls-29 {
        fill: #965c51;
      }

      .cls-30 {
        opacity: .45;
      }

      .cls-31 {
        fill: #377289;
      }

      .cls-32 {
        fill: #ffd8bd;
      }

      .cls-33 {
        fill: #734641;
      }

      .cls-34 {
        clip-path: url(#clippath-2);
      }

      .cls-35 {
        fill: #b54b57;
      }

      .cls-36 {
        fill: #4c3147;
      }

      .cls-37 {
        fill: #2a2b2b;
      }

      .cls-38 {
        fill: #1d1e1e;
      }

      .cls-39 {
        fill: #5b322f;
      }

      .cls-40 {
        fill: #dd9390;
      }

      .cls-41 {
        fill: #e5925a;
      }

      .cls-42 {
        fill: #fef1e8;
      }

      .cls-43 {
        fill: #ecaba5;
      }

      .cls-44 {
        fill: #e8cfc4;
      }

      .cls-45 {
        fill: #4883a1;
      }

      .cls-46 {
        clip-path: url(#clippath);
      }

      .cls-47 {
        fill: #f7e4d9;
      }

      .cls-48 {
        fill: #e87458;
      }

      .cls-49 {
        fill: #eac386;
      }

      .cls-6 {
        opacity: .76;
      }

      .cls-50 {
        fill: #e2b774;
      }
    </style>
    <clipPath id="clippath">
      <path class="cls-24" d="M1175.82,364.44s25.96-9.59,46.84-11.64c24.76-2.43,37.52-.58,37.52-.58,0,0,20.55-62.79,38.91-85.22,28.7-35.06,68.17-43.67,68.17-43.67,0,0,10.31-27.98,22.85-29.76l80.17,32.89s-42.53,160.87-77.13,196.99c-34.7,36.23-86.98,35.37-86.98,35.37,0,0-46.91,46.31-98.28,45.47l-36.92-118.83,4.85-21Z"/>
    </clipPath>
    <clipPath id="clippath-1">
      <path class="cls-24" d="M895.82,366.23s-32.52-16.95-53.32-19.69c-24.67-3.25-37.48-1.81-37.48-1.81,0,0-5.68-32.34-36.02-77.8-20.4-30.56-56.2-51.16-56.2-51.16,0,0-19.94-31.7-32.41-33.89l-81.21,30.23s37.21,162.18,70.61,199.42c33.49,37.35,85.76,38.21,85.76,38.21,0,0,61.42,50.12,126.13,49.16l22.13-112.42-7.99-20.25Z"/>
    </clipPath>
    <clipPath id="clippath-2">
      <path class="cls-43" d="M1730.21,393.47l-.35,1.54-.15.77c-.07.31-.14.62-.16.93-2.61,12.82-8.79,44.19-14.51,81.99-.99,6.3-1.93,12.81-2.84,19.42-3.57,25.89,36.54,65.67,35.03,91.94-3.24,56.4,72.34,638.71,82.65,674.85-139.53,25.43-339.89,26.23-439.66-25.27,9.36-55.41,144.33-680.47,144.33-680.47,0,0-3.21-2.89-7.78-10.46-14.07-23.34-16.51-51.77-8.18-77.73,13.2-41.15,38.71-86.58,38.71-86.58,0,0,7.44,1,18.05,2.24,25.1,2.85,67.94,7.08,71.83,2.88,5.45-5.99-2.37-44.94-2.37-44.94l45.9-12.78s4.61,54.02,10.02,57.77l19.76.56,10.35.28-.42,1.85-.22,1.19Z"/>
    </clipPath>
  </defs>
  <g class="cls-18">
    <g id="OBJECTS">
      <path class="cls-12" d="M1620.49,65.57c-78.92-22.83-162.43-24.35-244.47-20.07-85.8,4.48-176.16,17.07-243.57,70.33-46.37,36.64-77.95,89.71-125.54,124.74-60.37,44.43-139.08,54.59-214.02,56.05-173.32,3.38-358.04-29.65-511.87,50.27-142.33,73.94-226.25,238.38-222.44,398.73,3.82,160.34,87.33,312.82,207.26,419.31,119.93,106.49,273.46,170,430.66,201.81,157.2,31.81,318.91,33.55,479.22,28.38,144.41-4.66,291.58-15.48,425.32-70.15,203.07-83.01,360.47-269.73,407.93-483.91,49.88-225.11-28.44-507.86-202.18-665.89-53.78-48.92-116.1-89.27-186.29-109.57Z"/>
      <g>
        <g>
          <g>
            <g>
              <g>
                <path class="cls-32" d="M981.1,250.82c-13.98-1.26-24.25-11.67-29.78-20.42-1.24-1.97-2.25-3.86-3-5.54-4.08-9.14-5.55-40.97,4.65-48.47,7.14-5.25,12.46,2.21,15,7.16v.02c1.08,2.1,1.66,3.75,1.66,3.75l11.47,63.51Z"/>
                <path class="cls-22" d="M982.57,251.4c-13.98-1.25-25.72-12.25-31.25-21-.48-.89-.9-1.75-1.26-2.55-4.08-9.14-5.55-40.97,4.65-48.46,5.78-4.26,10.37-.17,13.25,4.16v.02c1.08,2.1,1.66,3.75,1.66,3.75l12.94,64.1Z"/>
                <path class="cls-11" d="M949.98,201.71c-.49,2.55-.14,5.2.55,7.71,2.91,10.66,11.4,18.73,19.53,26.21-2.48-5.16-3.43-11-2.99-16.7.15-1.98.47-3.96.46-5.95-.02-8.01-14.66-26.36-17.55-11.27Z"/>
                <path class="cls-17" d="M974.13,238.63s-.16-.11-.46-.32c-.29-.22-.77-.51-1.31-.97-1.09-.9-2.59-2.35-4.02-4.51-1.42-2.15-2.71-5.03-3.35-8.45-.58-3.41-.51-7.39.9-11.23.15-.49.36-.95.57-1.41l.16-.34c.04-.09.01-.03.01-.03h0s0,0,0,0h0s0,.02-.02-.06l-.14-.31-.28-.6c-.19-.4-.38-.8-.57-1.18-.78-1.56-1.61-3.02-2.47-4.38-.86-1.36-1.75-2.61-2.62-3.75-.89-1.13-1.73-2.2-2.58-2.98-.84-.79-1.76-1.3-2.62-1.43-.86-.12-1.67.14-2.21.49-.55.36-.85.81-.97,1.15-.13.34-.12.54-.12.54,0,0-.06-.2,0-.57.05-.37.27-.94.82-1.46.54-.51,1.4-.99,2.53-1.04,1.14-.02,2.36.45,3.46,1.22,1.11.78,2.11,1.75,3.16,2.82,1.05,1.08,2.11,2.3,3.13,3.65,1.02,1.36,2.01,2.85,2.91,4.47.23.4.44.82.66,1.24l.32.64.42.9.29.63c-.07.21-.18.42-.27.64l-.4.91c-.18.4-.36.8-.49,1.22-1.22,3.34-1.47,6.82-1.2,9.94.32,3.12,1.18,5.89,2.21,8.08,1.03,2.2,2.21,3.82,3.09,4.9.44.54.83.91,1.07,1.19.25.27.38.42.38.42Z"/>
              </g>
              <g>
                <path class="cls-32" d="M1112.86,252.98c14.01-.79,24.62-10.86,30.44-19.43,1.31-1.93,2.37-3.79,3.18-5.44,4.38-9,6.89-40.76-3.05-48.6-6.97-5.48-12.52,1.8-15.22,6.66v.02c-1.15,2.07-1.79,3.69-1.79,3.69l-13.56,63.1Z"/>
                <path class="cls-22" d="M1111.36,253.52c14.01-.79,26.11-11.4,31.93-19.96.51-.88.96-1.71,1.34-2.51,4.38-9,6.89-40.76-3.05-48.59-5.64-4.45-10.36-.51-13.38,3.72v.02c-1.15,2.07-1.79,3.69-1.79,3.69l-15.05,63.64Z"/>
                <path class="cls-11" d="M1145.57,204.93c.41,2.57-.03,5.2-.8,7.69-3.26,10.55-12.01,18.34-20.38,25.56,2.65-5.07,3.79-10.88,3.54-16.6-.09-1.99-.34-3.97-.27-5.96.28-8.01,15.52-25.86,17.91-10.69Z"/>
                <path class="cls-17" d="M1120.22,241.03s.16-.11.47-.31c.3-.21.78-.49,1.34-.93,1.12-.87,2.67-2.27,4.16-4.38,1.49-2.1,2.88-4.94,3.63-8.34.69-3.39.75-7.37-.53-11.26-.13-.49-.33-.96-.52-1.43l-.15-.35c-.04-.09-.01-.03-.01-.03h0s0,0,0,0h0s0,.02.02-.06l.15-.3.3-.59c.2-.39.4-.78.61-1.17.83-1.53,1.71-2.96,2.61-4.29.9-1.33,1.83-2.55,2.75-3.66.92-1.1,1.8-2.14,2.67-2.89.87-.76,1.8-1.24,2.67-1.35.86-.09,1.66.2,2.19.56.54.37.82.84.94,1.18.12.34.11.54.11.54,0,0,.06-.2.01-.57-.04-.38-.24-.95-.77-1.49-.53-.53-1.36-1.04-2.5-1.12-1.13-.06-2.38.37-3.5,1.1-1.14.74-2.17,1.68-3.25,2.71-1.08,1.05-2.18,2.23-3.25,3.55-1.06,1.32-2.1,2.78-3.05,4.37-.24.4-.47.81-.7,1.22l-.34.63-.45.89-.31.62c.06.21.17.43.25.64l.37.92c.17.4.34.81.45,1.24,1.11,3.38,1.24,6.87.87,9.97-.43,3.11-1.37,5.85-2.47,8-1.11,2.16-2.33,3.75-3.25,4.79-.45.53-.86.88-1.11,1.16-.26.27-.39.4-.39.4Z"/>
              </g>
            </g>
            <g>
              <path class="cls-22" d="M1091.65,355.63c-4.58,6.29-15.45,26.9-53.4,22.89-14.9-1.56-26.37-13.95-37.29-25.41,5.28-3.42,8.8-6.4,9.49-8.4.46-1.35,1.18-10.34,1.84-21.17,1.23-18.59,2.46-42.58,2.46-42.58l63,1.83s-.05.44-.06,1.23c-.11,3.95-.54,16.58-.48,29.4,0,0,0,.04,0,.09.04,2.77.04,5.58.13,8.25.24,11.81,1.08,22.14,3.03,23.8.13.05,7.87,7.39,11.29,10.08Z"/>
              <path class="cls-11" d="M1077.59,321.5l-.27.26c-4.86,4.75-11.8,7.44-17.44,8.58-14.57,2.39-33.57-.46-47.6-6.8,1.23-18.59,2.46-42.58,2.46-42.58l63,1.83s-.05.44-.06,1.23c-.24,3.86-.88,16.18-.48,29.4,0,0,0,.04,0,.09.09,2.64.22,5.36.39,8Z"/>
              <g>
                <path class="cls-22" d="M1125.92,204.32s-14.54,68.01-29.93,84.64c-.56.61-1.19,1.22-1.82,1.79-.6.58-1.22,1.12-1.88,1.63-.03.07-.1.1-.16.13-.56.48-1.16.96-1.78,1.4-.46.32-.96.67-1.45.99-.43.29-.89.57-1.35.86-1.38.86-2.83,1.68-4.31,2.4-.75.41-1.54.79-2.33,1.17-.07,0-.13.03-.2.06-.79.35-1.61.69-2.4,1.04-1.67.69-3.38,1.35-5.08,1.9-17.95,6.09-37.63,5.77-55.37-.91-1.68-.65-3.33-1.32-4.98-2.07-.78-.37-1.58-.74-2.36-1.11-.06-.03-.13-.07-.19-.07-.77-.4-1.52-.81-2.29-1.24-.78-.44-1.58-.87-2.32-1.34h-.03c-.77-.47-1.51-.97-2.22-1.44-.84-.57-1.61-1.13-2.38-1.7-.61-.5-1.22-1-1.83-1.53-.67-.57-1.28-1.13-1.89-1.76-.61-.6-1.22-1.23-1.76-1.85-.7-.79-1.37-1.72-2.04-2.74-.67-1.02-1.33-2.14-2-3.32-.44-.82-.85-1.67-1.29-2.53-.19-.46-.41-.89-.63-1.35-.85-1.84-1.66-3.81-2.44-5.87-.19-.52-.37-1.05-.59-1.57-9.83-26.49-16.04-68.35-16.04-68.35-.43-1.34-.83-2.78-1.14-4.29-.37-1.47-.67-3.04-.93-4.64-.15-.82-.27-1.63-.38-2.45-.12-.88-.23-1.73-.35-2.61-.2-1.67-.37-3.36-.5-5.06-.03-.29-.06-.62-.08-.91v-.13c-.05-.82-.1-1.66-.15-2.48-.05-.85-.1-1.66-.12-2.51-.79-17.54.83-34.68.83-34.68,0,0,.06-1.89.38-5.04.04-.42.11-.91.15-1.4.04-.49.11-1.01.19-1.56.07-.65.15-1.37.26-2.08.15-1.01.29-2.08.48-3.18.33-2.02.72-4.16,1.21-6.4.14-.72.32-1.46.49-2.21.7-2.99,1.53-6.1,2.6-9.24.21-.68.45-1.39.68-2.07.92-2.56,1.97-5.08,3.15-7.54.3-.65.64-1.29.98-1.94.4-.78.81-1.55,1.28-2.33.4-.68.8-1.32,1.21-1.97.1-.19.23-.36.37-.55v-.03c2.14-3.26,4.63-6.21,7.5-8.64,8.36-7.1,20.62-7.94,31.97-6.54,19.02,2.3,38.14,2.61,57.23.94,11.39-1.02,23.65.23,31.74,7.59,9.53,8.63,14.32,23.01,16.69,35.07,2.34,11.96,2.38,21.77,2.38,21.77,0,0,.46,3.88.85,9.85.86,13.08,1.43,36.19-3.56,50.02Z"/>
                <g>
                  <path class="cls-37" d="M1026.57,192.25c-3.29-7.41-9.88-13.29-17.63-15.69-7.74-2.41-16.51-1.31-23.42,2.94,14.07-.92,29.88,4.16,41.05,12.76Z"/>
                  <path class="cls-37" d="M1068.16,189.88c3.53-7.3,10.32-12.95,18.14-15.1,7.82-2.15,16.54-.77,23.31,3.7-14.03-1.38-30,3.17-41.45,11.4Z"/>
                </g>
                <g>
                  <path class="cls-11" d="M1032.28,225.76c1.24-2.43,2.48-4.86,3.72-7.28,6.55-.34,13.24-2.97,18.17-7.12.56,2.04,1.09,4.12,1.06,6.23-.02,2.11-.65,4.28-2.13,5.81-1.37,1.43-3.33,2.17-5.28,2.69-5.42,1.44-10.1,1.1-15.55-.33Z"/>
                  <path class="cls-1" d="M1054.21,223.14s-.76.65-2.34,1.62c-1.58.94-4.04,2.16-7.37,2.9-1.66.37-3.53.62-5.57.63-2.17-.03-3.6-.04-8.05-1.24l-.74-.2c-.1-.04-.29-.05-.33-.12l.16-.29.67-1.16c.46-.8.93-1.6,1.41-2.42.29-.48.42-.74.52-.95l.37-.73.75-1.47c.91-2.02,1.83-4.13,2.56-6.36,3.07-8.9,3.65-17.6,3.16-23.87-.19-3.15-.64-5.69-.96-7.45-.37-1.74-.58-2.73-.58-2.73,0,0,.43.93,1.18,2.56.69,1.68,1.63,4.16,2.33,7.36,1.51,6.32,1.95,15.76-1.36,25.37-.79,2.4-1.83,4.65-2.92,6.77-.55.94-1.1,1.87-1.63,2.78-.1.16-.57.59-.45.65-.38.06,2.34.7,4.02.85,1.83.21,3.56.21,5.14.1,3.17-.22,5.7-.94,7.41-1.54,1.7-.63,2.62-1.08,2.62-1.08Z"/>
                </g>
                <path class="cls-32" d="M1125.92,204.32s-14.54,68.01-29.93,84.64c-.56.61-1.19,1.22-1.82,1.79-.6.58-1.22,1.12-1.88,1.63-.03.07-.1.1-.16.13-.56.48-1.16.96-1.78,1.4-.46.32-.96.67-1.45.99-.43.29-.89.57-1.35.86-1.38.86-2.83,1.68-4.31,2.4-.75.41-1.54.79-2.33,1.17-.07,0-.13.03-.2.06-.79.35-1.61.69-2.4,1.04-1.67.69-3.38,1.35-5.08,1.9-17.95,6.09-37.63,5.77-55.37-.91-1.68-.65-3.33-1.32-4.98-2.07-.78-.37-1.58-.74-2.36-1.11-.06-.03-.13-.07-.19-.07-.77-.4-1.52-.81-2.29-1.24-.78-.44-1.58-.87-2.32-1.34h-.03c-.77-.47-1.51-.97-2.22-1.44-.84-.57-1.61-1.13-2.38-1.7-.61-.5-1.22-1-1.83-1.53-.67-.57-1.28-1.13-1.89-1.76-.61-.6-1.22-1.23-1.76-1.85-.7-.79-1.37-1.72-2.04-2.74-.67-1.02-1.33-2.14-2-3.32-.44-.82-.85-1.67-1.29-2.53-.19-.46-.41-.89-.63-1.35-.82-1.84-1.63-3.81-2.44-5.87-.19-.52-.37-1.05-.59-1.57-9.79-26.49-16.01-68.35-16.01-68.35-.43-1.34-.83-2.78-1.17-4.29-.37-1.47-.67-3.04-.93-4.64-.15-.82-.27-1.63-.38-2.45-.12-.88-.23-1.73-.35-2.61-.2-1.67-.37-3.36-.5-5.06-.03-.36-.05-.68-.08-1.04-.05-.82-.1-1.66-.15-2.48-.05-.85-.1-1.66-.12-2.51-.79-17.54.83-34.68.83-34.68,0,0,.06-1.89.38-5.04.04-.42.11-.91.15-1.4.04-.49.11-1.01.19-1.56.07-.65.15-1.37.26-2.08.15-1.04.29-2.08.48-3.18.33-2.02.72-4.16,1.21-6.4.14-.72.32-1.46.49-2.21.7-2.99,1.53-6.1,2.6-9.24.21-.68.45-1.39.68-2.07.92-2.56,1.97-5.08,3.15-7.54.3-.65.64-1.29.98-1.94.4-.78.81-1.55,1.28-2.33.4-.68.8-1.32,1.21-1.97.1-.19.23-.36.37-.55-12.76,66.32-15.59,137.42,17.5,189.64,21.24,21.92,76.78,30.23,96.43-1.9,26.62-43.51,29.84-85.19,34.42-127.73.86,13.08,1.43,36.19-3.56,50.02Z"/>
                <path class="cls-37" d="M1172.29,136.2c-1.05.38-2.1.71-3.14,1.04-8.38,2.54-17.08,3.98-25.81,4.24l-4.76,36.08c-6.59,2.67-13.5,18.48-13.5,18.48l-11.37-83.67-18.87-19.75c-10.93,1.16-41.97.35-64.28-.46-3.4,1.43-6.55,3.56-9.32,6-5.54,4.92-9.8,11-14.95,16.27-7.42,7.72-17.24,13.65-27.59,15.77-6.28,26.14-10.25,62.43-10.25,62.43l-15.46-16.23-6.93-31.22c-9.14-2.03-17.59-6.94-23.93-13.84-.05-.05-.1-.1-.15-.15,11.36-3.38,20.5-13.15,23.22-24.67,2.56-10.92,6.77-22.61,11.5-32.85,6.84-14.92,17.81-27.19,33.38-33.18,9.58-3.71,19.84-5.62,30.11-6,4.96-.17,9.97.01,14.92.59,1.83.23,10.96,3.16,12.06,2.43,13.04-8.66,30.32-10.02,45.07-4.81,17.65,6.29,34.79,22.99,42.65,39.84,4.5,9.65,5.92,20.34,9.72,30.17,5.33,13.78,15.2,25.7,27.67,33.49Z"/>
                <path class="cls-20" d="M1172.29,136.2c-1.05.38-2.1.71-3.14,1.04-6.15-.15-12.23-1.04-17.12-2.56-7.7-2.51-14.71-7.43-19.06-14.35-4.79-7.57-6.57-16.68-11.11-24.39-5.16-8.82-14.7-16.86-24.57-19.95-11.15-3.51-23.37-8.37-35.23-5.14-6.53,1.83-12.15,5.9-17.62,9.93,3.28-3.37,5.24-7.9,5.51-12.56.26-3.96-1.3-8.55-5-9.76-9.82-3.29-17.6,14.79-22.07,20.57-4.51,5.83-10.49,10.59-17.19,13.75-.8-5.52-3-10.86-6.34-15.33-3.56,17.1-18.83,28.81-33.03,38.89.34-5.65-.66-11.37-2.9-16.61-6.83,16.85-23.44,28.88-41.29,31.61-.05-.05-.1-.1-.15-.15,11.36-3.38,20.5-13.15,23.22-24.67.11-.49.22-.94.37-1.43,2.55-10.47,6.61-21.62,11.13-31.41,6.84-14.92,17.81-27.19,33.38-33.18,9.58-3.71,19.84-5.62,30.11-6,4.96-.17,9.97.01,14.92.59,1.83.23,10.96,3.16,12.06,2.43,13.04-8.66,30.32-10.02,45.07-4.81,17.65,6.29,34.79,22.99,42.65,39.84,4.5,9.65,5.92,20.34,9.72,30.17.86,2.25,1.86,4.39,2.97,6.55,5.62,11,14.25,20.42,24.71,26.94Z"/>
                <path class="cls-26" d="M1147.59,109.26c-3.25-1.24-6.35-2.83-9.25-4.77-7.31-4.93-13.14-12.02-16.53-20.16-1.81-4.4-2.93-9.08-4.84-13.47-5.73-13.59-19.01-23.63-33.61-25.5-10.3-1.36-22.36,2.26-26.48,11.77-2.21-4.55-7.07-7.36-12.07-8.04-5-.63-10.13.68-14.73,2.69-9.29,4.11-17.15,11.32-22.11,20.22-4.14-7.56-11.09-13.53-19.17-16.49.22,13.4-6.54,26.68-17.48,34.39.42-4.26-1.05-8.65-3.92-11.82-4.89,10.63-12.48,19.98-21.82,27.02,2.55-10.47,6.61-21.62,11.13-31.41,6.84-14.92,17.81-27.19,33.38-33.18,9.58-3.71,19.84-5.62,30.11-6,4.96-.17,9.97.01,14.92.59,1.83.23,10.96,3.16,12.06,2.43,13.04-8.66,30.32-10.02,45.07-4.81,17.65,6.29,34.79,22.99,42.65,39.84,4.5,9.65,5.92,20.34,9.72,30.17.86,2.25,1.86,4.39,2.97,6.55Z"/>
              </g>
            </g>
            <g>
              <path class="cls-20" d="M982.94,138.85s37.61-17.62,48.31-7.82c6.24,5.72.15,8.09.15,8.09l-48.46-.27Z"/>
              <path class="cls-20" d="M1114.83,142.77s-35.19-22.06-47-13.64c-6.89,4.92-1.13,8.01-1.13,8.01l48.13,5.63Z"/>
            </g>
            <g>
              <path class="cls-11" d="M1003.77,218.07c-1.39,3.54-11.16,3.01-21.83-1.18-10.67-4.19-18.18-10.46-16.79-14s11.16-3.01,21.83,1.18c10.66,4.19,18.18,10.46,16.79,14Z"/>
              <path class="cls-11" d="M1133.77,204.96c1.4,3.53-6.09,9.83-16.74,14.06-10.65,4.23-20.42,4.79-21.82,1.26-1.4-3.54,6.09-9.83,16.74-14.06,10.65-4.23,20.42-4.79,21.82-1.26Z"/>
            </g>
          </g>
          <path class="cls-42" d="M1011.43,245.44l71.46-9.36s-4.11,37.13-35.57,39.3c-31.46,2.17-35.89-29.94-35.89-29.94Z"/>
        </g>
        <g>
          <path class="cls-11" d="M1455.21,227.51c7.29-21.56,12.39-36.68,12.39-36.68l-15.01-7.18-24.15-11.61-4.35-2.11-7.2-3.43v.05s-2.87,5.16-2.87,5.16c-.12.19-.25.42-.38.66l-1.17,2.06-15.49,27.77,58.24,25.32Z"/>
          <path class="cls-22" d="M1412.72,209.04c8.47-18.9,14.41-32.25,14.41-32.25l-3.05-6.87-7.2-3.43v.05s-2.87,5.16-2.87,5.16c-.12.19-.25.42-.38.66l-1.17,2.06-15.49,27.77,15.75,6.85Z"/>
          <g>
            <g>
              <path class="cls-11" d="M1488.67,158.96c-1.22,2.02-2.26,3.42-3.05,4.09l-12.63,8.05-5.4,19.72-52.7-17.97c1.15-3.66,2-6.36,2-6.36,0,0-28.83-19.88-28.29-39.24.29-11.46.56-23.02-3.43-33.77-2.07-5.6-4.93-10.95-6.35-16.73-1.41-5.83-1.26-12.45,2.27-17.27.4-.57.89-1.11,1.55-1.39,1.33-.56,2.8.18,4.04,1.09.12.07.24.19.36.26,13.16,10.46,22.56,25.52,26.2,41.86,0,0,14.58-27.07,29-51.66,12.31-21,24.53-40.25,27.41-39.36,2.36.69,4.16,1.86,5.49,3.03,2.28,1.97,3.28,4.04,3.28,4.04,0,0-9.92,26.57-17.07,47.36-4.33,12.51-7.65,22.92-7.21,24.12.47,1.31,6.55-6.56,14.06-16.54,5.96-7.94,12.87-17.3,18.59-24.5,5.26-6.6,9.52-11.36,11.23-11.74,1.66-.39,3.72.65,5.79,2.3,1.85,1.56,3.79,3.59,5.4,5.65,2.78,3.33,4.8,6.5,4.8,6.5,0,0,.81.36,2.03.94,1.72.88,4.24,2.15,6.79,3.72,1.68,1.05,3.31,2.14,4.73,3.33,4.81,3.86-26.78,80.85-38.89,100.45Z"/>
              <g>
                <path class="cls-17" d="M1509.22,43.98c-.89,1.67-1.82,3.37-2.81,5.06-5.77,9.88-12.14,18.12-17.05,23.81-4.62,5.33-7.92,8.5-8.32,8.86.21-.49,2.02-4.69,5.08-10.98,3.28-6.74,7.92-15.87,13.6-25.58,1.37-2.34,2.74-4.6,4.08-6.78,1.89,1.52,3.79,3.59,5.42,5.61Z"/>
                <path class="cls-17" d="M1522.83,55.2c-8.87,15.89-18.71,27.08-19.34,27.79.24-.92,4.18-15.32,12.58-31.52,1.68.86,4.2,2.17,6.75,3.74Z"/>
              </g>
              <path class="cls-22" d="M1426.81,177.7c.09-.29.23-.62.32-.91.5-1.54,1-3.14,1.31-4.76.17-1.33.23-2.63,0-3.97-.61-3.54-3.26-6.34-5.86-8.83-8.36-8.15-17.73-15.87-22.55-26.53-5.69-12.58-4.08-27.2-7.35-40.63-2.38-9.75-7.31-19.22-6.49-29.21.1-1.19.31-2.42.47-3.71-1.2-.85-2.71-1.65-4.03-1.07-.64.32-1.12.86-1.54,1.41-3.53,4.83-3.71,11.44-2.24,17.25,1.42,5.81,4.26,11.14,6.31,16.73,4.01,10.76,3.74,22.33,3.45,33.75-.5,19.38,28.26,39.32,28.26,39.32,0,0-1.22,2.46-2.87,5.16-.12.19-.25.42-.39.66l-1.17,2.06,14.35,3.28Z"/>
            </g>
            <path class="cls-17" d="M1451.26,161.48s.32-.7.87-1.91c.56-1.25,1.18-3.12,1.68-5.53,1.02-4.77,1.1-11.93-1.69-19.08-2.82-7.14-7.76-12.32-11.76-15.12-2.01-1.42-3.74-2.37-5-2.9-1.23-.51-1.94-.81-1.94-.81,0,0,.44.62,1.21,1.7.8,1.04,1.85,2.63,3.05,4.55,2.44,3.85,5.16,9.21,7.57,15.27,2.37,6.08,4.03,11.85,4.87,16.33.43,2.22.74,4.11.87,5.41.18,1.31.28,2.07.28,2.07Z"/>
          </g>
        </g>
        <g>
          <path class="cls-11" d="M612.26,217.6c-6.58-21.79-11.17-37.07-11.17-37.07l15.24-6.68,24.52-10.81,4.42-1.97,7.31-3.19v.05s2.7,5.25,2.7,5.25c.12.19.24.43.36.67l1.1,2.1,14.57,28.27-59.04,23.39Z"/>
          <path class="cls-22" d="M655.33,200.54c-7.84-19.16-13.34-32.71-13.34-32.71l3.27-6.76,7.31-3.19v.05s2.7,5.25,2.7,5.25c.12.19.24.43.36.67l1.1,2.1,14.57,28.27-15.97,6.33Z"/>
          <g>
            <g>
              <path class="cls-11" d="M581.06,147.99c1.15,2.06,2.15,3.5,2.92,4.19l12.36,8.47,4.74,19.89,53.26-16.23c-1.03-3.7-1.79-6.42-1.79-6.42,0,0,29.46-18.92,29.57-38.29.08-11.47.19-23.03,4.54-33.64,2.25-5.53,5.29-10.78,6.9-16.51,1.6-5.78,1.67-12.4-1.7-17.34-.38-.58-.85-1.14-1.5-1.44-1.31-.6-2.8.08-4.08.96-.13.07-.24.18-.37.25-13.5,10.02-23.39,24.76-27.57,40.98,0,0-13.68-27.53-27.28-52.59C619.44,18.87,607.86-.77,604.95.02c-2.39.61-4.22,1.72-5.59,2.84-2.34,1.89-3.41,3.93-3.41,3.93,0,0,9.04,26.88,15.5,47.9,3.92,12.65,6.9,23.15,6.41,24.35-.51,1.29-6.33-6.77-13.51-16.99-5.7-8.13-12.3-17.71-17.77-25.1-5.04-6.77-9.14-11.67-10.84-12.11-1.65-.45-3.74.53-5.86,2.11-1.9,1.49-3.91,3.47-5.58,5.47-2.89,3.24-5.01,6.34-5.01,6.34,0,0-.82.33-2.06.88-1.75.82-4.3,2.01-6.9,3.49-1.72,1-3.38,2.03-4.84,3.17-4.93,3.69,24.11,81.69,35.57,101.68Z"/>
              <g>
                <path class="cls-17" d="M564.32,32.4c.83,1.7,1.7,3.43,2.64,5.15,5.44,10.06,11.53,18.51,16.26,24.36,4.44,5.48,7.64,8.75,8.03,9.13-.19-.5-1.86-4.75-4.72-11.15-3.05-6.84-7.39-16.12-12.75-26.01-1.29-2.39-2.59-4.69-3.85-6.91-1.94,1.46-3.91,3.46-5.6,5.43Z"/>
                <path class="cls-17" d="M550.34,43.16c8.34,16.18,17.81,27.68,18.41,28.41-.21-.93-3.68-15.45-11.54-31.92-1.71.8-4.27,2.03-6.87,3.51Z"/>
              </g>
              <path class="cls-22" d="M642.28,168.76c-.08-.29-.21-.63-.29-.92-.45-1.56-.9-3.17-1.15-4.8-.13-1.34-.15-2.64.13-3.97.72-3.52,3.47-6.23,6.15-8.64,8.62-7.87,18.24-15.28,23.41-25.78,6.1-12.39,4.97-27.05,8.68-40.36,2.7-9.66,7.93-18.96,7.44-28.98-.06-1.19-.23-2.43-.35-3.72,1.23-.81,2.76-1.56,4.07-.93.63.34,1.08.9,1.49,1.46,3.37,4.94,3.34,11.55,1.67,17.32-1.61,5.76-4.63,11-6.86,16.51-4.36,10.62-4.48,22.2-4.56,33.62-.13,19.39-29.54,38.37-29.54,38.37,0,0,1.13,2.49,2.7,5.25.12.19.24.43.36.67l1.1,2.1-14.45,2.81Z"/>
            </g>
            <path class="cls-17" d="M618.38,151.74s-.29-.71-.8-1.94c-.52-1.27-1.08-3.16-1.5-5.58-.87-4.81-.71-11.96,2.32-19.01,3.06-7.04,8.16-12.06,12.25-14.72,2.05-1.35,3.81-2.25,5.09-2.74,1.24-.47,1.96-.75,1.96-.75,0,0-.46.61-1.26,1.67-.83,1.02-1.94,2.57-3.2,4.45-2.56,3.77-5.46,9.04-8.07,15.02-2.57,5.99-4.42,11.72-5.41,16.17-.5,2.21-.87,4.08-1.05,5.38-.22,1.31-.35,2.06-.35,2.06Z"/>
          </g>
        </g>
        <g>
          <g>
            <g>
              <path class="cls-10" d="M1276.27,1686.31c-.44-4.03-2.1-8.79-7.08-11.32-14.52-7.39-68.01-30.71-82.19-43.19-11.02-9.7-20.13-30.06-23.66-38.67l-101.62.08c-7.16,26.09-13.48,76.71-14.75,87.31l229.3,5.79Z"/>
              <polygon class="cls-8" points="1275.77 1709.38 1046.47 1703.59 1046.97 1680.51 1276.27 1686.31 1275.77 1709.38"/>
              <g>
                <path class="cls-8" d="M1167.55,1637.77c-.17.26-.33.53-.48.79-1.16,1.99-1.96,5.08.68,6.36,1.34.66,2.93.51,4.4.26,5.06-.86,9.76-2.91,14.26-5.32,4.84-2.59,10-5.4,13.22-10.02,3.33-4.77-.99-9.42-6.47-8.42-9.48,1.72-20.31,8.04-25.6,16.35Z"/>
                <path class="cls-8" d="M1184.51,1650.56c-.17.26-.33.52-.48.79-1.17,1.99-1.96,5.08.68,6.36,1.34.66,2.93.51,4.4.26,5.06-.86,9.76-2.91,14.26-5.32,4.84-2.59,9.99-5.4,13.22-10.02,3.33-4.77-.99-9.42-6.47-8.42-9.48,1.72-20.31,8.04-25.6,16.35Z"/>
                <path class="cls-8" d="M1205.55,1659.25c-.17.26-.33.53-.48.79-1.16,1.99-1.96,5.08.68,6.36,1.34.65,2.93.51,4.4.26,5.06-.86,9.76-2.91,14.26-5.32,4.84-2.59,9.99-5.4,13.22-10.02,3.33-4.77-.99-9.42-6.47-8.42-9.48,1.72-20.31,8.04-25.6,16.35Z"/>
              </g>
            </g>
            <g>
              <g>
                <path class="cls-10" d="M811.73,1689.36s49.17,36.61,62.71,37.99c13.55,1.36,85.07-15.93,85.23-25.17.05-3.24-1.3-14.72-3.24-28.57-3.61-25.69-9.32-59.52-12.19-64.06-4.4-7,.8-48.48.8-48.48,0,0-73.22-18.54-83.44-15.23-7.9,2.54-33.32,86.67-44.5,124.91-3.3,11.31-5.36,18.61-5.36,18.61Z"/>
                <path class="cls-8" d="M811.73,1689.36s49.17,36.61,62.71,37.99c13.55,1.36,85.07-15.93,85.23-25.17.05-3.24-1.3-14.72-3.24-28.57-23.33,8.9-73.27,26.45-89.54,20.17-11.04-4.26-32.02-14.3-49.79-23.03-3.3,11.31-5.36,18.61-5.36,18.61Z"/>
              </g>
              <path class="cls-8" d="M876.36,1620.24c-.28.12-.56.24-.84.36-2.07.95-4.45,3.02-3.02,5.62.73,1.32,2.11,2.13,3.45,2.79,4.62,2.27,9.62,3.34,14.66,4,5.41.71,11.21,1.43,16.44-.46,5.41-1.96,4.48-8.3-.56-10.7-8.72-4.15-21.13-5.32-30.12-1.61Z"/>
              <path class="cls-8" d="M876.03,1640.25c-.28.12-.56.24-.84.36-2.07.95-4.45,3.02-3.02,5.61.73,1.33,2.11,2.14,3.45,2.79,4.62,2.27,9.62,3.34,14.66,4,5.41.71,11.21,1.43,16.44-.46,5.41-1.96,4.48-8.3-.56-10.7-8.72-4.15-21.13-5.32-30.12-1.61Z"/>
              <path class="cls-8" d="M873.81,1658.53c-.28.12-.56.24-.84.36-2.07.95-4.45,3.02-3.02,5.61.73,1.33,2.11,2.13,3.45,2.79,4.62,2.27,9.62,3.34,14.66,4,5.41.71,11.21,1.43,16.44-.46,5.41-1.96,4.48-8.3-.56-10.7-8.72-4.15-21.13-5.32-30.12-1.61Z"/>
            </g>
          </g>
          <g>
            <path class="cls-4" d="M1205.2,1219.97c1.5-16.77-7.09-193.71-13.31-315.64-1.15-22.54-2.22-43.2-3.12-60.62l-312.57-5.14-.32,45.93-12.89,307.4s-59.52,372.28-53.33,374.77c1.65.67,3.32,1.31,4.97,1.93,83.32,31.57,159.63,12.41,159.63,12.41l17.11-373.78,57.42-290.8,3.3-18.27.62,18.45,9.26,278.57-32.1,394.74c4.94,2.11,10.07,3.97,15.3,5.55,70.56,21.46,162.31-2.63,162.31-2.63,0,0-4.59-347.06-2.28-372.86Z"/>
            <path class="cls-23" d="M876.2,838.57l-.32,45.92c65.71,20.57,123.84,29.5,172.91,31.93l3.3-18.27.62,18.45c62.33,2.71,109.73-5.04,139.19-12.27-1.15-22.54-2.21-43.19-3.12-60.61l-312.58-5.14Z"/>
            <path class="cls-9" d="M1029.87,1589.9c4.94,2.11,10.06,3.97,15.3,5.55l36.35-399.96-23.28-336.15-6.17,38.81.62,18.45,9.26,278.57-32.1,394.74Z"/>
            <path class="cls-9" d="M876.19,838.57l-.32,45.93-12.89,307.4s-59.52,372.28-53.33,374.77c1.65.67,3.32,1.31,4.97,1.93l69.3-376.35,9.41-353.39-17.14-.28Z"/>
          </g>
        </g>
        <path class="cls-24" d="M1225.68,832.14c-5.58,15.82-16.38,28.51-29.48,39.66-6.55,5.62-86.2,7.36-165.44,6.6-2.5-.04-5.05-.04-7.55-.08-75.74-.88-148.98-4-155.1-8.1-12.77-8.58-22.17-34.56-26.47-49.36-4.3-14.8,25.86-54.37,25.86-54.37,2.16-48.21,4.93-106.23,8-163.01.72-13.13,1.43-26.17,2.14-38.98.56-8.99,1.07-17.9,1.58-26.66.81-13.36,1.62-26.39,2.46-38.93,4.82-74.54,9.84-130.7,14.14-132.68,3.07-1.45,10.42-3.24,19.77-5.13,3.06-.63,6.29-1.26,9.72-1.89,14.19-2.63,30.83-5.31,44.45-7.41,5.52-.82,10.58-1.6,14.72-2.17l12.26-1.75s16.43,21.46,47.07,24.55c30.64,3.05,54.49-22.88,54.49-22.88l6.21,1.1c6.26,1.1,16.55,2.95,28.2,5.15,9.47,1.75,19.81,3.74,29.6,5.76,1.9.4,3.76.79,5.57,1.14,16.18,3.45,29.94,6.81,34.36,9.07,4.19,2.16,5.64,58.16,5.64,132.5-.02,12.5-.06,25.55-.14,38.97-.05,8.77-.11,17.69-.17,26.69-.12,12.82-.24,25.91-.41,39.01-.62,56.92-1.67,115.1-2.69,163.38h.18s26.56,44,21.02,59.82Z"/>
        <g>
          <path class="cls-24" d="M1175.82,364.44s25.96-9.59,46.84-11.64c24.76-2.43,37.52-.58,37.52-.58,0,0,20.55-62.79,38.91-85.22,28.7-35.06,68.17-43.67,68.17-43.67,0,0,10.31-27.98,22.85-29.76l80.17,32.89s-42.53,160.87-77.13,196.99c-34.7,36.23-86.98,35.37-86.98,35.37,0,0-46.91,46.31-98.28,45.47l-36.92-118.83,4.85-21Z"/>
          <g class="cls-46">
            <path class="cls-47" d="M1416.17,425.34c-7.55-5.9-18.33-5.26-27.54-2.62-6.62,1.9-15.4,3.94-19.03-1.91-2.05-3.31-1.13-7.69.7-11.13,1.82-3.44,4.46-6.44,5.95-10.03,4.43-10.68-3.28-23.52-13.98-27.9-10.71-4.38-23.03-2.1-33.74,2.27-5.24,2.14-10.62,5.1-13.12,10.18-2.5,5.08-.44,12.62,5.09,13.85,5.49,1.22,11.06-4.06,16.43-2.38,6.19,1.95,6.2,11.1,2.76,16.6-3.44,5.5-9.03,9.86-10.62,16.15-2.68,10.61,8.21,20.69,19.12,21.56,10.91.87,21.22-4.48,30.92-9.54,3.52-1.83,7.55-3.7,11.31-2.42,6.18,2.1,6.69,11.33,2.74,16.53-3.95,5.2-10.4,7.66-16.05,10.93-5.65,3.26-11.2,8.55-10.87,15.07,1.12,21.84,33.69,8.44,41.59-1.07,11.01-13.25,26.28-40.1,8.33-54.13Z"/>
            <path class="cls-47" d="M1364.2,243.97c-7.55-5.9-18.33-5.26-27.54-2.61-6.62,1.9-15.4,3.94-19.03-1.91-2.05-3.31-1.12-7.69.7-11.13,1.83-3.44,4.46-6.44,5.95-10.03,4.43-10.68-3.28-23.52-13.98-27.9-10.71-4.38-23.03-2.1-33.74,2.27-5.24,2.14-10.62,5.1-13.12,10.18-2.5,5.08-.44,12.62,5.09,13.85,5.49,1.22,11.06-4.06,16.43-2.38,6.19,1.94,6.2,11.1,2.76,16.6-3.44,5.5-9.03,9.86-10.62,16.15-2.68,10.61,8.21,20.69,19.12,21.56,10.9.87,21.22-4.49,30.92-9.55,3.52-1.84,7.55-3.7,11.31-2.43,6.18,2.1,6.69,11.33,2.74,16.53-3.94,5.2-10.4,7.66-16.05,10.93-5.65,3.27-11.2,8.55-10.87,15.07,1.12,21.84,33.69,8.44,41.59-1.07,11.01-13.25,26.28-40.1,8.33-54.13Z"/>
          </g>
        </g>
        <g>
          <path class="cls-24" d="M895.82,366.23s-32.52-16.95-53.32-19.69c-24.67-3.25-37.48-1.81-37.48-1.81,0,0-5.68-32.34-36.02-77.8-20.4-30.56-56.2-51.16-56.2-51.16,0,0-19.94-31.7-32.41-33.89l-81.21,30.23s37.21,162.18,70.61,199.42c33.49,37.35,85.76,38.21,85.76,38.21,0,0,61.42,50.12,126.13,49.16l22.13-112.42-7.99-20.25Z"/>
          <g class="cls-16">
            <path class="cls-47" d="M748.26,214.56c-6.15,7.35-5.88,18.15-3.54,27.44,1.68,6.68,3.42,15.52-2.55,18.96-3.38,1.94-7.72.86-11.1-1.08-3.38-1.94-6.28-4.68-9.83-6.29-10.53-4.78-23.62,2.48-28.35,13.03-4.73,10.55-2.88,22.95,1.13,33.8,1.96,5.31,4.73,10.79,9.73,13.46,5,2.67,12.6.86,14.01-4.62,1.4-5.45-3.69-11.2-1.82-16.5,2.15-6.12,11.3-5.82,16.68-2.2,5.38,3.63,9.55,9.36,15.78,11.16,10.51,3.03,20.95-7.51,22.19-18.38,1.24-10.87-3.77-21.36-8.5-31.23-1.72-3.58-3.44-7.67-2.04-11.38,2.3-6.1,11.55-6.3,16.61-2.18,5.06,4.12,7.31,10.65,10.38,16.41,3.07,5.76,8.17,11.48,14.69,11.37,21.86-.38,9.57-33.39.33-41.61-12.87-11.45-39.19-27.62-53.82-10.15Z"/>
            <path class="cls-47" d="M788.8,419.76c-9.21-2.63-18.97,2.01-26.51,7.92-5.42,4.25-12.79,9.44-18.35,5.38-3.15-2.29-3.93-6.7-3.53-10.57.4-3.87,1.72-7.64,1.75-11.53.09-11.57-11.87-20.57-23.43-20.6-11.56-.03-22.14,6.7-30.42,14.78-4.05,3.95-7.93,8.71-8.34,14.36-.41,5.65,4.34,11.86,9.92,10.92,5.55-.94,8.73-7.92,14.34-8.37,6.47-.52,9.91,7.96,8.79,14.35-1.12,6.39-4.67,12.53-3.78,18.95,1.5,10.84,15.38,16.09,25.82,12.8,10.43-3.29,17.98-12.13,25.07-20.46,2.57-3.02,5.61-6.26,9.57-6.49,6.51-.38,10.46,7.99,8.75,14.29-1.7,6.3-6.76,11.01-10.77,16.15-4.01,5.15-7.17,12.13-4.41,18.05,9.24,19.82,34.4-4.83,38.15-16.62,5.23-16.42,9.3-47.04-12.61-53.3Z"/>
          </g>
        </g>
        <path class="cls-15" d="M1110.4,369.62c-4.86,4.45-10.06,8.24-15.49,11.46-.05-.08-.07-.17-.14-.24-2.79-3.25-5.32-6.67-7.61-10.28-1.56-2.46-5.54-.25-3.96,2.23,2.34,3.68,4.94,7.18,7.75,10.51-5.56,2.93-11.34,5.29-17.25,6.99-2.29-3.63-4.33-7.39-6.11-11.29-1.21-2.66-5.17-.42-3.96,2.23,1.6,3.51,3.44,6.89,5.46,10.18-6.42,1.49-12.94,2.37-19.48,2.46-2.53-3.96-4.4-8.15-5.57-12.73-.72-2.83-5.13-1.71-4.4,1.14,1.03,4.05,2.56,7.9,4.59,11.51-9.36-.42-18.66-2.23-27.57-5.51.12-3.65,1.56-6.87,4.4-9.35,2.21-1.93-.96-5.19-3.16-3.27-3.22,2.82-5.17,6.71-5.67,10.88-4.89-2.1-9.65-4.61-14.21-7.59.13-.14.28-.24.39-.43,2.05-3.52,4.11-7.03,6.16-10.55,1.48-2.53-2.41-4.89-3.89-2.36l-6.16,10.55c-.06.1-.06.19-.1.29-4.24-3.07-8.33-6.47-12.13-10.35-2.05-2.09-5.32,1.07-3.27,3.16,36.83,37.58,95.76,39.14,134.56,3.63,2.16-1.98-1-5.24-3.16-3.27Z"/>
        <path class="cls-15" d="M798.51,357.98c-.08-2.14-2.09-4.16-4.36-3.44-9.75,3.1-19.34,7.6-26.32,15.27-1.48,1.62.29,4.15,2.32,3.11,6.97-3.6,13.75-7.28,21.06-9.98-.74,6.31-2.93,12.31-6.3,17.78-3.84,6.24,7.07,7.66,7.5,2.89,4.54-7.91,6.43-16.46,6.1-25.62Z"/>
        <path class="cls-15" d="M884.7,487.97c-6.63-35.77-11.64-70.24-9.73-106.73.29-5.53-8.29-5.66-8.59-.14-1.97,36.11.77,73.96,13.23,108.18,1.15,3.15,5.72,2.06,5.09-1.31Z"/>
        <path class="cls-15" d="M1210.67,399.94c-.56-2.27-4.34-1.95-4.19.5,1.62,28.41,3.25,56.41,2.15,84.88-.22,5.63,8.44,5.75,8.74.14,1.53-28.57.18-57.67-6.69-85.52Z"/>
        <path class="cls-15" d="M1293.38,376.58c-1.63-4.22-5.49-4.75-9.45-6.25-4.67-1.77-9.3-3.6-14.06-5.11-2.24-.71-4.67,1.11-4.67,3.44,0,7.35.29,14.74.23,22.08-.03,3.27,4.81,3.3,5.04.08.4-5.57.99-11.15,1.52-16.73,2.69,1.17,5.39,2.3,8.11,3.43,3.89,1.61,7.78,4.36,11.88,2.37,1.05-.51,1.85-2.16,1.41-3.31Z"/>
        <path class="cls-15" d="M688.97,209.7c-.57.29-1.11.6-1.68.9-1.83-4.75-5.38-9.17-8.74-12.66-1.61-1.68-3.95.71-2.55,2.47,3.11,3.91,4.88,8.19,6.91,12.54-2.2,1.24-4.36,2.5-6.51,3.76-2.38-5.31-5.87-10.49-9.36-15.08-.97-1.28-3.31.05-2.76,1.54,2.01,5.42,4.54,11.17,7.78,16.03-3.55,2.05-7.13,4.05-10.91,5.8-3.18-5.97-7.17-11.98-11.49-17.01-1.54-1.79-3.82.42-3.05,2.27,2.38,5.72,5.76,11.65,9.39,16.89-1.1.42-2.19.85-3.33,1.21-2.46.79-4.93,1.41-7.41,1.97-.87-3.03-3.89-5.95-5.55-8.3-2.33-3.3-4.62-7.46-8.55-8.95-.79-.3-1.63.43-1.64,1.21-.05,4.41,3.39,8.34,5.71,11.85,1.08,1.63,2.09,3.75,3.39,5.47-2.74.45-5.49.85-8.24,1.2-.01-.02,0-.04-.02-.07-2.17-4.32-4.97-8.37-7.49-12.49-1.15-1.89-3.89-.31-2.97,1.67,1.78,3.83,3.46,7.77,5.44,11.51-2.99.37-6,.75-9.01,1.21-1.79.27-1.87,3.33-.06,3.63,23.83,4.01,59.32-6.51,75.32-25.09,1.6-1.86-.29-4.66-2.61-3.5Z"/>
        <path class="cls-15" d="M1453.95,242.22c-5.77-1.03-11.53-1.63-17.27-2.34.94-1.23,1.88-2.45,2.78-3.71,1.67-2.33,4.15-4.68,4.11-7.68-.02-1.63-1.65-2.49-3.07-1.83-2.67,1.26-3.73,4.59-5.07,7.06-1.01,1.85-1.94,3.73-2.89,5.6-3.59-.5-7.19-1.07-10.76-1.91,2.91-3.79,5.83-7.57,8.64-11.45,2.1-2.9-2.81-5.96-4.8-2.91-2.83,4.35-5.53,8.76-8.22,13.19-.23-.07-.45-.12-.68-.19-3.32-1.03-6.54-2.25-9.73-3.56,1.42-1.4,2.78-2.86,4.09-4.37,2.17-2.5,4.56-5,6.35-7.79,1.63-2.54-2-5.45-4.13-3.3-2.33,2.35-4.25,5.23-6.21,7.9-1.41,1.91-2.72,3.9-3.92,5.94-4.03-1.82-7.97-3.84-11.82-6.03,3.77-3.43,7.44-6.9,10.99-10.58,2.22-2.3-1.3-5.92-3.45-3.57-3.7,4.03-7.16,8.19-10.58,12.45-3.13-1.89-6.2-3.89-9.2-6.02-2.11-1.5-4.91,1.94-2.86,3.58,20.57,16.46,50.58,30.65,77.64,25.98,2.18-.38,2.3-4.05.07-4.45Z"/>
        <path class="cls-10" d="M1253.35,924.03c-2.38,9.33-42.54,36.18-42.62,40.56-.07,4.3-137.51,8.57-144.89,4.14-7.38-4.35-45.3-1.51-53.35,1.96-8.05,3.48-157.21-12.73-157.21-12.73,0,0-17.66-38.01-26.56-61.98-1.91-5.18-3.37-9.66-4.24-12.98-4.76-18.9,11.83-102.52,11.83-102.52l25.98-434.8,42.06,7.15,59.33-5.48s77.07,111.13,79.92,111.18c2.39-.65,54.73-108.96,60.93-107.86,6.21,1.1,118.13,2.1,118.13,2.1l8.92,163.1s17.75,293.78,21.28,382.95c.6,14.76.84,23.91.51,25.21Z"/>
        <g>
          <path class="cls-19" d="M964.98,308.12c-7.99,2.66-15.99,6.78-20.47,13.9-4.49,7.12-4.74,16.27-2.59,24.41,2.15,8.14,6.47,15.51,10.74,22.77,9.43-18.97,36.75-28.33,57.04-22.24,3.38,1.01,5.96-34.52,3.68-39.46-2.57-5.59-16.16-4.03-21.72-3.93-9.05.17-18.08,1.69-26.68,4.55Z"/>
          <path class="cls-47" d="M946.3,327.61c7.69-.71,28.6-7.11,32.57-3,3.97,4.11,21.74,79.23,15.15,86.43-6.59,7.2-50.01,21.81-60.75,5.88-10.74-15.93-19.54-86.31,13.03-89.31Z"/>
          <path class="cls-7" d="M972.83,330.18l15.36,73.24s-7.42-5.99-16.19-22.4c-8.77-16.41.84-50.84.84-50.84Z"/>
        </g>
        <g>
          <path class="cls-19" d="M1127.18,310.79c7.9,2.92,15.75,7.3,20,14.57,4.25,7.27,4.2,16.42,1.79,24.48-2.42,8.06-6.98,15.29-11.48,22.4-8.8-19.27-35.8-29.53-56.28-24.11-3.41.9-4.82-34.7-2.38-39.56,2.75-5.5,16.28-3.5,21.84-3.21,9.04.47,18.02,2.29,26.51,5.43Z"/>
          <path class="cls-47" d="M1145.21,330.88c-7.66-.96-28.35-8.05-32.45-4.07-4.11,3.97-24.34,78.48-17.99,85.88,6.35,7.41,49.27,23.44,60.53,7.88,11.26-15.56,22.37-85.62-10.08-89.69Z"/>
          <path class="cls-7" d="M1118.61,332.58l-17.76,72.7s7.61-5.74,16.92-21.86c9.31-16.11.84-50.84.84-50.84Z"/>
        </g>
        <path class="cls-14" d="M1253.35,924.03c-2.38,9.33-42.54,36.18-42.62,40.56-.07,4.3-137.51,8.57-144.89,4.14-7.38-4.35-45.3-1.51-53.35,1.96-8.05,3.48-157.21-12.73-157.21-12.73,0,0-17.66-38.01-26.56-61.98,50.1,4.44,308.12,25.74,424.12,2.83.6,14.76.84,23.91.51,25.21Z"/>
        <g class="cls-2">
          <path d="M881.23,917.19c-.11-2.07-1.6-3.87-3.78-3.9-1.96-.03-4.02,1.69-3.9,3.78.55,10.13,1.1,20.26,1.66,30.4.11,2.07,1.6,3.87,3.78,3.9,1.96.03,4.02-1.7,3.9-3.78-.55-10.13-1.11-20.26-1.66-30.4Z"/>
          <path d="M924.3,912.81c-.3-4.9-7.98-5.07-7.68-.13.89,14.46,1.02,28.94.4,43.41-.21,4.94,7.47,5.07,7.68.13.62-14.47.49-28.96-.4-43.41Z"/>
          <path d="M979.91,915.92l-.58,35.42c-.08,4.94,7.6,5.08,7.68.13l.58-35.42c.08-4.94-7.6-5.08-7.68-.13Z"/>
          <path d="M1036.33,923.07c-.2-2.06-1.53-3.87-3.78-3.9-1.89-.03-4.11,1.7-3.9,3.78,1.15,11.8,1.25,23.66.29,35.47-.17,2.07,1.8,3.87,3.78,3.9,2.19.04,3.74-1.7,3.9-3.78.96-11.81.86-23.68-.29-35.47Z"/>
          <path d="M1097.79,956.68c-1.82-10.21-2.64-20.54-2.52-30.91.06-4.94-7.62-5.08-7.68-.13-.13,11.04.82,22.08,2.76,32.95.36,2.04,2.78,3.25,4.68,2.76,2.14-.55,3.13-2.63,2.76-4.68Z"/>
          <path d="M1145.25,925.12c-.24-2.06-1.5-3.87-3.78-3.9-1.86-.03-4.15,1.7-3.9,3.78,1.45,12.32,2.9,24.64,4.35,36.96.24,2.06,1.5,3.87,3.78,3.9,1.86.03,4.15-1.7,3.9-3.78-1.45-12.32-2.9-24.64-4.35-36.96Z"/>
          <path d="M1182.55,919.03c-2.08-.03-3.87,1.69-3.9,3.78l-.44,26.75c-.03,2.08,1.7,3.87,3.78,3.9,2.08.03,3.87-1.69,3.9-3.78l.44-26.75c.03-2.08-1.7-3.87-3.78-3.9Z"/>
          <path d="M1214.52,916.89c-.07-2.07-1.63-3.87-3.78-3.9-2-.03-3.97,1.69-3.9,3.78.34,10.37.68,20.74,1.02,31.1.07,2.07,1.63,3.87,3.78,3.9,2,.03,3.97-1.69,3.9-3.78-.34-10.37-.68-20.74-1.02-31.1Z"/>
        </g>
      </g>
      <g>
        <path class="cls-40" d="M313.44,822.17s-37.62,32.76-39.56,38.44c-1.94,5.68-6.83,190.59-1.28,206.09,5.55,15.51,58.57,21.87,64.02,17.07,5.45-4.8,31.24-239.53,29.84-239.89-1.4-.36-53.01-21.72-53.01-21.72Z"/>
        <path class="cls-11" d="M609.95,767.58l33.75,59.99s-169.75,87.65-197.2,88.57c-27.46.93-30.09-11.16-30.09-11.16l2.99-151.43,190.56,14.03Z"/>
        <g>
          <g>
            <g>
              <path class="cls-44" d="M245.02,1323.26c3.24,1.73,7.66,2.91,12.15.42,13.13-7.26,58.58-35.97,75.33-40.36,13.01-3.41,34.93,3.41,43.21,5.15l51.29-80.62c-15.7-18.8-50.14-49.54-57.38-55.94l-124.6,171.36Z"/>
              <polygon class="cls-47" points="228.08 1311.06 352.68 1139.7 369.63 1151.9 245.02 1323.26 228.08 1311.06"/>
              <g>
                <path class="cls-13" d="M338.25,1265.47c-.11-.26-.22-.52-.34-.77-.87-1.91-2.76-4.09-5.1-2.75-1.19.69-1.92,1.96-2.5,3.21-2.02,4.29-2.95,8.91-3.51,13.57-.6,5.01-1.21,10.37.54,15.18,1.81,4.98,7.54,4.07,9.68-.6,3.69-8.09,4.66-19.56,1.24-27.84Z"/>
                <path class="cls-13" d="M319.82,1271.81c-.11-.26-.22-.52-.34-.77-.87-1.91-2.76-4.09-5.1-2.75-1.19.69-1.92,1.96-2.5,3.21-2.02,4.29-2.95,8.91-3.51,13.57-.6,5.01-1.21,10.37.54,15.18,1.81,4.98,7.54,4.07,9.68-.6,3.69-8.09,4.66-19.56,1.24-27.84Z"/>
                <path class="cls-13" d="M302.3,1283.36c-.11-.26-.22-.52-.34-.77-.87-1.91-2.76-4.09-5.1-2.75-1.19.69-1.91,1.96-2.5,3.21-2.02,4.29-2.95,8.91-3.51,13.57-.6,5.01-1.21,10.37.54,15.18,1.81,4.98,7.54,4.07,9.68-.6,3.69-8.09,4.66-19.56,1.24-27.84Z"/>
              </g>
            </g>
            <g>
              <path class="cls-47" d="M138.77,1351.01c3.24,1.73,7.66,2.91,12.15.42,13.13-7.26,58.58-35.97,75.33-40.36,13.01-3.41,34.93,3.41,43.21,5.15l51.29-80.62c-15.7-18.8-50.14-49.54-57.38-55.94l-124.6,171.36Z"/>
              <polygon class="cls-47" points="121.82 1338.81 246.43 1167.45 263.37 1179.65 138.77 1351.01 121.82 1338.81"/>
              <g>
                <path class="cls-13" d="M232,1293.22c-.11-.26-.22-.52-.34-.77-.87-1.91-2.76-4.09-5.1-2.75-1.19.69-1.92,1.96-2.5,3.21-2.02,4.29-2.95,8.91-3.51,13.57-.6,5.01-1.21,10.37.54,15.18,1.81,4.98,7.54,4.07,9.68-.6,3.69-8.09,4.66-19.56,1.24-27.84Z"/>
                <path class="cls-13" d="M213.56,1299.55c-.11-.26-.22-.52-.33-.77-.87-1.9-2.76-4.09-5.1-2.75-1.19.69-1.92,1.96-2.5,3.21-2.02,4.29-2.95,8.91-3.51,13.57-.6,5.01-1.21,10.37.54,15.18,1.81,4.98,7.54,4.07,9.68-.6,3.69-8.08,4.66-19.56,1.24-27.84Z"/>
                <path class="cls-13" d="M196.05,1311.1c-.11-.26-.22-.52-.34-.77-.87-1.91-2.76-4.09-5.1-2.75-1.19.69-1.92,1.96-2.5,3.21-2.02,4.29-2.95,8.91-3.51,13.57-.6,5.01-1.21,10.37.54,15.18,1.81,4.98,7.54,4.07,9.68-.6,3.69-8.09,4.66-19.56,1.24-27.84Z"/>
              </g>
            </g>
            <g>
              <path class="cls-31" d="M609.16,1231.22l-104.01-336.36,130.34-67.89s185.04,348.07,160.91,400.27c-24.13,52.2-49.29,82.8-62.12,86.87-11.3,3.58-302.29,18.7-371.71,22.27l56.46-147.92,190.14,42.77Z"/>
              <path class="cls-45" d="M676.55,1226.41c2.11,55.51-32.2,85.39-53.29,98.38-12.29,7.6-249.56,15.74-361.28,17.42l34.36-100.12,11.83-34.53,178.66,11.45s-73.67-113.19-76.98-128.71c-13.57-64.16,1.81-176.26,1.81-176.26l152.31-46.67s110.5,303.47,112.58,359.05Z"/>
              <g class="cls-5">
                <path class="cls-28" d="M528.63,1244.72l-232.29-2.63,11.83-34.53,178.66,11.45s-73.67-113.19-76.98-128.71c-13.57-64.16-3.08-165.39-3.08-165.39l50.38,1.62,2.04,9.62s-28.69,114.84-24.89,133.31c3.88,18.5,94.33,175.27,94.33,175.27Z"/>
              </g>
            </g>
          </g>
          <path class="cls-36" d="M638.8,805.09l-81.55,51.16s-149.37,19.78-149.52,21.81c-.15,2.03-8.46,55.15-7.4,59.93,1.05,4.78,17.95,9.83,17.95,9.83,0,0,148.53-33.7,166.25-43.28,17.72-9.58,83.2-57.84,78.28-65.01-4.92-7.17-24-34.43-24-34.43Z"/>
        </g>
        <g>
          <g>
            <g>
              <path class="cls-11" d="M777.2,538.79l-34.62-16-8.44,18.2-17.42,37.6-4.09,8.71s2.21,1.03,6.02,2.78c20.46,9.19,86.45,38.09,96.2,31.03.44-.31.9-.77,1.34-1.31l.17-.17c15.02-18.35,39.03-149.88,43.46-174.76.15-.78.28-1.47.37-2.01.12-.69.25-1.38.34-2.04l-42.32-2-8.71,18.91-32.31,81.05Z"/>
              <path class="cls-21" d="M734.14,540.96s54.06,17.16,56.39,13.99c2.26-3.18,43.49-114.96,43.49-114.96l-14.23-11.71-42.58,110.51-34.65-16-8.43,18.17Z"/>
              <path class="cls-21" d="M716.72,578.58l-4.09,8.71s2.21,1.03,6.02,2.78c20.52,9.31,86.82,38.58,96.2,31.03.44-.37.9-.77,1.34-1.31l.17-.17c15.02-18.35,39.03-149.88,43.46-174.76.15-.66.28-1.35.37-2.01.12-.69.25-1.38.34-2.04,0,0-50.04,166.61-57.76,168.27-9.39,2.04-61.72-19.97-86.06-30.51Z"/>
              <g>
                <path class="cls-11" d="M756.15,389.85c-2.2,1.89-3.44,5.21-2.11,7.83,1.01,2.03,3.24,3.19,5.34,4.03,9.2,3.72,19.28,5.37,28.01,10.12,6.8,3.75,12.44,9.27,18.81,13.77,8.53,5.98,17.97,10.67,27.83,14.4,8.46,3.16,17.19,5.6,25.87,7.53,0,0,8.25-8.24,16.73-17.09,7.96-8.27,16.15-17.1,18.07-20.12,3.71-6.06-1.03-37.4-1.32-39.35,0-.07-.03-.1-.03-.1l-.03-.03c-.92-1.86-2.03-3.53-3.44-5.04-3.65-3.87-8.85-5.79-13.96-7.35-10.64-3.28-21.68-5.53-32.79-6.61-2.56-.26-5.28-.36-7.82,0-3.15.38-6.02,1.52-8.03,3.92-2.44,3.02-2.78,7.14-3.28,10.96t0,.07s-.03.03,0,.06c-.4,3.14-1.02,6.25-1.93,9.32-1.86,6.04-4.82,11.69-9.32,16.01-1.12,1.09-2.4,2.08-3.89,2.25-1.72.21-3.33-.72-4.82-1.52-11.8-6.31-25.66-8.63-38.86-6.46-.29.03-.62.09-.94.15-2.9.51-5.86,1.29-8.06,3.24Z"/>
                <path class="cls-21" d="M756.15,389.85c-2.2,1.89-3.44,5.21-2.11,7.83,1.01,2.03,3.24,3.19,5.34,4.03,9.2,3.72,19.28,5.37,28.01,10.12,6.8,3.75,12.44,9.27,18.81,13.77,8.53,5.98,17.97,10.67,27.83,14.4l6.89-14.1s11.01,4.26,22.23,5.37c11.25,1.08,31.55-20.96,31.55-20.96,3.71-6.06-1.03-37.4-1.32-39.35,0-.07-.03-.1-.03-.1l-.03-.03c-.92-1.86-2.03-3.53-3.44-5.04-3.65-3.87-8.85-5.79-13.96-7.35-10.64-3.28-21.68-5.53-32.79-6.61-2.56-.26-5.28-.36-7.82,0-3.15.38-6.02,1.52-8.03,3.92-2.44,3.02-2.78,7.14-3.28,10.96t0,.07s-.03.03,0,.06c-.4,3.14-1.02,6.25-1.93,9.32-1.86,6.04-4.82,11.69-9.32,16.01-1.12,1.09-2.4,2.08-3.89,2.25-1.72.21-3.33-.72-4.82-1.52-11.8-6.31-25.66-8.63-38.86-6.46-.29.03-.62.09-.94.15-2.9.51-5.86,1.29-8.06,3.24Z"/>
                <path class="cls-17" d="M857.4,396.49c10.16,2,19.63,6.89,27.76,13.31-6.09-8.11-13.96-15.21-23.51-18.63s-20.9-2.72-28.99,3.4c-1.47,1.11-3.28,2.51-4.05,4.03,3.6.86,9.54-2.34,13.43-2.78,5.11-.57,10.31-.32,15.36.67Z"/>
              </g>
              <g>
                <path class="cls-11" d="M896.47,366.71c.94,16.24-9.47,33.28-9.47,33.28-3.52.39-7.47.12-11.6-.67-1.74-.29-3.51-.7-5.31-1.18-3.98-1.07-8.08-2.46-12.14-4.11-1.79-.7-3.57-1.44-5.33-2.22-4.69-2.09-9.25-4.35-13.43-6.6-1.81-.94-3.54-1.89-5.19-2.8-4.47-2.52-8.29-4.85-11.12-6.62-3.28-2.06-5.23-3.38-5.23-3.38,3.51-14.49,19.8-31.58,19.8-31.58,5.7-.08,11.54.93,17.18,2.62,22.2,6.57,41.85,23.26,41.85,23.26Z"/>
                <g>
                  <path class="cls-17" d="M846.52,362.19s-.34,2.06-1.05,5.06c-.72,3.02-1.72,6.97-3.28,11.09-.95,2.5-2,4.82-3,6.86-1.81-.94-3.54-1.89-5.19-2.8.25-2.07.75-4.3,1.58-6.55,1.74-4.56,4.53-8.11,6.84-10.36,2.31-2.25,4.1-3.3,4.1-3.3Z"/>
                  <path class="cls-17" d="M864.02,371.96s-.16,2-.64,4.9c-.5,2.91-1.27,6.73-2.66,10.7-.83,2.36-1.82,4.53-2.76,6.47-1.79-.7-3.57-1.44-5.33-2.22.19-2.06.61-4.32,1.42-6.61,1.53-4.32,4.08-7.74,6.18-9.95,2.13-2.21,3.79-3.3,3.79-3.3Z"/>
                  <path class="cls-17" d="M882.14,375.74s-.14,2.09-.64,5.17c-.54,3.09-1.38,7.15-2.94,11.38-.94,2.58-2.06,4.96-3.15,7.02-1.74-.29-3.51-.7-5.31-1.18.22-2.51.77-5.37,1.84-8.27,1.65-4.51,4.24-8.12,6.38-10.5,2.15-2.4,3.82-3.63,3.82-3.63Z"/>
                </g>
                <path class="cls-21" d="M854.62,343.45c-4.79,1.5-9.38,3.44-13.28,6.55-3.57,2.83-6.37,6.5-9.02,10.19-3.02,4.23-6.44,8.64-8.69,13.35-.31.61-.52,1.4-.76,2.25-3.28-2.06-5.23-3.38-5.23-3.38,3.51-14.49,19.8-31.58,19.8-31.58,5.7-.08,11.54.93,17.18,2.62Z"/>
              </g>
            </g>
            <path class="cls-36" d="M562.55,472.88s27.65.47,39.17,6.74c11.53,6.27,162.37,49.43,162.37,49.43l21.62-65.46,72.97,46.56s-22.53,127.37-42,129.62c-19.47,2.25-239.89-44.12-239.89-44.12l-14.25-122.76Z"/>
          </g>
          <path class="cls-36" d="M393.45,772.67l-21.98-310.08,37.51,8.12s71.01,81.17,136.46,3.56l17.09-1.38s8.6,12.46,19.29,30.03c0,0,.15.21.39.61,18.6,30.67,43.23,76.36,39.63,98.27-6.59,26.71-22.35,65.06-23.32,67.4-.03.08-.06.13-.06.13,0,0,61.2,87.4,60.03,93.97-99.2,39.23-265.05,9.38-265.05,9.38Z"/>
          <path class="cls-11" d="M408.99,470.7s.05.11.06.15c8.41,18.81,36.06,71.86,80.65,63.21,40.27-7.9,52.34-42.61,55.75-59.8t.03-.08c-4.35.24-9.36.57-14.6.82-1.96.11-3.97.19-5.98.27-2.46.14-4.97.25-7.49.32-.19.03-.38.05-.58.04-10.47.41-20.73.56-28.09.08-.15.02-.31,0-.47-.01-5.09-.32-8.74-.91-10.04-1.94l-.13-.1c-.08-.03-.13-.1-.18-.17-.14-.17-.28-.35-.39-.57-.05-.07-.05-.11-.1-.18-.49-1.02-.81-2.57-.91-4.42-.14-1.92-.06-4.18.15-6.62.32-3.69.92-7.81,1.59-11.78.08-.28.12-.56.16-.84.41-2.15.82-4.23,1.22-6.18.25-1.28.48-2.47.72-3.59.58-2.6,1.06-4.76,1.38-6.13.16-.57.29-1.01.36-1.33.04-.28.1-.44.1-.44l-42.52-14.15s-.01.19-.08.55c-.03.35-.12.83-.19,1.46-.19,1.43-.49,3.56-.88,6.14-.08.28-.11.6-.15.91-.02.12-.05.24-.06.4-.34,2.1-.67,4.48-1.11,6.98-.44,2.74-.91,5.63-1.44,8.54-.28,1.63-.6,3.27-.93,4.9-.02.16-.07.32-.08.52-2.03,10.52-4.42,20.39-6.6,22.9-.1.13-.2.22-.31.31-.03.04-.07.05-.1.09-.03.08-.1.13-.14.13l-18.61-.39Z"/>
          <path class="cls-25" d="M408.99,470.7s.05.11.06.15c8.41,18.81,36.06,71.86,80.65,63.21,40.27-7.9,52.34-42.61,55.75-59.8t.03-.08c-4.35.24-9.36.57-14.6.82-6.73,19.08-22.25,52.62-47.09,48.65-23.57-3.75-44.86-34.02-55.95-52.78-.03.04-.07.05-.1.09-.03.08-.1.13-.14.13l-18.61-.39Z"/>
          <path class="cls-15" d="M696.39,566.38c1.24-7.24,4.17-14.52,6.32-21.55.59-1.93,3.81-2.44,4.88-.66,3.55,5.93,7.25,11.75,10.95,17.59,1.49,2.35-1.81,5.05-3.46,2.7-2.81-3.99-5.62-7.97-8.48-11.93-1.26,5.23-2.53,10.55-4.52,15.39-1.26,3.07-6.28,1.84-5.7-1.54Z"/>
          <g>
            <g>
              <g>
                <g>
                  <path class="cls-11" d="M67.43,340.38l13.11,3.04,13.95,15.9,12.78-11.36,14.55-12.91,8.65-7.71c-1.8-2.43-3.2-4.29-3.51-4.68-.04-.07-.09-.11-.09-.11,0,0,2.23-3.12,4.88-7.85.32-.61.68-1.25,1.04-1.9.65-1.25,1.32-2.58,2-3.98.41-.92.82-1.88,1.26-2.84.4-1,.81-1.99,1.21-3.02.36-.99.69-2.02,1.01-3.04l.03-.04c2.06-6.55,2.97-13.49.74-19.25-.81-2.03-1.57-4.06-2.34-6.13-.73-2.04-1.46-4.07-2.08-6.16-1.76-5.65-2.97-11.47-2.89-17.45.02-.65.03-1.31.04-2,.1-2.65.34-5.28.43-7.97.03-1.3.05-2.65,0-3.98-.03-.72-.1-1.48-.17-2.2-.06-.68-.17-1.36-.27-2-.39-2.03-.96-4.04-1.82-5.84-.86-1.83-2.02-3.52-3.49-4.88-.5-.45-1-.86-1.57-1.23-.13-.1-.25-.17-.41-.27-.12-.1-.25-.17-.4-.23-.28-.13-.59-.21-.91-.26-.39-.04-.76.03-1.13.22-.15.05-.29.14-.4.23-.5.31-.92.81-1.29,1.31-.11.09-.2.25-.31.38-.07.12-.17.24-.23.37-8.01,12.86-11.46,28.5-9.61,43.52,0,0-70.69-63.84-75.49-60.32-1.76,1.28-2.94,2.84-3.73,4.22-1.34,2.39-1.57,4.44-1.57,4.44,0,0,42.34,50.34,42.29,53.41-.06,2.23-24.25-15.11-40.16-25.01-6.43-4.02-11.52-6.79-13.07-6.57-1.55.18-3.02,1.66-4.24,3.7-.86,1.42-1.62,3.1-2.26,4.77-.21.56-.43,1.11-.61,1.67-1.38,3.65-2.13,6.98-2.13,6.98,0,0-.56.55-1.43,1.44h-.04s0,.04,0,.04c-.28.29-.59.63-.94,1.01-1.04,1.09-2.4,2.56-3.66,4.18-1.13,1.37-2.18,2.81-3.05,4.23-3.18,5.2,58.21,72.72,67.31,76.14Z"/>
                  <path class="cls-21" d="M18.46,236.22c1.56-.2,6.64,2.57,13.07,6.59-.36,5.47-2.39,11.41-2.38,16.49.05,7.93,1.87,15.87,5.43,22.94,5.84,11.6,15.8,20.6,26.32,28.22,10.5,7.63,21.78,14.24,31.66,22.64,5.33,4.52,10.17,9.54,14.73,14.84l-14.29,13.01-12.45-17.54-13.14-3.04C58.31,336.95-3.06,269.43.12,264.22c.85-1.42,1.92-2.86,3.02-4.23,1.71-2.11,3.46-3.98,4.63-5.21.88-.9,1.45-1.43,1.45-1.43,0,0,.74-3.32,2.12-7,.75-2.21,1.75-4.54,2.9-6.41,1.22-2.04,2.66-3.51,4.22-3.71Z"/>
                  <g>
                    <path class="cls-17" d="M11.33,246.34c1.26,1.15,2.56,2.32,3.92,3.45,7.89,6.65,15.79,11.73,21.69,15.08,5.54,3.13,9.3,4.82,9.75,5.01-.33-.36-3.14-3.37-7.64-7.8-4.82-4.73-11.53-11.09-19.29-17.62-1.87-1.57-3.72-3.08-5.52-4.53-1.14,1.87-2.14,4.2-2.91,6.41Z"/>
                    <path class="cls-17" d="M3.16,259.99c12.34,10.82,24.09,17.36,24.84,17.76-.48-.71-8.19-11.75-20.23-22.98-1.17,1.24-2.92,3.11-4.61,5.22Z"/>
                  </g>
                  <path class="cls-21" d="M117.53,327.34c.19,1.21.64,2.28,1.2,3.37.74,1.31,1.65,2.48,2.53,3.66.17.21.39.46.56.67l8.65-7.71c-1.8-2.43-3.2-4.29-3.51-4.68-.04-.07-.09-.11-.09-.11,0,0,2.23-3.12,4.88-7.85.32-.61.68-1.25,1.04-1.9.65-1.25,1.32-2.58,2-3.98.41-.92.82-1.88,1.26-2.84.4-1,.81-1.99,1.21-3.02.36-.99.69-2.02,1.01-3.04l.03-.04c2.06-6.55,2.93-13.52.69-19.28-.77-2.03-1.57-4.06-2.3-6.1-.73-2.04-1.46-4.07-2.08-6.16-1.76-5.65-2.97-11.47-2.89-17.45.02-.65.03-1.31.04-2,.1-2.65.34-5.28.43-7.97.03-1.3.05-2.65,0-3.98-.03-.72-.1-1.48-.17-2.2-.06-.68-.17-1.36-.27-2-.35-2.03-.96-4.01-1.82-5.84-.86-1.83-2.02-3.52-3.49-4.88-.5-.45-1.01-.9-1.57-1.27-.13-.1-.28-.16-.41-.23-.12-.1-.25-.17-.4-.23-.28-.13-.59-.21-.91-.26-.39-.04-.76.03-1.13.22-.15.05-.29.14-.4.23-.5.31-.92.81-1.29,1.31-.1.13-.2.25-.27.37.52,1.02,1.07,2,1.51,3,3.69,8.26,2.38,17.81,3.31,26.79,1.29,12.39,7.06,24.33,6.06,36.75-.88,10.54-6.49,19.91-11.15,29.35-1.44,2.93-2.87,6.09-2.3,9.29Z"/>
                </g>
                <path class="cls-17" d="M96.12,328.66s-.48-.5-1.31-1.36c-.85-.89-1.95-2.3-3.1-4.19-2.32-3.75-4.55-9.81-4.33-16.72.24-6.92,2.87-12.82,5.42-16.4,1.28-1.81,2.46-3.15,3.37-3.98.89-.81,1.4-1.28,1.4-1.28,0,0-.19.67-.51,1.82-.36,1.13-.78,2.8-1.22,4.79-.91,4.01-1.6,9.39-1.81,15.27-.18,5.88.16,11.29.8,15.35.31,2.02.61,3.71.9,4.86.25,1.17.39,1.84.39,1.84Z"/>
              </g>
              <g>
                <g>
                  <path class="cls-11" d="M292.19,457.87l-19.09,75.12c-33.42-14.47-81.4-25.93-87.12-30.12-2.43-1.75-7.38-8.19-13.86-17.39-20.59-29.36-56.18-87.04-71.59-112.26-4.69-7.63-7.51-12.29-7.51-12.29l14.24-12.97,14.6-12.9,8.6-7.74,84.11,96.18,77.62,34.37Z"/>
                  <polygon class="cls-21" points="121.82 335.05 121.86 335.09 214.57 423.52 130.47 327.34 121.82 335.05"/>
                </g>
                <path class="cls-21" d="M93,360.95s80.5,132.85,92.97,141.93l-78.61-154.78-.09-.15-14.27,13Z"/>
              </g>
            </g>
            <path class="cls-36" d="M412.91,597.78l-12.96-127.09-172.21-48.95-63.53-71.86-67.84,35.88s74.9,121.43,80.31,128.08c5.41,6.65,236.24,83.96,236.24,83.96Z"/>
            <path class="cls-15" d="M227.47,450.8s1.46-22.4-1.24-24.43c-2.69-2.02-27.95,10.74-25.97,12.55,1.97,1.81,20.92-3.87,20.92-3.87,0,0,.6,24.82,6.29,15.75Z"/>
          </g>
          <path class="cls-15" d="M598.47,669.31s.03-.04.06-.13c.96-2.34,16.73-40.7,23.32-67.4,6.42-25.99-35.07-91.21-39.63-98.27-.25-.39-.39-.61-.39-.61l28.22,90.82-11.57,75.59Z"/>
          <g>
            <path class="cls-3" d="M534.17,272.69c6.99,50.01,19.3,99.28,36.65,146.7-19.91,11.74-72.52,32.29-102.26,26.39-17.78-41.71.5-87.97-3.66-133.12-1.05-11.4-1.16-23.15,2.45-34.02,3.61-10.87,11.49-20.81,22.34-24.48,14.68-4.96,32.62,8.54,44.48,18.52Z"/>
            <g>
              <g>
                <g>
                  <path class="cls-11" d="M489.57,499.24l-55.45-37.33c-1.54-7.55-1.52-10.52-4.84-29.31-3.73-20.9-7.15-40.49-7.15-40.49l63.49,10.55c-3.39,16.03-2.75,33.34-.31,49.44,5.14,33.93,4.27,47.14,4.27,47.14Z"/>
                  <path class="cls-21" d="M485.62,402.66c-3.39,16.03-2.75,33.34-.31,49.44-1.68,1.17-3.34,2.27-4.91,3.23-6.28,3.82-32.28-10.86-51.12-22.73-3.73-20.9-7.15-40.49-7.15-40.49l63.49,10.55Z"/>
                </g>
                <g>
                  <g>
                    <path class="cls-11" d="M532.05,319.94c-.02,5.67-.31,11.68-.92,18.02,0,0,8.92,28.74,7.26,35.97-1.68,7.24-12.59,52.41-33.84,54.33-17.74,1.61-65.44-14.62-83.38-26.55-3.59-2.37-5.98-4.57-6.73-6.42-4.52-11.19-22.47-60.99-24.04-65.14-4.26-11.25-28.07-98.27,83.66-96.66,20.13.3,38.45,11.91,46.91,30.17,6.12,13.18,11.15,31.56,11.07,56.27Z"/>
                    <path class="cls-22" d="M531.14,337.96s8.92,28.74,7.26,35.97c-1.68,7.24-12.59,52.41-33.84,54.33-17.74,1.61-65.44-14.62-83.38-26.55,20.68,8.62,75.52,30.19,88.53,22.27,16.13-9.81,27.54-52.63,26.34-56.37-1.2-3.75-7.71-28.51-7.71-28.51,0,0,1.82-8.65,3.72-19.17-.02,5.67-.31,11.68-.92,18.02Z"/>
                    <g>
                      <path class="cls-27" d="M520.14,385.92s-1.72,4.47-5.72,9.15c-4.45,5.29-11.77,10.84-22.65,10.62-4.76-.09-8.83-1.14-12.23-2.64-6.94-3.03-11.31-8.11-13.68-11.59-1.61-2.32-2.3-3.95-2.3-3.95,0,0,21.13-6.54,56.45-1.58,0-.04.04,0,.04,0t.08,0Z"/>
                      <path class="cls-13" d="M520.01,385.93c-3.69,2.72-9.03,6.46-11.52,6.89-3.97.69-29.92,1.53-36.68,1.25-1.91-.06-3.99-1.14-5.95-2.6-1.61-2.32-2.3-3.95-2.3-3.95,0,0,21.13-6.54,56.45-1.58Z"/>
                    </g>
                  </g>
                  <g>
                    <path class="cls-22" d="M418.9,392.79c-13.59,1.82-25.03-4.01-31.66-9.53-1.49-1.25-2.74-2.47-3.72-3.6-5.3-6.1-11.56-29.87-2.93-37.57,6.05-5.38,12.28-.8,15.47,2.44,0,0,0,.01,0,.01,1.36,1.37,2.17,2.5,2.17,2.5l20.68,45.74Z"/>
                    <path class="cls-11" d="M418.9,392.79c-13.59,1.82-25.03-4.01-31.66-9.53-.6-.58-1.13-1.14-1.6-1.68-5.3-6.1-11.56-29.87-2.93-37.56,4.9-4.37,9.92-2.19,13.34.52,0,0,0,.01,0,.01,1.36,1.37,2.17,2.5,2.17,2.5l20.68,45.74Z"/>
                    <path class="cls-21" d="M381.58,361.83c-.08,2.03.66,3.96,1.7,5.72,4.42,7.48,13.79,11.9,22.72,15.95-3.16-3.41-4.97-7.64-5.41-12.03-.16-1.53-.15-3.09-.46-4.59-1.24-6.05-18.07-17.02-18.54-5.04Z"/>
                    <g>
                      <path class="cls-35" d="M410.36,384.96s-.17-.05-.49-.15c-.32-.11-.81-.24-1.4-.47-1.18-.47-2.84-1.27-4.54-2.62-1.69-1.35-3.37-3.27-4.5-5.73-1.07-2.46-1.61-5.48-.85-8.67.07-.4.2-.79.33-1.18l.1-.29c.03-.07.01-.03.01-.03h0s0,0,0,0h0s.01,0-.03-.04l-.18-.2-.36-.4c-.24-.26-.48-.53-.73-.78-.98-1.02-2.01-1.96-3.04-2.82-1.03-.85-2.07-1.62-3.09-2.31-1.02-.68-2-1.32-2.92-1.74-.93-.43-1.89-.63-2.73-.56-.84.08-1.58.44-2.05.81-.47.38-.69.78-.76,1.06-.08.28-.04.43-.04.43,0,0-.09-.14-.08-.43,0-.29.12-.76.56-1.27.44-.49,1.19-1.03,2.27-1.29,1.08-.24,2.33-.13,3.51.23,1.18.37,2.29.91,3.46,1.51,1.17.61,2.37,1.32,3.56,2.14,1.18.82,2.36,1.76,3.47,2.81.28.26.55.53.82.81l.4.42.54.6.38.42c-.04.17-.11.36-.16.54l-.24.77c-.11.34-.23.68-.28,1.02-.66,2.77-.37,5.45.36,7.75.79,2.3,2.03,4.22,3.35,5.67,1.33,1.45,2.7,2.45,3.71,3.09.5.32.93.53,1.21.69.28.16.43.24.43.24Z"/>
                      <g>
                        <path class="cls-3" d="M376.4,431.52c5.07,2.54,20.21,8.38,34.46,13.69,15.08,5.6,29.15,10.64,29.15,10.64l-32.49-151.11c4.39-1.41,8.75-2.82,13.07-4.18-2.7-8-3.68-16.5-3.1-24.96,4.59,6.83,11.17,12.25,15.77,19.11,14.81-3.4,30.89-6.08,45.7-9.48.73-7.72.99-16.27,1.71-24.03,5.87,7.06,11.92,15.12,17.79,22.18,15.38-3.35,31.03-5.65,46.7-6.84.17,0-6.58-13.92-9.22-18.86-.43-.8-.72-1.38-.9-1.6-4.21-6.27-9.19-11.95-14.76-16.98-10.28-9.28-22.5-16.26-35.46-20.94-27.18-9.83-58.55-9.53-84.32,4.25-17.7,9.44-41.3,28.78-44.22,50.37-3.11,23.09,9.75,153.39,20.12,158.72Z"/>
                        <g>
                          <path class="cls-48" d="M376.4,431.52c5.07,2.54,20.21,8.38,34.46,13.69-2.85-51.02-28.74-101.69-22.32-152.7,6.42-.91,12.64-3.19,19.06-4.1-2.17-11.28-2.91-23.67-.51-34.95,7.93,8.07,18.89,16.74,28.47,22.79,10.33-1.62,21.72-4.03,32.05-5.65-.88-10.06-1.75-20.08-2.64-30.14,15.62,5.74,32.05,13.22,45.42,23.16,8.68-1.35,17.22-3.32,25.55-5.92-.43-.8-.72-1.38-.9-1.6-4.21-6.27-9.19-11.95-14.76-16.98-1.59-1.45-3.26-2.84-4.95-4.15-9.16-7.25-19.58-12.83-30.52-16.8-27.18-9.83-58.55-9.53-84.32,4.25-17.7,9.44-41.3,28.78-44.22,50.37-2.25,16.75,3.92,89.95,11.4,130.87,2.82,15.49,5.88,26.37,8.72,27.85Z"/>
                          <path class="cls-41" d="M367.68,403.67c5.08-8.56,8.19-18.5,9.57-28.37,2.44-17.86-.09-35.98-2.39-53.85-2.3-17.87-2.7-35.8.54-53.5,7.35-1.15,14.84-2.51,22.19-3.66.31-10.66,2.15-21.39,5.54-31.47,9.02,7.2,18.7,14.26,27.71,21.42,8.86-2.08,18.57-3.43,27.66-3.81-2.82-8.36-4.63-17.37-5.49-26.15,17.11,4.69,35.11,10.56,52.22,15.25,3.38-1.54,6.74-3.03,10.12-4.57-9.16-7.25-19.58-12.83-30.52-16.8-27.18-9.83-58.55-9.53-84.32,4.25-17.7,9.44-41.3,28.78-44.22,50.37-2.25,16.75,3.92,89.95,11.4,130.87Z"/>
                        </g>
                      </g>
                    </g>
                  </g>
                </g>
              </g>
              <g>
                <path class="cls-48" d="M537.17,296.78s-17.5-15.27-23.53-6.44c-6.03,8.83-2.46,8.86-2.46,8.86l25.99-2.42Z"/>
                <path class="cls-48" d="M430.21,322.7s18.87-34.27,31.34-26.22c7.28,4.7,3.99,9.67,3.99,9.67l-35.33,16.55Z"/>
                <path class="cls-38" d="M464.41,318.45c-.53,3.36-4.05,6.65-6.58,8.63-1.81-1.35-3.79-1.96-5.7-1.55-4.88,1.05-7.48,8.26-5.79,16.1,1.69,7.84,7.01,13.35,11.9,12.3,4.88-1.05,7.48-8.26,5.79-16.1-.52-2.43-1.39-4.63-2.49-6.49,3.02-4.08,2.88-12.9,2.88-12.9Z"/>
                <path class="cls-42" d="M436.18,335.53s4.16,4.21,10.02,5.23c5.86,1.02,11.2-1.53,11.2-1.53,0,0-4.16-4.21-10.02-5.23-5.86-1.02-11.2,1.53-11.2,1.53Z"/>
                <path class="cls-38" d="M525.85,313.14c-.37,2.3-2.75,4.56-4.51,5.95-1.22-.77-2.52-1.09-3.79-.82-3.68.79-5.63,6.23-4.36,12.14,1.27,5.91,5.29,10.06,8.97,9.27,3.68-.79,5.64-6.23,4.36-12.14-.48-2.23-1.35-4.21-2.45-5.77,1.86-2.96,1.78-8.63,1.78-8.63Z"/>
                <path class="cls-42" d="M531.13,321.12s-1.66,3.66-5.16,6.04c-3.5,2.38-7.51,2.57-7.51,2.57,0,0,1.66-3.66,5.16-6.04,3.5-2.38,7.51-2.57,7.51-2.57Z"/>
                <g>
                  <path class="cls-21" d="M496.11,365.18c-2.34-.33-4.77-1.05-7.03-.32,3.42,4.76,8.78,8.09,14.56,9.04.45.07.91.13,1.35.02.54-.14.98-.51,1.38-.88,2.58-2.37,4.69-5.25,6.16-8.42.3-.64.57-1.32.59-2.03.05-2.35-1.39-1.53-2.6-.72-1.41.94-2.94,1.7-4.54,2.26-3.15,1.12-6.57,1.51-9.88,1.04Z"/>
                  <path class="cls-17" d="M503.85,372.52c1.1-1.51,2.41-2.87,3.55-4.36,1.41-1.84,2.67-3.78,3.7-5.86-8.34-3.44-9.9-11.05-11.39-19.72-.68-3.91-.42-7.98.74-11.77.61-1.99,1.46-3.91,2.53-5.7.55-.91,1.15-1.79,1.8-2.62.64-.82,1.36-1.35,2.21-1.94-.34.61-.51,1.27-.81,1.88-.76,1.6-1.59,3.12-2.18,4.8-.59,1.68-1.03,3.41-1.33,5.17-.59,3.51-.61,7.14.02,10.65.61,3.44,1.86,6.79,3.8,9.71,2.21,3.33,5.52,6.4,9.29,7.82,0,0-3.72,6.85-4.11,7.43-1,1.48-2.14,2.88-3.42,4.13-1.25,1.23-2.69,2.68-4.48,2.99-.56.1-1.16.1-1.68-.13.26-.27.5-.56.7-.87.09-.14.17-.28.26-.42.25-.41.52-.81.8-1.19Z"/>
                </g>
                <path class="cls-21" d="M524.13,362.35c1.83,2.86,8.62,1.77,15.17-2.42,6.55-4.2,10.37-9.91,8.53-12.77-1.83-2.86-8.62-1.77-15.17,2.42-6.55,4.19-10.37,9.91-8.53,12.77Z"/>
                <path class="cls-21" d="M431.47,367.09c-.21,4.95,8.81,9.34,20.15,9.82,11.33.47,20.69-3.15,20.89-8.1.21-4.95-8.81-9.34-20.15-9.82-11.33-.47-20.69,3.16-20.89,8.1Z"/>
              </g>
            </g>
          </g>
          <path class="cls-43" d="M540.18,289.02c-92.2-19.18-181.69,58.72-180.31,60.9,1.3,2.2-10.62-2.95-14.89-4.75-4.34-1.79-46.38-120.89-41.66-131.17,4.72-10.28,52.6-6.98,52.6-6.98,11.76-18.36,53.52-25.67,92.79-33.87,0,0,21.74-33.46,26.41-35.1,8.11-2.82,51.98,79.33,66.04,123.63,5.51,17.32,6.51,28.91-.98,27.34Z"/>
        </g>
        <path class="cls-21" d="M619.43,784.43s-46.01,25.59-70.73,28.57c-24.72,2.97-130.29-9.6-130.29-9.6l1.97-26.75s135.37,12.05,140.67,8.36c5.29-3.69,52.11-8.98,52.11-8.98l6.27,8.39Z"/>
        <path class="cls-47" d="M586.11,838.12c-5.86-.72-35.89,13.49-35.89,13.49l-44.74,7.64s14.38,72.18,17.84,71.71c3.53-.48,86.42-33.58,86.42-33.58,0,0-17.85-58.47-23.64-59.27ZM536.9,903.15c-1.82-7.6-3.88-16.96-5.97-26.54l25.75-4.35,2.63-1.29c5.49-2.54,11.39-5.14,16.36-7.25,2.32,5.95,4.99,13.43,7.62,21.21-16.26,6.45-33.61,13.26-46.4,18.23Z"/>
        <path class="cls-4" d="M483.3,699.17h-.07c3.64,113.01,8.17,279.87,9.98,284.16,2.74,6.39,28.09,108.61,24.68,115.84-3.48,7.24-144.1,33.84-164.48,23.64-20.31-10.21-50.61-93.45-56.55-110.2-5.95-16.83,35.37-431.53,35.37-431.53,0,0-127.78-35.31-141.75-36.94-13.89-1.57-66.35-79.18-63.3-81.61,3.05-2.43,87.06-72.46,87.06-72.46l18.75,23.66s56.69,16.29,102.38,29.54c30.4,8.69,55.86,16.04,56.63,16.37,1.75.7,7.97,11.01,7.97,11.01,0,0,76.18,119.88,78.91,126.71.95,2.25,2.53,45.29,4.43,101.81Z"/>
        <path class="cls-49" d="M205.64,374.13s-106.93,73.29-102.69,84.57c4.24,11.28,14.07,41.3,28.78,38.88,14.71-2.42,97.66-85.56,98.76-92.43,1.1-6.88-24.85-31.02-24.85-31.02Z"/>
        <g>
          <path class="cls-49" d="M483.3,699.17h-.07c-9.41,1.21-33.51-36.48-59.37-82.85-1.43-2.61-2.94-5.22-4.38-7.9-9.56-17.42-19.31-35.75-28.55-53.49-1.36-2.62-2.65-5.25-4.02-7.88-9.16-17.69-17.64-34.6-24.87-49.17-1.17-2.29-2.26-4.44-3.26-6.54-12-24.29-19.83-40.64-19.83-40.64l-3.6-7.43c30.4,8.69,55.86,16.04,56.63,16.37,1.75.7,7.97,11.01,7.97,11.01,0,0,.92,1.46,2.55,3.97.84,1.4,1.93,3.12,3.21,5.11,5.86,9.28,15.56,24.59,26.01,41.17,1.36,2.05,2.64,4.1,3.93,6.16,10.36,16.45,21.02,33.5,29.22,46.78,1.31,2.2,2.67,4.32,3.88,6.31,5.65,9.31,9.55,15.76,10.1,17.2.95,2.25,2.53,45.29,4.43,101.81Z"/>
          <g class="cls-6">
            <path class="cls-28" d="M405.73,479.73l-43.68,18.15c-1.17-2.29-2.26-4.44-3.26-6.54,11.8-4.84,32.07-12.4,43.72-16.72.84,1.4,1.93,3.12,3.21,5.11Z"/>
          </g>
          <g class="cls-6">
            <path class="cls-28" d="M435.67,527.07l-44.73,27.86c-1.36-2.62-2.65-5.25-4.02-7.88,12.9-7.86,32.54-19.09,44.82-26.15,1.36,2.05,2.64,4.1,3.93,6.16Z"/>
          </g>
          <g class="cls-6">
            <path class="cls-28" d="M468.77,580.16l-44.91,36.16c-1.43-2.61-2.94-5.22-4.38-7.9,10.25-8.3,31.68-24.37,45.41-34.58,1.31,2.2,2.67,4.32,3.88,6.31Z"/>
          </g>
        </g>
        <g class="cls-6">
          <g class="cls-30">
            <path class="cls-28" d="M540.18,289.02c-92.2-19.18-181.69,58.72-180.31,60.9,1.3,2.2-10.62-2.95-14.89-4.75-4.34-1.79-46.38-120.89-41.66-131.17l46.53,102.3s45.47-38.4,91.4-47.35c35.77-6.93,81.47-7.43,99.92-7.27,5.51,17.32,6.51,28.91-.98,27.34Z"/>
          </g>
        </g>
        <path class="cls-4" d="M803.93,663.53c-7.45,5.04-162.28-25.45-162.28-25.45,0,0,127.44,289.98,139.12,299.19,11.76,9.28-24.34,75.41-23.16,82.02,1.12,6.69-42.36,19.34-50.83,16.89-8.47-2.45-54.95-148.59-54.95-148.59,0,0-57.74-154.26-88.64-240.04-10.72-29.71-18.15-51.16-18.92-55.23-2.87-15.88,18.3-119.43,18.3-119.43,4.55-.4,20.09,2.17,40.49,6.18,56.26,11.02,149.63,33,152.91,34.86,4.36,2.43,55.48,144.49,47.97,149.61Z"/>
        <path class="cls-11" d="M603.05,479.07c-7.46,33.11-29.69,128.89-39.87,168.48-10.72-29.71-18.15-51.16-18.92-55.23-2.87-15.88,18.3-119.43,18.3-119.43,4.55-.4,20.09,2.17,40.49,6.18Z"/>
        <path class="cls-49" d="M755.96,513.93s14.23-12.66,16.33-14.37c2.11-1.71,77.72,107.78,78.08,112.81.36,5.03-40.15,58.11-46.45,51.17-6.3-6.94-47.97-149.61-47.97-149.61Z"/>
        <path class="cls-43" d="M584.42,472.09s-294.52,374.92-293.01,381.96c1.5,7.03-2,19.33,3.17,23.39,5.16,4.06,326.08-398.42,326.08-398.42-12.66-6.75-24.74-9.04-36.23-6.93Z"/>
      </g>
      <g>
        <path class="cls-39" d="M1562.22,334.45c-.12,1.21-.19,2.47-.26,3.69-.37,7.38.03,14.76,2.06,21.79,3.23,11.48,11.54,22.14,23.05,25.14-4.93-6.61-5.6-16.15-1.68-23.38.68,11,9.75,20.97,20.66,22.67-2.18-6.07-2.93-12.64-2.12-19.02,19.46,2.97,39.54-.75,59.2-2.1,26.45-1.79,54.03-1.08,78.03,10.18,5.18-8.71,7.52-19.05,6.64-29.13,6.95,9.65,8.32,23.03,3.41,33.85,13.13-4.7,22.7-17.93,23.11-31.84,2.1,4.16,4.15,8.32,6.25,12.49.22.45.48.95.7,1.4,6.39-5.23,9.02-13.8,9.21-22.17.07-1.21.04-2.43-.03-3.65-.53-9.43-3.51-18.61-5.02-27.95-2.75-16.62-.89-33.61-1.34-50.44-.82-29.03-8.83-58.17-25.19-82.1-16.4-23.98-41.49-42.42-69.89-48.44-36.67-7.76-81.25,3.51-102.65,36.82-22.95,35.74-23.91,84.64-21.05,125.62.83,11.88-.5,24.81-2.06,36.61-.43,3.29-.82,6.67-1.06,9.97Z"/>
        <g>
          <g>
            <path class="cls-11" d="M1705.12,1207.66s1.3-19.52,3.17-48.48l-97.41-5.6c7.83,52.43,15.48,97.27,20.29,109.45,13.39,33.89,56.61,358.08,56.61,358.08l61.14,3.51s.7-262.12.33-281.95c-.67-38.11-44.13-135.01-44.13-135.01Z"/>
            <path class="cls-11" d="M1557.19,1208.25c.94-3.91,3.24-29.83,6.01-64.22l-101.67-5.84c3.9,46.25,8.19,82.87,10.68,91.66,6.87,24.24,6.62,402.75,6.62,402.75l62.32,3.58s42-303.69,38.64-328.6c-4.57-34.06-22.6-99.33-22.6-99.33Z"/>
            <path class="cls-21" d="M1705.12,1207.66s1.3-19.52,3.17-48.48l-23.79-1.37c-2.31,23.46-3.9,38.46-3.9,38.46,0,0,46.96,135.39,51.94,140.98,4.14,4.64,6.37,220.38,6.39,286.8l9.98.57s.7-262.12.33-281.95c-.67-38.11-44.13-135.01-44.13-135.01Z"/>
            <polygon class="cls-47" points="1754.09 1624.92 1757.92 1558.27 1670.97 1553.27 1681.66 1620.01 1754.09 1624.92"/>
            <path class="cls-21" d="M1557.19,1208.25c.94-3.91,3.24-29.83,6.01-64.22l-20.06-1.15-3.74,57.34,24.38,124.06-36.5,311.1,13.88.8s42-303.69,38.64-328.6c-4.57-34.06-22.6-99.33-22.6-99.33Z"/>
            <polygon class="cls-47" points="1547.57 1634.2 1558.24 1557.31 1470.26 1547.63 1469.19 1626.7 1547.57 1634.2"/>
          </g>
          <g>
            <g>
              <path class="cls-36" d="M1374.98,1694.57c.65-3.26,2.29-7.02,6.32-8.73,11.77-4.97,54.8-20.11,66.69-29.27,9.24-7.11,17.82-23.08,21.2-29.86l78.38,7.49c3.54,21.83,4.56,63.64,4.74,72.39l-177.33-12.03Z"/>
              <polygon class="cls-47" points="1373.61 1713.45 1550.94 1725.47 1552.31 1706.59 1374.98 1694.57 1373.61 1713.45"/>
              <g>
                <path class="cls-47" d="M1462.54,1662.86c.11.23.21.45.31.68.75,1.71,1.12,4.29-1.01,5.15-1.09.44-2.3.2-3.41-.11-3.84-1.07-7.31-3.09-10.6-5.39-3.53-2.47-7.3-5.14-9.43-9.15-2.21-4.14,1.48-7.62,5.63-6.41,7.18,2.09,15.06,8.05,18.5,15.22Z"/>
                <path class="cls-47" d="M1448.49,1672.08c.11.23.21.45.31.68.75,1.71,1.12,4.29-1.01,5.15-1.09.44-2.29.2-3.41-.11-3.84-1.07-7.31-3.09-10.6-5.39-3.54-2.47-7.3-5.14-9.43-9.15-2.21-4.14,1.48-7.62,5.63-6.41,7.18,2.09,15.06,8.05,18.5,15.22Z"/>
                <path class="cls-47" d="M1431.59,1677.63c.11.23.21.45.31.68.75,1.71,1.12,4.29-1.01,5.15-1.09.44-2.3.2-3.41-.11-3.84-1.07-7.31-3.09-10.6-5.39-3.54-2.47-7.3-5.14-9.43-9.15-2.21-4.14,1.48-7.62,5.63-6.41,7.18,2.09,15.06,8.05,18.5,15.22Z"/>
              </g>
            </g>
            <path class="cls-36" d="M1661.53,1717.85c-1.87,11.85,48.32,41.56,57.94,38.57,9.6-2.99,48.63-25.51,53.07-41.16,1.4-4.94.07-15.76-2.38-28.25-5.34-27.09-16.07-62.09-16.07-62.09l-72.43-4.91s-11.08,52.18-16.77,80.37c-1.68,8.32-2.94,14.76-3.36,17.46Z"/>
            <path class="cls-47" d="M1661.53,1717.85c-1.87,11.85,48.32,41.56,57.94,38.57,9.6-2.99,48.63-25.51,53.07-41.16,1.4-4.94.07-15.76-2.38-28.25-14.51,14.51-37.87,35.01-53.24,34.02-12.8-.81-34.67-11.24-52.03-20.65-1.68,8.32-2.94,14.76-3.36,17.46Z"/>
            <g>
              <path class="cls-47" d="M1729.64,1650.18c-3.17,2.42-6.87,3.97-10.68,5.21-4.1,1.33-8.5,2.73-12.99,2.02-4.63-.73-5.19-5.77-1.72-8.36,6-4.47,15.5-7.17,23.3-5.6.25.05.49.1.73.16,1.82.44,4.1,1.69,3.5,3.91-.31,1.13-1.22,1.95-2.14,2.66Z"/>
              <path class="cls-47" d="M1704.85,1674.18c-4.64-.73-5.19-5.77-1.72-8.36,6-4.47,15.5-7.17,23.3-5.6.25.05.49.1.73.16,1.82.43,4.1,1.69,3.5,3.91-.31,1.13-1.22,1.95-2.14,2.66-3.17,2.42-6.87,3.97-10.69,5.21-4.1,1.33-8.5,2.73-12.99,2.02Z"/>
              <path class="cls-47" d="M1706.3,1684.12c6-4.47,15.5-7.17,23.3-5.6.25.05.49.1.73.16,1.82.43,4.1,1.69,3.5,3.91-.31,1.13-1.22,1.96-2.14,2.66-3.17,2.42-6.87,3.97-10.69,5.21-4.1,1.33-8.5,2.73-12.99,2.02-4.64-.73-5.19-5.77-1.72-8.36Z"/>
            </g>
          </g>
        </g>
        <g>
          <path class="cls-43" d="M1730.21,393.47l-.35,1.54-.15.77c-.07.31-.14.62-.16.93-2.61,12.82-8.79,44.19-14.51,81.99-.99,6.3-1.93,12.81-2.84,19.42-3.57,25.89,36.54,65.67,35.03,91.94-3.24,56.4,72.34,638.71,82.65,674.85-139.53,25.43-339.89,26.23-439.66-25.27,9.36-55.41,144.33-680.47,144.33-680.47,0,0-3.21-2.89-7.78-10.46-14.07-23.34-16.51-51.77-8.18-77.73,13.2-41.15,38.71-86.58,38.71-86.58,0,0,7.44,1,18.05,2.24,25.1,2.85,67.94,7.08,71.83,2.88,5.45-5.99-2.37-44.94-2.37-44.94l45.9-12.78s4.61,54.02,10.02,57.77l19.76.56,10.35.28-.42,1.85-.22,1.19Z"/>
          <g class="cls-34">
            <path class="cls-47" d="M1635.53,1175.54c135.77,7.8,250.21-17.15,252.03-17.56l-1.56-6.98c-2.91.65-293.32,63.9-496.62-44.54l-3.37,6.31c77.51,41.34,167.42,58.04,249.52,62.76Z"/>
            <path class="cls-47" d="M1635.21,1009.87c135.77,7.8,250.21-17.15,252.03-17.56l-1.56-6.98c-2.91.65-293.32,63.9-496.62-44.54l-3.37,6.31c77.51,41.34,167.42,58.04,249.52,62.76Z"/>
            <path class="cls-47" d="M1634.89,844.19c135.77,7.8,250.2-17.15,252.03-17.56l-1.56-6.98c-2.91.64-293.32,63.9-496.62-44.54l-3.37,6.31c77.51,41.34,167.42,58.04,249.52,62.76Z"/>
            <path class="cls-47" d="M1634.58,678.52c135.77,7.8,250.21-17.15,252.03-17.56l-1.56-6.98c-2.91.65-293.32,63.9-496.62-44.54l-3.37,6.31c77.51,41.34,167.42,58.04,249.52,62.76Z"/>
            <path class="cls-47" d="M1630.8,573.27c135.77,7.8,250.19-17.14,252.02-17.55l-1.56-6.98c-2.91.66-293.33,63.9-496.62-44.55l-3.37,6.31c77.51,41.34,167.43,58.04,249.53,62.76Z"/>
          </g>
        </g>
        <path class="cls-47" d="M1581.09,445.15c13.7,12.78,28.69,21.82,47.15,25.78,17.04,3.66,32.68.3,49.69-1.05,2.76-.22,4.03,2.99,1.62,4.56-32.19,21-81.92,3.27-105.49-23.01-4.12-4.6,2.67-10.34,7.04-6.27Z"/>
        <path class="cls-11" d="M1575.37,386.66c2.8,18.39,13.71,56.06,56.14,66.52,47,11.56,79.24-43.58,89-63.02l-19.76-.56c-5.41-3.75-10.02-57.77-10.02-57.77l-45.9,12.78s7.82,38.95,2.37,44.94c-3.89,4.2-46.72-.03-71.83-2.88Z"/>
        <g>
          <path class="cls-22" d="M1726.52,191.33c-24.08-30.98-66.76-42.31-101.81-24.68-8.06,4.06-14.58,8.81-17.71,14.28-12.5,21.87-33.23,103.78-18.35,144.58,14.88,40.8,42.22,36.9,52,34.65,9.79-2.25,56.1-18.51,67.4-32.66,11.3-14.15,38.1-88.99,34.24-109.11-1.29-6.72-7.75-16.72-15.79-27.06Z"/>
          <path class="cls-11" d="M1729.95,185.54c-24.08-30.98-66.76-42.31-101.81-24.68-8.06,4.05-14.58,8.81-17.71,14.28-12.5,21.87-33.23,103.78-18.35,144.58,14.88,40.8,42.22,36.9,52,34.65,9.79-2.25,56.1-18.51,67.4-32.66,11.3-14.15,38.1-88.99,34.24-109.11-1.29-6.72-7.75-16.72-15.79-27.06Z"/>
          <path class="cls-39" d="M1617.61,154.07c8.54-6.44,19.24-9.43,29.86-10.7,29.16-3.48,59.61,5.66,82.03,24.62,10.79,9.13,19.88,20.63,24.54,33.97,4.8,13.75,4.72,28.82,2.09,43.14-2.63,14.32-8.38,29.46-13.43,43.12,0,0-4.96-10.65-8.73-10.84-3.77-.19-11.61,5.73-11.61,5.73l4.48-20.84c-2.61-4.5-3.66-9.91-2.67-15.03-3.51,3.55-5.34,8.7-4.85,13.67-5.67-6.08-8.35-14.83-7.07-23.05.86-5.47,4.6-13.54,9.97-17.83-4.66-5.23-8.97-10.76-12.76-16.64-.92-1.42-1.82-2.92-2.56-4.47-.39,1.26-.65,2.52-.77,3.71-.43,4.6,1.44,9.37,4.89,12.45-14.85.59-29.41-10.05-33.35-24.38-5.16,4.59-3.76,14.38,2.49,17.33-8.23,3.44-18.03,2.84-25.79-1.56-7.76-4.4-13.29-12.51-14.56-21.34-3.32,2.07-5.14,6.31-4.36,10.14.78,3.84,4.12,7.02,7.99,7.62-7.8,4.55-17.97,4.73-25.92.46-7.96-4.27-13.42-12.85-13.94-21.87-.61-10.68,5.49-21,14.03-27.43Z"/>
          <path class="cls-33" d="M1562.22,334.45c-.12,1.21-.19,2.47-.26,3.69,6.04-19.52,10.07-39.65,12.07-59.99,1.96-19.71,1.99-39.73,6.51-59.05,4.52-19.32,14.33-38.38,31.2-48.81,3.55,9.36,10.44,17.45,19.17,22.43-.31-7.32-.57-14.64-.88-21.92,8.12,10.4,20.17,17.72,33.19,20.03-1.8-7.61-1.24-15.75,1.52-23.1,8.95,12.06,21.41,21.44,35.48,26.73.66-6.34,1.36-12.63,2.06-18.93,10.36,16.42,24.95,30.22,41.99,39.67-5.47,10.4-8.48,22.06-8.76,33.83,2.4-1.86,4.84-3.67,7.28-5.52,5.33,32.69,13.56,64.92,24.62,96.15,2.46-13.2,4.93-26.41,7.39-39.61,7.62,11.5,12.96,24.46,15.69,37.97.07-1.21.04-2.43-.03-3.65-.53-9.43-3.51-18.61-5.02-27.95-1.3-7.87-1.53-15.82-1.51-23.81.02-8.86.39-17.8.17-26.63-.82-29.03-8.83-58.17-25.19-82.1-16.4-23.98-41.49-42.42-69.89-48.44-36.67-7.76-81.25,3.51-102.65,36.82-2.57,4.04-4.9,8.19-6.95,12.56-16.18,34.09-16.63,76.68-14.1,113.06.83,11.88-.5,24.81-2.06,36.61-.43,3.29-.82,6.67-1.06,9.97Z"/>
          <path class="cls-29" d="M1579.43,174.81c12.68-9.6,26.01-18.62,40.69-22.45-1.01,8.27.3,16.82,3.76,24.37,4.72-9.18,9.38-18.36,14.1-27.54,3.11,9.39,9.01,17.86,16.79,24,1.61-9.31,3.26-18.61,4.87-27.92,8.53,11.64,20.53,20.71,34.02,25.82-.92-7.8-1.83-15.64-2.74-23.49,19.91,21.31,43.95,38.76,70.32,51.14-5.41,11.09-7.74,23.66-6.64,35.95,2.46-2.15,4.92-4.3,7.38-6.44.1,17.78,1.95,35.62,5.57,53.02,2.99-6.31,5.94-12.61,8.92-18.87,2.49,6.72,4.98,13.44,7.46,20.2.02-8.86.39-17.8.17-26.63-.82-29.03-8.83-58.17-25.19-82.1-16.4-23.98-41.49-42.42-69.89-48.44-36.67-7.76-81.25,3.51-102.65,36.82-2.57,4.04-4.9,8.19-6.95,12.56Z"/>
          <path class="cls-38" d="M1624.27,256.62c-1.57-5.37-5.92-9.84-11.25-11.55-5.33-1.71-11.47-.61-15.87,2.85,9.52-.9,20.18,2.13,27.12,8.71Z"/>
          <g>
            <path class="cls-21" d="M1637.32,284.42c2.09-.21,4.27-.77,6.24-.05-3.19,4.1-8.05,6.87-13.21,7.52-.4.05-.81.09-1.2-.03-.47-.14-.85-.48-1.2-.83-2.21-2.18-3.98-4.81-5.18-7.67-.24-.58-.47-1.19-.46-1.82.04-2.08,1.28-1.31,2.33-.55,1.22.88,2.55,1.6,3.95,2.16,2.75,1.1,5.77,1.56,8.72,1.26Z"/>
            <path class="cls-17" d="M1630.21,290.66c-.92-1.38-2.04-2.63-3-3.98-1.19-1.68-2.24-3.44-3.08-5.32,7.51-2.77,9.14-9.46,10.76-17.1.73-3.45.64-7.05-.26-10.46-.47-1.79-1.16-3.52-2.05-5.14-.45-.82-.96-1.62-1.51-2.38-.54-.75-1.16-1.24-1.9-1.79.28.55.41,1.14.65,1.69.62,1.45,1.31,2.82,1.77,4.33s.8,3.06,1.01,4.63c.41,3.14.3,6.35-.37,9.44-.66,3.03-1.88,5.96-3.69,8.48-2.07,2.88-5.11,5.49-8.5,6.61-.03.01,3.07,6.2,3.39,6.72.84,1.35,1.8,2.62,2.89,3.78,1.07,1.13,2.29,2.47,3.87,2.8.49.11,1.02.12,1.49-.06-.22-.24-.42-.51-.59-.79-.07-.12-.15-.25-.22-.38-.21-.37-.43-.73-.67-1.09Z"/>
            <g>
              <path class="cls-17" d="M1670.11,305.18c-16.51,7.91-36.48,8.2-53.21.77,8,6.33,17.07,10.59,27.28,10.56,10.21-.04,17.97-4.94,25.93-11.33Z"/>
              <path class="cls-17" d="M1653.32,321.93c-6.91,3.68-15.64,3.73-22.59.13,2.52,3.6,6.19,6,10.58,6.24,4.39.24,9.12-3.06,12.01-6.36Z"/>
            </g>
          </g>
          <path class="cls-11" d="M1714.83,286.57c2.48-1.01,15.62-16.22,23.57-6,7.95,10.23,9.26,26.4.64,34.9-7.86,7.76-18.66,15.99-30.97,12.03l6.76-40.94Z"/>
          <path class="cls-21" d="M1737.37,292.8c.36,2.17-.12,4.37-.93,6.43-3.44,8.76-12.33,14.99-20.83,20.77,2.74-4.17,3.98-9.01,3.82-13.82-.05-1.67-.27-3.35-.17-5.02.42-6.72,15.97-21.19,18.11-8.35Z"/>
          <path class="cls-35" d="M1711.38,322.26s.16-.08.48-.24c.31-.17.79-.38,1.36-.73,1.13-.69,2.71-1.81,4.24-3.53,1.53-1.72,2.97-4.05,3.77-6.88.75-2.82.87-6.16-.35-9.48-.13-.42-.31-.82-.5-1.22l-.14-.3c-.03-.07-.01-.03-.02-.04h0s0,0,0,0h0s0,.01.03-.05l.15-.25.31-.49c.21-.32.42-.64.63-.96.85-1.26,1.76-2.43,2.69-3.52.93-1.08,1.88-2.08,2.81-2.98.94-.89,1.84-1.73,2.72-2.34.88-.61,1.83-.98,2.69-1.04.87-.04,1.66.22,2.19.55.53.33.81.73.92,1.02.12.29.1.46.11.46-.02,0,.05-.16,0-.48-.03-.32-.22-.8-.74-1.28-.52-.46-1.35-.92-2.48-1.03-1.13-.09-2.39.23-3.53.8-1.15.58-2.2,1.34-3.3,2.17-1.1.84-2.22,1.79-3.31,2.87-1.09,1.07-2.15,2.27-3.13,3.57-.25.32-.48.66-.72,1l-.35.51-.46.73-.32.51c.06.18.16.37.24.55l.35.79c.16.35.32.69.43,1.06,1.06,2.88,1.13,5.81.71,8.41-.48,2.6-1.47,4.87-2.61,6.64-1.14,1.78-2.4,3.07-3.33,3.91-.46.43-.88.71-1.13.93-.26.21-.4.33-.4.33Z"/>
          <path class="cls-33" d="M1597.37,221.63s12.47-8.47,19.88-7.31c7.41,1.16,9.23,8.13,6.22,9.31-3.02,1.18-26.1-2-26.1-2Z"/>
          <path class="cls-33" d="M1701.96,239.59s-16.26-16.14-27.69-19.04c-11.43-2.9-16.16,3.6-11.98,6.57,4.18,2.96,39.67,12.48,39.67,12.48Z"/>
          <g>
            <path class="cls-21" d="M1668.47,290.55c.26,3.57,8.11,5.92,17.54,5.25,9.43-.67,16.87-4.11,16.61-7.69-.25-3.57-8.11-5.92-17.54-5.25-9.43.67-16.87,4.11-16.61,7.68Z"/>
            <path class="cls-21" d="M1578.37,266.9c-1.3,2.38,3.45,7.49,10.62,11.41,7.17,3.92,14.03,5.17,15.33,2.79,1.3-2.38-3.45-7.49-10.62-11.41-7.17-3.92-14.03-5.17-15.33-2.8Z"/>
          </g>
          <g>
            <path class="cls-38" d="M1694,249.42c-1.85,2.65-6.23,4.01-9.22,4.65-.98-1.9-2.42-3.25-4.23-3.69-4.61-1.13-9.83,3.96-11.64,11.37-1.82,7.41.45,14.33,5.07,15.46,4.61,1.13,9.82-3.96,11.64-11.37.56-2.29.73-4.54.56-6.59,4.28-2.23,7.82-9.84,7.82-9.84Z"/>
            <path class="cls-13" d="M1677.21,264.79s4.29,2.73,9.06,2.11c4.77-.62,8.22-4.36,8.22-4.36,0,0-4.29-2.73-9.07-2.11-4.77.62-8.22,4.36-8.22,4.36Z"/>
          </g>
        </g>
        <path class="cls-4" d="M1700.74,389.59s-31.26,217.83-22.14,254.82c9.12,36.99,29.69,289.44,50.83,290.62,21.15,1.18,155-6.25,152.3-27.25-2.7-20.99-83.83-330.75-83.83-330.75,0,0-.33-156.3-7.58-164.53-7.24-8.23-45.18-27.83-89.59-22.91Z"/>
        <path class="cls-4" d="M1610.93,390.15s-96.25,519.66-99.57,537.41c-3.32,17.75-81.08-45.1-81.34-63.35-.25-18.25,68.12-291.38,68.12-291.38,0,0-11.67-53.2-.87-82.53,10.8-29.33,51.47-108.93,51.47-108.93,0,0,21.41-3,62.18,8.78Z"/>
        <path class="cls-4" d="M1904.55,715.56l-62.15-36.56s-4.12-56.67,7.05-92.49c0,0-69.35-17.01-89.07-36.38l17.65-146.17s174.27,69.94,195.78,171.46c21.51,101.52-69.26,140.14-69.26,140.14Z"/>
        <g>
          <g>
            <path class="cls-11" d="M1751.87,702.15c1.24,7.31,50.29-6.79,50.29-6.79l8.45,11.31-19.92,7.83-20.12,23.86s2.59,5.47,6.13,12c.29.64.62,1.24.99,1.8.02.06.06.1.09.15.09.17.25.37.34.53.38.74.83,1.54,1.27,2.26,1.78,3.17,3.79,6.35,5.72,9.02.24.31.49.68.67.99,1.25,1.63,2.45,3.04,3.6,4.16,1.24,1.23,2.39,2.06,3.5,2.31l19.27-14.79s32.64,7.93,37.51,6.52c1.95-.56,7.94-7.11,14.44-14.74,2.28-2.72,4.54-5.57,6.77-8.28,0,0,.05-.07.2-.21.74-.96,1.56-1.93,2.36-2.9l-5.35-8.64-1.35-2.14-.58-1.01-.57-.99-17.78-28.95c-.7-.33-1.41-.66-2.18-1.05-2.65-1.24-5.84-2.62-9.34-4.06-2.21-.85-4.56-1.81-6.96-2.7-8.77-3.29-18.4-6.11-26.29-6.63-3.33-.23-6.4-.1-8.83.65-17.23,5.14-43.48,13.2-42.32,20.48Z"/>
            <path class="cls-35" d="M1776.72,750.39c.44.82.91,1.64,1.37,2.48.16-.13.31-.29.46-.44,2.57-2.56,6.1-5.96,9.98-9.54,3.92-3.58,7.66-6.57,10.73-8.49.78-.48,1.47-.91,2.09-1.28.66-.34,1.24-.62,1.7-.86.95-.49,1.48-.76,1.48-.76,0,0-.6,0-1.72.06-.55.04-1.25.08-2.04.17-.77.14-1.66.33-2.63.54-3.89.95-9.01,3.34-13.29,7.26-3.96,3.65-6.55,7.69-8.12,10.87Z"/>
            <path class="cls-35" d="M1785.1,764.12c.21.33.46.65.68.97.72-.71,1.65-1.66,2.78-2.79,2.57-2.56,6.1-5.96,9.99-9.56,3.91-3.57,7.66-6.55,10.73-8.48.78-.48,1.49-.91,2.11-1.29.66-.32,1.22-.62,1.7-.85.94-.49,1.48-.78,1.48-.78,0,0-.61,0-1.73.07-.55.03-1.25.08-2.04.15-.77.15-1.65.33-2.64.56-3.87.94-9,3.33-13.29,7.25-4.25,3.94-6.93,8.32-8.47,11.61-.56,1.22-.98,2.28-1.28,3.14Z"/>
          </g>
          <path class="cls-47" d="M1904.55,715.56s-12.29,19.19-33.49,24.52l-32.89-48.94,4.23-12.14,62.15,36.56Z"/>
        </g>
        <path class="cls-4" d="M1378.44,681.05l65.93-29.2s16.4-59.25-4.2-90.62c0,0,63.48-15.34,77.11-39.39l31.47-140.47s-207.7,32.54-231.19,203.41c-9.5,69.11,60.88,96.28,60.88,96.28Z"/>
        <path class="cls-50" d="M1801.81,437.14c1.47-.94,2.98,1.1,2.14,2.41-9.74,15.25-20.73,27.64-25.96,45.68-6.99,24.1-3.64,47.72,5.98,70.47,2.21,5.22-5.57,9.26-7.89,4.02-17.14-38.6-13.54-97.68,25.72-122.58Z"/>
        <path class="cls-50" d="M1549.69,400.94c.27-.17.63.16.51.44-7.08,17.74-20.11,32.8-28.38,50.21-10.49,22.1-17.72,45.16-21.83,69.28-1.06,6.2-10.92,5.75-9.9-.57,6.38-39.52,23.34-96.74,59.59-119.37Z"/>
        <path class="cls-50" d="M1853.43,577.42c5.63-6.01,11.57-12.21,17.91-17.48,4.16-3.45,8.92,2.27,5.46,6.13-3.27,3.64-6.87,7.12-10.54,10.49,1.67-.03,3.33-.05,5-.16,4.5-.31,8.94-1.39,13.37-.4,2.45.55,2.05,3.78.35,4.86-7.36,4.69-20.73,3.68-29.15,3.45-3.68-.1-4.59-4.53-2.4-6.87Z"/>
        <path class="cls-50" d="M1401.59,542.4c4.73-1.51,9.44,2.42,13.58,4.48,2.91,1.45,5.82,2.9,8.73,4.35-.36-1.64-.74-3.27-1.09-4.9-.82-3.77-1.84-6.97-.74-10.71.55-1.87,3.02-2.2,4.27-.87,2.63,2.81,3.13,6.27,4.07,9.94,1.11,4.36,2.24,8.71,3.28,13.08.9,3.79-3.27,5.73-6.22,4.24-5.58-2.82-11.15-5.64-16.73-8.45-4.4-2.22-9.31-3.38-11.01-8.27-.46-1.33.75-2.54,1.87-2.9Z"/>
        <g>
          <g>
            <path class="cls-11" d="M1531.65,685.22c-2.07,7.12-49.18-12.51-49.18-12.51l-9.69,10.27,18.89,10.06,17.25,26s-3.2,5.14-7.46,11.22c-.36.6-.76,1.16-1.19,1.67-.03.05-.07.09-.11.14-.11.15-.29.34-.4.49-.46.69-1,1.43-1.52,2.1-2.13,2.95-4.49,5.87-6.71,8.31-.27.28-.56.62-.78.91-1.43,1.48-2.78,2.74-4.06,3.72-1.37,1.08-2.61,1.78-3.74,1.89l-17.45-16.9s-33.33,4.14-38.01,2.18c-1.87-.77-7.08-7.97-12.65-16.3-1.95-2.96-3.87-6.05-5.78-9,0,0-.04-.07-.17-.23-.63-1.04-1.33-2.1-2.01-3.16l6.31-7.97,1.59-1.97.69-.93.67-.92,20.98-26.73c.73-.25,1.48-.5,2.29-.79,2.77-.93,6.1-1.93,9.74-2.96,2.29-.59,4.74-1.27,7.22-1.88,9.09-2.26,18.98-3.96,26.88-3.57,3.33.15,6.38.63,8.7,1.66,16.53,7.08,41.69,18.1,39.69,25.19Z"/>
            <path class="cls-35" d="M1501.45,730.29c-.53.76-1.09,1.53-1.65,2.31-.14-.15-.28-.33-.41-.49-2.26-2.83-5.37-6.62-8.83-10.62-3.48-4.01-6.86-7.4-9.69-9.66-.72-.56-1.36-1.07-1.93-1.51-.62-.41-1.16-.76-1.59-1.05-.89-.6-1.38-.93-1.38-.93,0,0,.59.07,1.7.26.55.11,1.23.22,2.01.4.75.22,1.61.51,2.56.84,3.75,1.39,8.57,4.35,12.37,8.73,3.51,4.08,5.63,8.39,6.82,11.72Z"/>
            <path class="cls-35" d="M1491.54,742.97c-.25.3-.53.6-.79.89-.63-.79-1.45-1.84-2.44-3.09-2.26-2.83-5.38-6.62-8.82-10.64-3.48-3.99-6.86-7.39-9.69-9.65-.72-.56-1.37-1.07-1.95-1.53-.62-.4-1.14-.76-1.59-1.03-.87-.6-1.38-.94-1.38-.94,0,0,.61.08,1.71.27.55.09,1.23.22,2.01.39.75.24,1.6.51,2.56.86,3.74,1.37,8.56,4.33,12.38,8.72,3.77,4.4,5.93,9.06,7.09,12.5.42,1.28.71,2.37.91,3.26Z"/>
          </g>
          <path class="cls-47" d="M1378.44,681.05s10.01,20.47,30.45,28.19l38.28-44.85-2.81-12.55-65.93,29.2Z"/>
        </g>
      </g>
    </g>
  </g>
</svg>